<svg width="3175" height="518" viewBox="0 0 3175 518" fill="none" xmlns="http://www.w3.org/2000/svg">
<path d="M698.144 206.896C692.256 206.896 686.965 205.872 682.272 203.824C677.664 201.691 674.037 198.789 671.392 195.12C668.747 191.365 667.381 187.056 667.296 182.192H679.712C680.139 186.373 681.845 189.915 684.832 192.816C687.904 195.632 692.341 197.04 698.144 197.04C703.691 197.04 708.043 195.675 711.2 192.944C714.443 190.128 716.064 186.544 716.064 182.192C716.064 178.779 715.125 176.005 713.248 173.872C711.371 171.739 709.024 170.117 706.208 169.008C703.392 167.899 699.595 166.704 694.816 165.424C688.928 163.888 684.192 162.352 680.608 160.816C677.109 159.28 674.08 156.891 671.52 153.648C669.045 150.32 667.808 145.883 667.808 140.336C667.808 135.472 669.045 131.163 671.52 127.408C673.995 123.653 677.451 120.752 681.888 118.704C686.411 116.656 691.573 115.632 697.376 115.632C705.739 115.632 712.565 117.723 717.856 121.904C723.232 126.085 726.261 131.632 726.944 138.544H714.144C713.717 135.131 711.925 132.144 708.768 129.584C705.611 126.939 701.429 125.616 696.224 125.616C691.36 125.616 687.392 126.896 684.32 129.456C681.248 131.931 679.712 135.429 679.712 139.952C679.712 143.195 680.608 145.84 682.4 147.888C684.277 149.936 686.539 151.515 689.184 152.624C691.915 153.648 695.712 154.843 700.576 156.208C706.464 157.829 711.2 159.451 714.784 161.072C718.368 162.608 721.44 165.04 724 168.368C726.56 171.611 727.84 176.048 727.84 181.68C727.84 186.032 726.688 190.128 724.384 193.968C722.08 197.808 718.667 200.923 714.144 203.312C709.621 205.701 704.288 206.896 698.144 206.896ZM750.997 124.464C748.778 124.464 746.901 123.696 745.365 122.16C743.829 120.624 743.061 118.747 743.061 116.528C743.061 114.309 743.829 112.432 745.365 110.896C746.901 109.36 748.778 108.592 750.997 108.592C753.13 108.592 754.922 109.36 756.373 110.896C757.909 112.432 758.677 114.309 758.677 116.528C758.677 118.747 757.909 120.624 756.373 122.16C754.922 123.696 753.13 124.464 750.997 124.464ZM756.629 135.856V206H744.981V135.856H756.629ZM801.313 207.152C795.937 207.152 791.116 206.256 786.849 204.464C782.582 202.587 779.212 200.027 776.737 196.784C774.262 193.456 772.897 189.659 772.641 185.392H784.673C785.014 188.891 786.636 191.749 789.537 193.968C792.524 196.187 796.406 197.296 801.185 197.296C805.622 197.296 809.121 196.315 811.681 194.352C814.241 192.389 815.521 189.915 815.521 186.928C815.521 183.856 814.156 181.595 811.425 180.144C808.694 178.608 804.47 177.115 798.753 175.664C793.548 174.299 789.281 172.933 785.953 171.568C782.71 170.117 779.894 168.027 777.505 165.296C775.201 162.48 774.049 158.811 774.049 154.288C774.049 150.704 775.116 147.419 777.249 144.432C779.382 141.445 782.412 139.099 786.337 137.392C790.262 135.6 794.742 134.704 799.777 134.704C807.542 134.704 813.814 136.667 818.593 140.592C823.372 144.517 825.932 149.893 826.273 156.72H814.625C814.369 153.051 812.876 150.107 810.145 147.888C807.5 145.669 803.916 144.56 799.393 144.56C795.212 144.56 791.884 145.456 789.409 147.248C786.934 149.04 785.697 151.387 785.697 154.288C785.697 156.592 786.422 158.512 787.873 160.048C789.409 161.499 791.286 162.693 793.505 163.632C795.809 164.485 798.966 165.467 802.977 166.576C808.012 167.941 812.108 169.307 815.265 170.672C818.422 171.952 821.11 173.915 823.329 176.56C825.633 179.205 826.828 182.661 826.913 186.928C826.913 190.768 825.846 194.224 823.713 197.296C821.58 200.368 818.55 202.8 814.625 204.592C810.785 206.299 806.348 207.152 801.313 207.152ZM857.564 145.456V186.8C857.564 190.213 858.289 192.645 859.74 194.096C861.191 195.461 863.708 196.144 867.292 196.144H875.868V206H865.372C858.887 206 854.023 204.507 850.78 201.52C847.537 198.533 845.916 193.627 845.916 186.8V145.456H836.828V135.856H845.916V118.192H857.564V135.856H875.868V145.456H857.564ZM953.981 168.24C953.981 170.459 953.853 172.805 953.597 175.28H897.533C897.96 182.192 900.306 187.611 904.573 191.536C908.925 195.376 914.173 197.296 920.317 197.296C925.352 197.296 929.533 196.144 932.861 193.84C936.274 191.451 938.664 188.293 940.029 184.368H952.573C950.696 191.109 946.941 196.613 941.309 200.88C935.677 205.061 928.68 207.152 920.317 207.152C913.661 207.152 907.688 205.659 902.397 202.672C897.192 199.685 893.096 195.461 890.109 190C887.122 184.453 885.629 178.053 885.629 170.8C885.629 163.547 887.08 157.189 889.981 151.728C892.882 146.267 896.936 142.085 902.141 139.184C907.432 136.197 913.49 134.704 920.317 134.704C926.973 134.704 932.861 136.155 937.981 139.056C943.101 141.957 947.026 145.968 949.757 151.088C952.573 156.123 953.981 161.84 953.981 168.24ZM941.949 165.808C941.949 161.371 940.968 157.573 939.005 154.416C937.042 151.173 934.354 148.741 930.941 147.12C927.613 145.413 923.901 144.56 919.805 144.56C913.917 144.56 908.882 146.437 904.701 150.192C900.605 153.947 898.258 159.152 897.661 165.808H941.949ZM1053.71 134.576C1059.17 134.576 1064.03 135.728 1068.3 138.032C1072.57 140.251 1075.94 143.621 1078.41 148.144C1080.89 152.667 1082.12 158.171 1082.12 164.656V206H1070.6V166.32C1070.6 159.323 1068.85 153.989 1065.36 150.32C1061.94 146.565 1057.29 144.688 1051.4 144.688C1045.35 144.688 1040.52 146.651 1036.94 150.576C1033.36 154.416 1031.56 160.005 1031.56 167.344V206H1020.04V166.32C1020.04 159.323 1018.29 153.989 1014.8 150.32C1011.38 146.565 1006.73 144.688 1000.84 144.688C994.785 144.688 989.964 146.651 986.38 150.576C982.796 154.416 981.004 160.005 981.004 167.344V206H969.356V135.856H981.004V145.968C983.308 142.299 986.38 139.483 990.22 137.52C994.145 135.557 998.455 134.576 1003.15 134.576C1009.04 134.576 1014.24 135.899 1018.76 138.544C1023.29 141.189 1026.66 145.072 1028.88 150.192C1030.84 145.243 1034.08 141.403 1038.6 138.672C1043.13 135.941 1048.16 134.576 1053.71 134.576ZM1096.88 170.672C1096.88 163.504 1098.33 157.232 1101.23 151.856C1104.13 146.395 1108.1 142.171 1113.14 139.184C1118.26 136.197 1123.93 134.704 1130.16 134.704C1136.3 134.704 1141.64 136.027 1146.16 138.672C1150.68 141.317 1154.05 144.645 1156.27 148.656V135.856H1168.05V206H1156.27V192.944C1153.97 197.04 1150.51 200.453 1145.9 203.184C1141.38 205.829 1136.09 207.152 1130.03 207.152C1123.8 207.152 1118.17 205.616 1113.14 202.544C1108.1 199.472 1104.13 195.163 1101.23 189.616C1098.33 184.069 1096.88 177.755 1096.88 170.672ZM1156.27 170.8C1156.27 165.509 1155.2 160.901 1153.07 156.976C1150.94 153.051 1148.04 150.064 1144.37 148.016C1140.78 145.883 1136.82 144.816 1132.46 144.816C1128.11 144.816 1124.14 145.84 1120.56 147.888C1116.98 149.936 1114.12 152.923 1111.98 156.848C1109.85 160.773 1108.78 165.381 1108.78 170.672C1108.78 176.048 1109.85 180.741 1111.98 184.752C1114.12 188.677 1116.98 191.707 1120.56 193.84C1124.14 195.888 1128.11 196.912 1132.46 196.912C1136.82 196.912 1140.78 195.888 1144.37 193.84C1148.04 191.707 1150.94 188.677 1153.07 184.752C1155.2 180.741 1156.27 176.091 1156.27 170.8ZM1249.63 116.784C1259.36 116.784 1267.77 118.619 1274.85 122.288C1282.02 125.872 1287.48 131.035 1291.23 137.776C1295.07 144.517 1296.99 152.453 1296.99 161.584C1296.99 170.715 1295.07 178.651 1291.23 185.392C1287.48 192.048 1282.02 197.168 1274.85 200.752C1267.77 204.251 1259.36 206 1249.63 206H1221.86V116.784H1249.63ZM1249.63 196.4C1261.15 196.4 1269.94 193.371 1276 187.312C1282.06 181.168 1285.09 172.592 1285.09 161.584C1285.09 150.491 1282.02 141.829 1275.87 135.6C1269.81 129.371 1261.07 126.256 1249.63 126.256H1233.5V196.4H1249.63ZM1318.37 124.464C1316.15 124.464 1314.28 123.696 1312.74 122.16C1311.2 120.624 1310.44 118.747 1310.44 116.528C1310.44 114.309 1311.2 112.432 1312.74 110.896C1314.28 109.36 1316.15 108.592 1318.37 108.592C1320.51 108.592 1322.3 109.36 1323.75 110.896C1325.28 112.432 1326.05 114.309 1326.05 116.528C1326.05 118.747 1325.28 120.624 1323.75 122.16C1322.3 123.696 1320.51 124.464 1318.37 124.464ZM1324 135.856V206H1312.36V135.856H1324ZM1339.5 170.672C1339.5 163.504 1340.95 157.232 1343.86 151.856C1346.76 146.395 1350.73 142.171 1355.76 139.184C1360.88 136.197 1366.55 134.704 1372.78 134.704C1378.93 134.704 1384.26 136.027 1388.78 138.672C1393.31 141.317 1396.68 144.645 1398.9 148.656V135.856H1410.67V206H1398.9V192.944C1396.59 197.04 1393.14 200.453 1388.53 203.184C1384.01 205.829 1378.71 207.152 1372.66 207.152C1366.43 207.152 1360.79 205.616 1355.76 202.544C1350.73 199.472 1346.76 195.163 1343.86 189.616C1340.95 184.069 1339.5 177.755 1339.5 170.672ZM1398.9 170.8C1398.9 165.509 1397.83 160.901 1395.7 156.976C1393.56 153.051 1390.66 150.064 1386.99 148.016C1383.41 145.883 1379.44 144.816 1375.09 144.816C1370.74 144.816 1366.77 145.84 1363.18 147.888C1359.6 149.936 1356.74 152.923 1354.61 156.848C1352.47 160.773 1351.41 165.381 1351.41 170.672C1351.41 176.048 1352.47 180.741 1354.61 184.752C1356.74 188.677 1359.6 191.707 1363.18 193.84C1366.77 195.888 1370.74 196.912 1375.09 196.912C1379.44 196.912 1383.41 195.888 1386.99 193.84C1390.66 191.707 1393.56 188.677 1395.7 184.752C1397.83 180.741 1398.9 176.091 1398.9 170.8ZM1459.28 134.704C1465.34 134.704 1470.63 136.027 1475.16 138.672C1479.76 141.317 1483.18 144.645 1485.4 148.656V135.856H1497.17V207.536C1497.17 213.936 1495.81 219.611 1493.08 224.56C1490.35 229.595 1486.42 233.52 1481.3 236.336C1476.27 239.152 1470.38 240.56 1463.64 240.56C1454.42 240.56 1446.74 238.384 1440.6 234.032C1434.45 229.68 1430.83 223.749 1429.72 216.24H1441.24C1442.52 220.507 1445.16 223.92 1449.17 226.48C1453.18 229.125 1458 230.448 1463.64 230.448C1470.04 230.448 1475.24 228.443 1479.25 224.432C1483.35 220.421 1485.4 214.789 1485.4 207.536V192.816C1483.09 196.912 1479.68 200.325 1475.16 203.056C1470.63 205.787 1465.34 207.152 1459.28 207.152C1453.05 207.152 1447.38 205.616 1442.26 202.544C1437.23 199.472 1433.26 195.163 1430.36 189.616C1427.45 184.069 1426 177.755 1426 170.672C1426 163.504 1427.45 157.232 1430.36 151.856C1433.26 146.395 1437.23 142.171 1442.26 139.184C1447.38 136.197 1453.05 134.704 1459.28 134.704ZM1485.4 170.8C1485.4 165.509 1484.33 160.901 1482.2 156.976C1480.06 153.051 1477.16 150.064 1473.49 148.016C1469.91 145.883 1465.94 144.816 1461.59 144.816C1457.24 144.816 1453.27 145.84 1449.68 147.888C1446.1 149.936 1443.24 152.923 1441.11 156.848C1438.97 160.773 1437.91 165.381 1437.91 170.672C1437.91 176.048 1438.97 180.741 1441.11 184.752C1443.24 188.677 1446.1 191.707 1449.68 193.84C1453.27 195.888 1457.24 196.912 1461.59 196.912C1465.94 196.912 1469.91 195.888 1473.49 193.84C1477.16 191.707 1480.06 188.677 1482.2 184.752C1484.33 180.741 1485.4 176.091 1485.4 170.8ZM1551.03 134.576C1559.57 134.576 1566.48 137.179 1571.77 142.384C1577.06 147.504 1579.7 154.928 1579.7 164.656V206H1568.18V166.32C1568.18 159.323 1566.43 153.989 1562.94 150.32C1559.44 146.565 1554.66 144.688 1548.6 144.688C1542.46 144.688 1537.55 146.608 1533.88 150.448C1530.3 154.288 1528.5 159.877 1528.5 167.216V206H1516.86V135.856H1528.5V145.84C1530.81 142.256 1533.92 139.483 1537.85 137.52C1541.86 135.557 1546.25 134.576 1551.03 134.576ZM1629.32 207.152C1622.75 207.152 1616.78 205.659 1611.4 202.672C1606.11 199.685 1601.93 195.461 1598.86 190C1595.87 184.453 1594.38 178.053 1594.38 170.8C1594.38 163.632 1595.92 157.317 1598.99 151.856C1602.14 146.309 1606.41 142.085 1611.79 139.184C1617.16 136.197 1623.18 134.704 1629.84 134.704C1636.49 134.704 1642.51 136.197 1647.88 139.184C1653.26 142.085 1657.48 146.267 1660.56 151.728C1663.71 157.189 1665.29 163.547 1665.29 170.8C1665.29 178.053 1663.67 184.453 1660.43 190C1657.27 195.461 1652.96 199.685 1647.5 202.672C1642.04 205.659 1635.98 207.152 1629.32 207.152ZM1629.32 196.912C1633.5 196.912 1637.43 195.931 1641.1 193.968C1644.77 192.005 1647.71 189.061 1649.93 185.136C1652.24 181.211 1653.39 176.432 1653.39 170.8C1653.39 165.168 1652.28 160.389 1650.06 156.464C1647.84 152.539 1644.94 149.637 1641.36 147.76C1637.77 145.797 1633.89 144.816 1629.71 144.816C1625.44 144.816 1621.52 145.797 1617.93 147.76C1614.43 149.637 1611.62 152.539 1609.48 156.464C1607.35 160.389 1606.28 165.168 1606.28 170.8C1606.28 176.517 1607.31 181.339 1609.36 185.264C1611.49 189.189 1614.3 192.133 1617.8 194.096C1621.3 195.973 1625.14 196.912 1629.32 196.912ZM1642.38 115.12L1615.12 129.712V121.008L1642.38 105.008V115.12ZM1705.44 207.152C1700.06 207.152 1695.24 206.256 1690.97 204.464C1686.71 202.587 1683.34 200.027 1680.86 196.784C1678.39 193.456 1677.02 189.659 1676.77 185.392H1688.8C1689.14 188.891 1690.76 191.749 1693.66 193.968C1696.65 196.187 1700.53 197.296 1705.31 197.296C1709.75 197.296 1713.25 196.315 1715.81 194.352C1718.37 192.389 1719.65 189.915 1719.65 186.928C1719.65 183.856 1718.28 181.595 1715.55 180.144C1712.82 178.608 1708.6 177.115 1702.88 175.664C1697.67 174.299 1693.41 172.933 1690.08 171.568C1686.84 170.117 1684.02 168.027 1681.63 165.296C1679.33 162.48 1678.17 158.811 1678.17 154.288C1678.17 150.704 1679.24 147.419 1681.37 144.432C1683.51 141.445 1686.54 139.099 1690.46 137.392C1694.39 135.6 1698.87 134.704 1703.9 134.704C1711.67 134.704 1717.94 136.667 1722.72 140.592C1727.5 144.517 1730.06 149.893 1730.4 156.72H1718.75C1718.49 153.051 1717 150.107 1714.27 147.888C1711.62 145.669 1708.04 144.56 1703.52 144.56C1699.34 144.56 1696.01 145.456 1693.53 147.248C1691.06 149.04 1689.82 151.387 1689.82 154.288C1689.82 156.592 1690.55 158.512 1692 160.048C1693.53 161.499 1695.41 162.693 1697.63 163.632C1699.93 164.485 1703.09 165.467 1707.1 166.576C1712.14 167.941 1716.23 169.307 1719.39 170.672C1722.55 171.952 1725.24 173.915 1727.45 176.56C1729.76 179.205 1730.95 182.661 1731.04 186.928C1731.04 190.768 1729.97 194.224 1727.84 197.296C1725.7 200.368 1722.68 202.8 1718.75 204.592C1714.91 206.299 1710.47 207.152 1705.44 207.152ZM1761.69 145.456V186.8C1761.69 190.213 1762.41 192.645 1763.87 194.096C1765.32 195.461 1767.83 196.144 1771.42 196.144H1779.99V206H1769.5C1763.01 206 1758.15 204.507 1754.91 201.52C1751.66 198.533 1750.04 193.627 1750.04 186.8V145.456H1740.95V135.856H1750.04V118.192H1761.69V135.856H1779.99V145.456H1761.69ZM1800.12 124.464C1797.9 124.464 1796.03 123.696 1794.49 122.16C1792.95 120.624 1792.19 118.747 1792.19 116.528C1792.19 114.309 1792.95 112.432 1794.49 110.896C1796.03 109.36 1797.9 108.592 1800.12 108.592C1802.26 108.592 1804.05 109.36 1805.5 110.896C1807.03 112.432 1807.8 114.309 1807.8 116.528C1807.8 118.747 1807.03 120.624 1805.5 122.16C1804.05 123.696 1802.26 124.464 1800.12 124.464ZM1805.75 135.856V206H1794.11V135.856H1805.75ZM1821.25 170.8C1821.25 163.547 1822.7 157.232 1825.61 151.856C1828.51 146.395 1832.52 142.171 1837.64 139.184C1842.84 136.197 1848.77 134.704 1855.43 134.704C1864.05 134.704 1871.13 136.795 1876.68 140.976C1882.31 145.157 1886.02 150.96 1887.81 158.384H1875.27C1874.08 154.117 1871.73 150.747 1868.23 148.272C1864.82 145.797 1860.55 144.56 1855.43 144.56C1848.77 144.56 1843.4 146.864 1839.3 151.472C1835.21 155.995 1833.16 162.437 1833.16 170.8C1833.16 179.248 1835.21 185.776 1839.3 190.384C1843.4 194.992 1848.77 197.296 1855.43 197.296C1860.55 197.296 1864.82 196.101 1868.23 193.712C1871.64 191.323 1873.99 187.909 1875.27 183.472H1887.81C1885.94 190.64 1882.18 196.4 1876.55 200.752C1870.92 205.019 1863.88 207.152 1855.43 207.152C1848.77 207.152 1842.84 205.659 1837.64 202.672C1832.52 199.685 1828.51 195.461 1825.61 190C1822.7 184.539 1821.25 178.139 1821.25 170.8ZM1933.95 207.152C1927.38 207.152 1921.4 205.659 1916.03 202.672C1910.74 199.685 1906.56 195.461 1903.48 190C1900.5 184.453 1899 178.053 1899 170.8C1899 163.632 1900.54 157.317 1903.61 151.856C1906.77 146.309 1911.04 142.085 1916.41 139.184C1921.79 136.197 1927.8 134.704 1934.46 134.704C1941.12 134.704 1947.13 136.197 1952.51 139.184C1957.88 142.085 1962.11 146.267 1965.18 151.728C1968.34 157.189 1969.92 163.547 1969.92 170.8C1969.92 178.053 1968.29 184.453 1965.05 190C1961.89 195.461 1957.59 199.685 1952.12 202.672C1946.66 205.659 1940.6 207.152 1933.95 207.152ZM1933.95 196.912C1938.13 196.912 1942.05 195.931 1945.72 193.968C1949.39 192.005 1952.34 189.061 1954.56 185.136C1956.86 181.211 1958.01 176.432 1958.01 170.8C1958.01 165.168 1956.9 160.389 1954.68 156.464C1952.47 152.539 1949.56 149.637 1945.98 147.76C1942.4 145.797 1938.51 144.816 1934.33 144.816C1930.07 144.816 1926.14 145.797 1922.56 147.76C1919.06 149.637 1916.24 152.539 1914.11 156.464C1911.97 160.389 1910.91 165.168 1910.91 170.8C1910.91 176.517 1911.93 181.339 1913.98 185.264C1916.11 189.189 1918.93 192.133 1922.43 194.096C1925.93 195.973 1929.77 196.912 1933.95 196.912ZM2015 170.672C2015 163.504 2016.45 157.232 2019.36 151.856C2022.26 146.395 2026.23 142.171 2031.26 139.184C2036.38 136.197 2042.1 134.704 2048.41 134.704C2053.87 134.704 2058.95 135.984 2063.64 138.544C2068.34 141.019 2071.92 144.304 2074.4 148.4V111.28H2086.17V206H2074.4V192.816C2072.09 196.997 2068.68 200.453 2064.16 203.184C2059.63 205.829 2054.34 207.152 2048.28 207.152C2042.05 207.152 2036.38 205.616 2031.26 202.544C2026.23 199.472 2022.26 195.163 2019.36 189.616C2016.45 184.069 2015 177.755 2015 170.672ZM2074.4 170.8C2074.4 165.509 2073.33 160.901 2071.2 156.976C2069.06 153.051 2066.16 150.064 2062.49 148.016C2058.91 145.883 2054.94 144.816 2050.59 144.816C2046.24 144.816 2042.27 145.84 2038.68 147.888C2035.1 149.936 2032.24 152.923 2030.11 156.848C2027.97 160.773 2026.91 165.381 2026.91 170.672C2026.91 176.048 2027.97 180.741 2030.11 184.752C2032.24 188.677 2035.1 191.707 2038.68 193.84C2042.27 195.888 2046.24 196.912 2050.59 196.912C2054.94 196.912 2058.91 195.888 2062.49 193.84C2066.16 191.707 2069.06 188.677 2071.2 184.752C2073.33 180.741 2074.4 176.091 2074.4 170.8ZM2169.86 168.24C2169.86 170.459 2169.73 172.805 2169.47 175.28H2113.41C2113.83 182.192 2116.18 187.611 2120.45 191.536C2124.8 195.376 2130.05 197.296 2136.19 197.296C2141.23 197.296 2145.41 196.144 2148.74 193.84C2152.15 191.451 2154.54 188.293 2155.9 184.368H2168.45C2166.57 191.109 2162.82 196.613 2157.18 200.88C2151.55 205.061 2144.55 207.152 2136.19 207.152C2129.54 207.152 2123.56 205.659 2118.27 202.672C2113.07 199.685 2108.97 195.461 2105.98 190C2103 184.453 2101.5 178.053 2101.5 170.8C2101.5 163.547 2102.95 157.189 2105.86 151.728C2108.76 146.267 2112.81 142.085 2118.02 139.184C2123.31 136.197 2129.37 134.704 2136.19 134.704C2142.85 134.704 2148.74 136.155 2153.86 139.056C2158.98 141.957 2162.9 145.968 2165.63 151.088C2168.45 156.123 2169.86 161.84 2169.86 168.24ZM2157.82 165.808C2157.82 161.371 2156.84 157.573 2154.88 154.416C2152.92 151.173 2150.23 148.741 2146.82 147.12C2143.49 145.413 2139.78 144.56 2135.68 144.56C2129.79 144.56 2124.76 146.437 2120.58 150.192C2116.48 153.947 2114.13 159.152 2113.54 165.808H2157.82ZM681.504 308.784V398H669.856V308.784H681.504ZM735.532 326.576C744.065 326.576 750.977 329.179 756.268 334.384C761.559 339.504 764.204 346.928 764.204 356.656V398H752.684V358.32C752.684 351.323 750.935 345.989 747.436 342.32C743.937 338.565 739.159 336.688 733.1 336.688C726.956 336.688 722.049 338.608 718.38 342.448C714.796 346.288 713.004 351.877 713.004 359.216V398H701.356V327.856H713.004V337.84C715.308 334.256 718.423 331.483 722.348 329.52C726.359 327.557 730.753 326.576 735.532 326.576ZM797.439 337.456V378.8C797.439 382.213 798.164 384.645 799.615 386.096C801.066 387.461 803.583 388.144 807.167 388.144H815.743V398H805.247C798.762 398 793.898 396.507 790.655 393.52C787.412 390.533 785.791 385.627 785.791 378.8V337.456H776.703V327.856H785.791V310.192H797.439V327.856H815.743V337.456H797.439ZM893.856 360.24C893.856 362.459 893.728 364.805 893.472 367.28H837.408C837.835 374.192 840.181 379.611 844.448 383.536C848.8 387.376 854.048 389.296 860.192 389.296C865.227 389.296 869.408 388.144 872.736 385.84C876.149 383.451 878.539 380.293 879.904 376.368H892.448C890.571 383.109 886.816 388.613 881.184 392.88C875.552 397.061 868.555 399.152 860.192 399.152C853.536 399.152 847.563 397.659 842.272 394.672C837.067 391.685 832.971 387.461 829.984 382C826.997 376.453 825.504 370.053 825.504 362.8C825.504 355.547 826.955 349.189 829.856 343.728C832.757 338.267 836.811 334.085 842.016 331.184C847.307 328.197 853.365 326.704 860.192 326.704C866.848 326.704 872.736 328.155 877.856 331.056C882.976 333.957 886.901 337.968 889.632 343.088C892.448 348.123 893.856 353.84 893.856 360.24ZM881.824 357.808C881.824 353.371 880.843 349.573 878.88 346.416C876.917 343.173 874.229 340.741 870.816 339.12C867.488 337.413 863.776 336.56 859.68 336.56C853.792 336.56 848.757 338.437 844.576 342.192C840.48 345.947 838.133 351.152 837.536 357.808H881.824ZM920.879 339.248C922.927 335.237 925.828 332.123 929.583 329.904C933.423 327.685 938.074 326.576 943.535 326.576V338.608H940.463C927.407 338.608 920.879 345.691 920.879 359.856V398H909.231V327.856H920.879V339.248ZM983.093 387.248L1004.85 327.856H1017.27L989.749 398H976.181L948.661 327.856H961.205L983.093 387.248ZM1092.73 360.24C1092.73 362.459 1092.6 364.805 1092.35 367.28H1036.28C1036.71 374.192 1039.06 379.611 1043.32 383.536C1047.68 387.376 1052.92 389.296 1059.07 389.296C1064.1 389.296 1068.28 388.144 1071.61 385.84C1075.02 383.451 1077.41 380.293 1078.78 376.368H1091.32C1089.45 383.109 1085.69 388.613 1080.06 392.88C1074.43 397.061 1067.43 399.152 1059.07 399.152C1052.41 399.152 1046.44 397.659 1041.15 394.672C1035.94 391.685 1031.85 387.461 1028.86 382C1025.87 376.453 1024.38 370.053 1024.38 362.8C1024.38 355.547 1025.83 349.189 1028.73 343.728C1031.63 338.267 1035.69 334.085 1040.89 331.184C1046.18 328.197 1052.24 326.704 1059.07 326.704C1065.72 326.704 1071.61 328.155 1076.73 331.056C1081.85 333.957 1085.78 337.968 1088.51 343.088C1091.32 348.123 1092.73 353.84 1092.73 360.24ZM1080.7 357.808C1080.7 353.371 1079.72 349.573 1077.76 346.416C1075.79 343.173 1073.1 340.741 1069.69 339.12C1066.36 337.413 1062.65 336.56 1058.56 336.56C1052.67 336.56 1047.63 338.437 1043.45 342.192C1039.36 345.947 1037.01 351.152 1036.41 357.808H1080.7ZM1142.28 326.576C1150.82 326.576 1157.73 329.179 1163.02 334.384C1168.31 339.504 1170.95 346.928 1170.95 356.656V398H1159.43V358.32C1159.43 351.323 1157.68 345.989 1154.19 342.32C1150.69 338.565 1145.91 336.688 1139.85 336.688C1133.71 336.688 1128.8 338.608 1125.13 342.448C1121.55 346.288 1119.75 351.877 1119.75 359.216V398H1108.11V327.856H1119.75V337.84C1122.06 334.256 1125.17 331.483 1129.1 329.52C1133.11 327.557 1137.5 326.576 1142.28 326.576ZM1219.81 389.296C1224.93 389.296 1229.19 388.101 1232.61 385.712C1236.02 383.323 1238.37 379.909 1239.65 375.472H1252.19C1250.48 382.128 1247.11 387.589 1242.08 391.856C1237.13 396.037 1230.9 398.427 1223.39 399.024V405.424C1228.42 405.339 1232.43 406.405 1235.42 408.624C1238.41 410.843 1239.9 414 1239.9 418.096C1239.9 422.107 1238.45 425.307 1235.55 427.696C1232.65 430.085 1228.89 431.28 1224.29 431.28H1209.57V423.728H1221.98C1224.8 423.728 1226.85 423.301 1228.13 422.448C1229.49 421.595 1230.17 420.144 1230.17 418.096C1230.17 416.133 1229.49 414.725 1228.13 413.872C1226.85 413.019 1224.8 412.592 1221.98 412.592H1215.58V398.896C1209.69 398.299 1204.49 396.464 1199.97 393.392C1195.44 390.235 1191.9 386.053 1189.34 380.848C1186.87 375.557 1185.63 369.541 1185.63 362.8C1185.63 355.547 1187.08 349.232 1189.98 343.856C1192.88 338.395 1196.89 334.171 1202.01 331.184C1207.22 328.197 1213.15 326.704 1219.81 326.704C1228.42 326.704 1235.51 328.795 1241.05 332.976C1246.69 337.157 1250.4 342.96 1252.19 350.384H1239.65C1238.45 346.117 1236.1 342.747 1232.61 340.272C1229.19 337.797 1224.93 336.56 1219.81 336.56C1213.15 336.56 1207.77 338.864 1203.68 343.472C1199.58 347.995 1197.53 354.437 1197.53 362.8C1197.53 371.248 1199.58 377.776 1203.68 382.384C1207.77 386.992 1213.15 389.296 1219.81 389.296ZM1263.38 362.672C1263.38 355.504 1264.83 349.232 1267.73 343.856C1270.63 338.395 1274.6 334.171 1279.64 331.184C1284.76 328.197 1290.43 326.704 1296.66 326.704C1302.8 326.704 1308.14 328.027 1312.66 330.672C1317.18 333.317 1320.55 336.645 1322.77 340.656V327.856H1334.55V398H1322.77V384.944C1320.47 389.04 1317.01 392.453 1312.4 395.184C1307.88 397.829 1302.59 399.152 1296.53 399.152C1290.3 399.152 1284.67 397.616 1279.64 394.544C1274.6 391.472 1270.63 387.163 1267.73 381.616C1264.83 376.069 1263.38 369.755 1263.38 362.672ZM1322.77 362.8C1322.77 357.509 1321.7 352.901 1319.57 348.976C1317.44 345.051 1314.54 342.064 1310.87 340.016C1307.28 337.883 1303.32 336.816 1298.96 336.816C1294.61 336.816 1290.64 337.84 1287.06 339.888C1283.48 341.936 1280.62 344.923 1278.48 348.848C1276.35 352.773 1275.28 357.381 1275.28 362.672C1275.28 368.048 1276.35 372.741 1278.48 376.752C1280.62 380.677 1283.48 383.707 1287.06 385.84C1290.64 387.888 1294.61 388.912 1298.96 388.912C1303.32 388.912 1307.28 387.888 1310.87 385.84C1314.54 383.707 1317.44 380.677 1319.57 376.752C1321.7 372.741 1322.77 368.091 1322.77 362.8ZM1282.45 320.304C1283.05 315.952 1284.46 312.624 1286.68 310.32C1288.98 308.016 1291.84 306.864 1295.25 306.864C1296.87 306.864 1298.24 307.163 1299.35 307.76C1300.54 308.272 1301.95 309.04 1303.57 310.064C1304.77 310.917 1305.83 311.6 1306.77 312.112C1307.71 312.539 1308.73 312.752 1309.84 312.752C1311.29 312.752 1312.53 312.283 1313.56 311.344C1314.58 310.405 1315.22 309.04 1315.48 307.248H1322.13C1321.62 311.515 1320.21 314.8 1317.91 317.104C1315.6 319.408 1312.74 320.56 1309.33 320.56C1307.71 320.56 1306.26 320.304 1304.98 319.792C1303.78 319.195 1302.42 318.341 1300.88 317.232C1299.52 316.379 1298.41 315.739 1297.56 315.312C1296.79 314.885 1295.85 314.672 1294.74 314.672C1293.29 314.672 1292.05 315.141 1291.03 316.08C1290.09 317.019 1289.49 318.427 1289.24 320.304H1282.45ZM1384.82 399.152C1378.25 399.152 1372.28 397.659 1366.9 394.672C1361.61 391.685 1357.43 387.461 1354.36 382C1351.37 376.453 1349.88 370.053 1349.88 362.8C1349.88 355.632 1351.42 349.317 1354.49 343.856C1357.64 338.309 1361.91 334.085 1367.29 331.184C1372.66 328.197 1378.68 326.704 1385.34 326.704C1391.99 326.704 1398.01 328.197 1403.38 331.184C1408.76 334.085 1412.98 338.267 1416.06 343.728C1419.21 349.189 1420.79 355.547 1420.79 362.8C1420.79 370.053 1419.17 376.453 1415.93 382C1412.77 387.461 1408.46 391.685 1403 394.672C1397.54 397.659 1391.48 399.152 1384.82 399.152ZM1384.82 388.912C1389 388.912 1392.93 387.931 1396.6 385.968C1400.27 384.005 1403.21 381.061 1405.43 377.136C1407.74 373.211 1408.89 368.432 1408.89 362.8C1408.89 357.168 1407.78 352.389 1405.56 348.464C1403.34 344.539 1400.44 341.637 1396.86 339.76C1393.27 337.797 1389.39 336.816 1385.21 336.816C1380.94 336.816 1377.02 337.797 1373.43 339.76C1369.93 341.637 1367.12 344.539 1364.98 348.464C1362.85 352.389 1361.78 357.168 1361.78 362.8C1361.78 368.517 1362.81 373.339 1364.86 377.264C1366.99 381.189 1369.8 384.133 1373.3 386.096C1376.8 387.973 1380.64 388.912 1384.82 388.912ZM1529.88 334.896C1529.88 342.32 1527.32 348.507 1522.2 353.456C1517.16 358.32 1509.44 360.752 1499.03 360.752H1481.88V398H1470.23V308.784H1499.03C1509.1 308.784 1516.74 311.216 1521.94 316.08C1527.23 320.944 1529.88 327.216 1529.88 334.896ZM1499.03 351.152C1505.52 351.152 1510.3 349.744 1513.37 346.928C1516.44 344.112 1517.98 340.101 1517.98 334.896C1517.98 323.888 1511.66 318.384 1499.03 318.384H1481.88V351.152H1499.03ZM1608.36 360.24C1608.36 362.459 1608.23 364.805 1607.97 367.28H1551.91C1552.33 374.192 1554.68 379.611 1558.95 383.536C1563.3 387.376 1568.55 389.296 1574.69 389.296C1579.73 389.296 1583.91 388.144 1587.24 385.84C1590.65 383.451 1593.04 380.293 1594.4 376.368H1606.95C1605.07 383.109 1601.32 388.613 1595.68 392.88C1590.05 397.061 1583.05 399.152 1574.69 399.152C1568.04 399.152 1562.06 397.659 1556.77 394.672C1551.57 391.685 1547.47 387.461 1544.48 382C1541.5 376.453 1540 370.053 1540 362.8C1540 355.547 1541.45 349.189 1544.36 343.728C1547.26 338.267 1551.31 334.085 1556.52 331.184C1561.81 328.197 1567.87 326.704 1574.69 326.704C1581.35 326.704 1587.24 328.155 1592.36 331.056C1597.48 333.957 1601.4 337.968 1604.13 343.088C1606.95 348.123 1608.36 353.84 1608.36 360.24ZM1596.32 357.808C1596.32 353.371 1595.34 349.573 1593.38 346.416C1591.42 343.173 1588.73 340.741 1585.32 339.12C1581.99 337.413 1578.28 336.56 1574.18 336.56C1568.29 336.56 1563.26 338.437 1559.08 342.192C1554.98 345.947 1552.63 351.152 1552.04 357.808H1596.32ZM1619.38 362.672C1619.38 355.504 1620.83 349.232 1623.73 343.856C1626.63 338.395 1630.6 334.171 1635.64 331.184C1640.76 328.197 1646.47 326.704 1652.79 326.704C1658.25 326.704 1663.33 327.984 1668.02 330.544C1672.71 333.019 1676.3 336.304 1678.77 340.4V303.28H1690.55V398H1678.77V384.816C1676.47 388.997 1673.05 392.453 1668.53 395.184C1664.01 397.829 1658.72 399.152 1652.66 399.152C1646.43 399.152 1640.76 397.616 1635.64 394.544C1630.6 391.472 1626.63 387.163 1623.73 381.616C1620.83 376.069 1619.38 369.755 1619.38 362.672ZM1678.77 362.8C1678.77 357.509 1677.7 352.901 1675.57 348.976C1673.44 345.051 1670.54 342.064 1666.87 340.016C1663.28 337.883 1659.32 336.816 1654.96 336.816C1650.61 336.816 1646.64 337.84 1643.06 339.888C1639.48 341.936 1636.62 344.923 1634.48 348.848C1632.35 352.773 1631.28 357.381 1631.28 362.672C1631.28 368.048 1632.35 372.741 1634.48 376.752C1636.62 380.677 1639.48 383.707 1643.06 385.84C1646.64 387.888 1650.61 388.912 1654.96 388.912C1659.32 388.912 1663.28 387.888 1666.87 385.84C1670.54 383.707 1673.44 380.677 1675.57 376.752C1677.7 372.741 1678.77 368.091 1678.77 362.8ZM1705.88 362.672C1705.88 355.504 1707.33 349.232 1710.23 343.856C1713.13 338.395 1717.1 334.171 1722.14 331.184C1727.26 328.197 1732.93 326.704 1739.16 326.704C1745.3 326.704 1750.64 328.027 1755.16 330.672C1759.68 333.317 1763.05 336.645 1765.27 340.656V327.856H1777.05V398H1765.27V384.944C1762.97 389.04 1759.51 392.453 1754.9 395.184C1750.38 397.829 1745.09 399.152 1739.03 399.152C1732.8 399.152 1727.17 397.616 1722.14 394.544C1717.1 391.472 1713.13 387.163 1710.23 381.616C1707.33 376.069 1705.88 369.755 1705.88 362.672ZM1765.27 362.8C1765.27 357.509 1764.2 352.901 1762.07 348.976C1759.94 345.051 1757.04 342.064 1753.37 340.016C1749.78 337.883 1745.82 336.816 1741.46 336.816C1737.11 336.816 1733.14 337.84 1729.56 339.888C1725.98 341.936 1723.12 344.923 1720.98 348.848C1718.85 352.773 1717.78 357.381 1717.78 362.672C1717.78 368.048 1718.85 372.741 1720.98 376.752C1723.12 380.677 1725.98 383.707 1729.56 385.84C1733.14 387.888 1737.11 388.912 1741.46 388.912C1745.82 388.912 1749.78 387.888 1753.37 385.84C1757.04 383.707 1759.94 380.677 1762.07 376.752C1764.2 372.741 1765.27 368.091 1765.27 362.8ZM1825.66 326.704C1831.72 326.704 1837.01 328.027 1841.53 330.672C1846.14 333.317 1849.55 336.645 1851.77 340.656V327.856H1863.55V399.536C1863.55 405.936 1862.18 411.611 1859.45 416.56C1856.72 421.595 1852.8 425.52 1847.68 428.336C1842.64 431.152 1836.75 432.56 1830.01 432.56C1820.8 432.56 1813.12 430.384 1806.97 426.032C1800.83 421.68 1797.2 415.749 1796.09 408.24H1807.61C1808.89 412.507 1811.54 415.92 1815.55 418.48C1819.56 421.125 1824.38 422.448 1830.01 422.448C1836.41 422.448 1841.62 420.443 1845.63 416.432C1849.72 412.421 1851.77 406.789 1851.77 399.536V384.816C1849.47 388.912 1846.05 392.325 1841.53 395.056C1837.01 397.787 1831.72 399.152 1825.66 399.152C1819.43 399.152 1813.76 397.616 1808.64 394.544C1803.6 391.472 1799.63 387.163 1796.73 381.616C1793.83 376.069 1792.38 369.755 1792.38 362.672C1792.38 355.504 1793.83 349.232 1796.73 343.856C1799.63 338.395 1803.6 334.171 1808.64 331.184C1813.76 328.197 1819.43 326.704 1825.66 326.704ZM1851.77 362.8C1851.77 357.509 1850.7 352.901 1848.57 348.976C1846.44 345.051 1843.54 342.064 1839.87 340.016C1836.28 337.883 1832.32 336.816 1827.96 336.816C1823.61 336.816 1819.64 337.84 1816.06 339.888C1812.48 341.936 1809.62 344.923 1807.48 348.848C1805.35 352.773 1804.28 357.381 1804.28 362.672C1804.28 368.048 1805.35 372.741 1807.48 376.752C1809.62 380.677 1812.48 383.707 1816.06 385.84C1819.64 387.888 1823.61 388.912 1827.96 388.912C1832.32 388.912 1836.28 387.888 1839.87 385.84C1843.54 383.707 1846.44 380.677 1848.57 376.752C1850.7 372.741 1851.77 368.091 1851.77 362.8ZM1913.82 399.152C1907.25 399.152 1901.28 397.659 1895.9 394.672C1890.61 391.685 1886.43 387.461 1883.36 382C1880.37 376.453 1878.88 370.053 1878.88 362.8C1878.88 355.632 1880.42 349.317 1883.49 343.856C1886.64 338.309 1890.91 334.085 1896.29 331.184C1901.66 328.197 1907.68 326.704 1914.34 326.704C1920.99 326.704 1927.01 328.197 1932.38 331.184C1937.76 334.085 1941.98 338.267 1945.06 343.728C1948.21 349.189 1949.79 355.547 1949.79 362.8C1949.79 370.053 1948.17 376.453 1944.93 382C1941.77 387.461 1937.46 391.685 1932 394.672C1926.54 397.659 1920.48 399.152 1913.82 399.152ZM1913.82 388.912C1918 388.912 1921.93 387.931 1925.6 385.968C1929.27 384.005 1932.21 381.061 1934.43 377.136C1936.74 373.211 1937.89 368.432 1937.89 362.8C1937.89 357.168 1936.78 352.389 1934.56 348.464C1932.34 344.539 1929.44 341.637 1925.86 339.76C1922.27 337.797 1918.39 336.816 1914.21 336.816C1909.94 336.816 1906.02 337.797 1902.43 339.76C1898.93 341.637 1896.12 344.539 1893.98 348.464C1891.85 352.389 1890.78 357.168 1890.78 362.8C1890.78 368.517 1891.81 373.339 1893.86 377.264C1895.99 381.189 1898.8 384.133 1902.3 386.096C1905.8 387.973 1909.64 388.912 1913.82 388.912ZM1926.88 307.12L1899.62 321.712V313.008L1926.88 297.008V307.12ZM1994.03 326.704C2000.09 326.704 2005.38 328.027 2009.91 330.672C2014.51 333.317 2017.93 336.645 2020.15 340.656V327.856H2031.92V399.536C2031.92 405.936 2030.56 411.611 2027.83 416.56C2025.1 421.595 2021.17 425.52 2016.05 428.336C2011.02 431.152 2005.13 432.56 1998.39 432.56C1989.17 432.56 1981.49 430.384 1975.35 426.032C1969.2 421.68 1965.58 415.749 1964.47 408.24H1975.99C1977.27 412.507 1979.91 415.92 1983.92 418.48C1987.93 421.125 1992.75 422.448 1998.39 422.448C2004.79 422.448 2009.99 420.443 2014 416.432C2018.1 412.421 2020.15 406.789 2020.15 399.536V384.816C2017.84 388.912 2014.43 392.325 2009.91 395.056C2005.38 397.787 2000.09 399.152 1994.03 399.152C1987.8 399.152 1982.13 397.616 1977.01 394.544C1971.98 391.472 1968.01 387.163 1965.11 381.616C1962.2 376.069 1960.75 369.755 1960.75 362.672C1960.75 355.504 1962.2 349.232 1965.11 343.856C1968.01 338.395 1971.98 334.171 1977.01 331.184C1982.13 328.197 1987.8 326.704 1994.03 326.704ZM2020.15 362.8C2020.15 357.509 2019.08 352.901 2016.95 348.976C2014.81 345.051 2011.91 342.064 2008.24 340.016C2004.66 337.883 2000.69 336.816 1996.34 336.816C1991.99 336.816 1988.02 337.84 1984.43 339.888C1980.85 341.936 1977.99 344.923 1975.86 348.848C1973.72 352.773 1972.66 357.381 1972.66 362.672C1972.66 368.048 1973.72 372.741 1975.86 376.752C1977.99 380.677 1980.85 383.707 1984.43 385.84C1988.02 387.888 1991.99 388.912 1996.34 388.912C2000.69 388.912 2004.66 387.888 2008.24 385.84C2011.91 383.707 2014.81 380.677 2016.95 376.752C2019.08 372.741 2020.15 368.091 2020.15 362.8ZM2057.62 316.464C2055.4 316.464 2053.53 315.696 2051.99 314.16C2050.45 312.624 2049.69 310.747 2049.69 308.528C2049.69 306.309 2050.45 304.432 2051.99 302.896C2053.53 301.36 2055.4 300.592 2057.62 300.592C2059.76 300.592 2061.55 301.36 2063 302.896C2064.53 304.432 2065.3 306.309 2065.3 308.528C2065.3 310.747 2064.53 312.624 2063 314.16C2061.55 315.696 2059.76 316.464 2057.62 316.464ZM2063.25 327.856V398H2051.61V327.856H2063.25ZM2078.75 362.8C2078.75 355.547 2080.2 349.232 2083.11 343.856C2086.01 338.395 2090.02 334.171 2095.14 331.184C2100.34 328.197 2106.27 326.704 2112.93 326.704C2121.55 326.704 2128.63 328.795 2134.18 332.976C2139.81 337.157 2143.52 342.96 2145.31 350.384H2132.77C2131.58 346.117 2129.23 342.747 2125.73 340.272C2122.32 337.797 2118.05 336.56 2112.93 336.56C2106.27 336.56 2100.9 338.864 2096.8 343.472C2092.71 347.995 2090.66 354.437 2090.66 362.8C2090.66 371.248 2092.71 377.776 2096.8 382.384C2100.9 386.992 2106.27 389.296 2112.93 389.296C2118.05 389.296 2122.32 388.101 2125.73 385.712C2129.14 383.323 2131.49 379.909 2132.77 375.472H2145.31C2143.44 382.64 2139.68 388.4 2134.05 392.752C2128.42 397.019 2121.38 399.152 2112.93 399.152C2106.27 399.152 2100.34 397.659 2095.14 394.672C2090.02 391.685 2086.01 387.461 2083.11 382C2080.2 376.539 2078.75 370.139 2078.75 362.8ZM2156.5 362.672C2156.5 355.504 2157.95 349.232 2160.86 343.856C2163.76 338.395 2167.73 334.171 2172.76 331.184C2177.88 328.197 2183.55 326.704 2189.78 326.704C2195.93 326.704 2201.26 328.027 2205.78 330.672C2210.31 333.317 2213.68 336.645 2215.9 340.656V327.856H2227.67V398H2215.9V384.944C2213.59 389.04 2210.14 392.453 2205.53 395.184C2201.01 397.829 2195.71 399.152 2189.66 399.152C2183.43 399.152 2177.79 397.616 2172.76 394.544C2167.73 391.472 2163.76 387.163 2160.86 381.616C2157.95 376.069 2156.5 369.755 2156.5 362.672ZM2215.9 362.8C2215.9 357.509 2214.83 352.901 2212.7 348.976C2210.56 345.051 2207.66 342.064 2203.99 340.016C2200.41 337.883 2196.44 336.816 2192.09 336.816C2187.74 336.816 2183.77 337.84 2180.18 339.888C2176.6 341.936 2173.74 344.923 2171.61 348.848C2169.47 352.773 2168.41 357.381 2168.41 362.672C2168.41 368.048 2169.47 372.741 2171.61 376.752C2173.74 380.677 2176.6 383.707 2180.18 385.84C2183.77 387.888 2187.74 388.912 2192.09 388.912C2196.44 388.912 2200.41 387.888 2203.99 385.84C2207.66 383.707 2210.56 380.677 2212.7 376.752C2214.83 372.741 2215.9 368.091 2215.9 362.8ZM2345.48 360.24C2345.48 362.459 2345.35 364.805 2345.1 367.28H2289.03C2289.46 374.192 2291.81 379.611 2296.07 383.536C2300.43 387.376 2305.67 389.296 2311.82 389.296C2316.85 389.296 2321.03 388.144 2324.36 385.84C2327.77 383.451 2330.16 380.293 2331.53 376.368H2344.07C2342.2 383.109 2338.44 388.613 2332.81 392.88C2327.18 397.061 2320.18 399.152 2311.82 399.152C2305.16 399.152 2299.19 397.659 2293.9 394.672C2288.69 391.685 2284.6 387.461 2281.61 382C2278.62 376.453 2277.13 370.053 2277.13 362.8C2277.13 355.547 2278.58 349.189 2281.48 343.728C2284.38 338.267 2288.44 334.085 2293.64 331.184C2298.93 328.197 2304.99 326.704 2311.82 326.704C2318.47 326.704 2324.36 328.155 2329.48 331.056C2334.6 333.957 2338.53 337.968 2341.26 343.088C2344.07 348.123 2345.48 353.84 2345.48 360.24ZM2333.45 357.808C2333.45 353.371 2332.47 349.573 2330.51 346.416C2328.54 343.173 2325.85 340.741 2322.44 339.12C2319.11 337.413 2315.4 336.56 2311.31 336.56C2305.42 336.56 2300.38 338.437 2296.2 342.192C2292.11 345.947 2289.76 351.152 2289.16 357.808H2333.45ZM2406.63 318.256V348.08H2439.14V357.68H2406.63V388.4H2442.98V398H2394.98V308.656H2442.98V318.256H2406.63ZM2456.25 362.672C2456.25 355.504 2457.7 349.232 2460.61 343.856C2463.51 338.395 2467.48 334.171 2472.51 331.184C2477.63 328.197 2483.35 326.704 2489.66 326.704C2495.12 326.704 2500.2 327.984 2504.89 330.544C2509.59 333.019 2513.17 336.304 2515.65 340.4V303.28H2527.42V398H2515.65V384.816C2513.34 388.997 2509.93 392.453 2505.41 395.184C2500.88 397.829 2495.59 399.152 2489.53 399.152C2483.3 399.152 2477.63 397.616 2472.51 394.544C2467.48 391.472 2463.51 387.163 2460.61 381.616C2457.7 376.069 2456.25 369.755 2456.25 362.672ZM2515.65 362.8C2515.65 357.509 2514.58 352.901 2512.45 348.976C2510.31 345.051 2507.41 342.064 2503.74 340.016C2500.16 337.883 2496.19 336.816 2491.84 336.816C2487.49 336.816 2483.52 337.84 2479.93 339.888C2476.35 341.936 2473.49 344.923 2471.36 348.848C2469.22 352.773 2468.16 357.381 2468.16 362.672C2468.16 368.048 2469.22 372.741 2471.36 376.752C2473.49 380.677 2476.35 383.707 2479.93 385.84C2483.52 387.888 2487.49 388.912 2491.84 388.912C2496.19 388.912 2500.16 387.888 2503.74 385.84C2507.41 383.707 2510.31 380.677 2512.45 376.752C2514.58 372.741 2515.65 368.091 2515.65 362.8ZM2609.31 327.856V398H2597.67V387.632C2595.45 391.216 2592.33 394.032 2588.32 396.08C2584.4 398.043 2580.04 399.024 2575.27 399.024C2569.8 399.024 2564.9 397.915 2560.55 395.696C2556.19 393.392 2552.74 389.979 2550.18 385.456C2547.7 380.933 2546.47 375.429 2546.47 368.944V327.856H2557.99V367.408C2557.99 374.32 2559.74 379.653 2563.23 383.408C2566.73 387.077 2571.51 388.912 2577.57 388.912C2583.8 388.912 2588.71 386.992 2592.29 383.152C2595.87 379.312 2597.67 373.723 2597.67 366.384V327.856H2609.31ZM2624.63 362.8C2624.63 355.547 2626.08 349.232 2628.98 343.856C2631.88 338.395 2635.89 334.171 2641.01 331.184C2646.22 328.197 2652.15 326.704 2658.81 326.704C2667.42 326.704 2674.51 328.795 2680.05 332.976C2685.69 337.157 2689.4 342.96 2691.19 350.384H2678.65C2677.45 346.117 2675.1 342.747 2671.61 340.272C2668.19 337.797 2663.93 336.56 2658.81 336.56C2652.15 336.56 2646.77 338.864 2642.68 343.472C2638.58 347.995 2636.53 354.437 2636.53 362.8C2636.53 371.248 2638.58 377.776 2642.68 382.384C2646.77 386.992 2652.15 389.296 2658.81 389.296C2663.93 389.296 2668.19 388.101 2671.61 385.712C2675.02 383.323 2677.37 379.909 2678.65 375.472H2691.19C2689.31 382.64 2685.56 388.4 2679.93 392.752C2674.29 397.019 2667.25 399.152 2658.81 399.152C2652.15 399.152 2646.22 397.659 2641.01 394.672C2635.89 391.685 2631.88 387.461 2628.98 382C2626.08 376.539 2624.63 370.139 2624.63 362.8ZM2702.38 362.672C2702.38 355.504 2703.83 349.232 2706.73 343.856C2709.63 338.395 2713.6 334.171 2718.64 331.184C2723.76 328.197 2729.43 326.704 2735.66 326.704C2741.8 326.704 2747.14 328.027 2751.66 330.672C2756.18 333.317 2759.55 336.645 2761.77 340.656V327.856H2773.55V398H2761.77V384.944C2759.47 389.04 2756.01 392.453 2751.4 395.184C2746.88 397.829 2741.59 399.152 2735.53 399.152C2729.3 399.152 2723.67 397.616 2718.64 394.544C2713.6 391.472 2709.63 387.163 2706.73 381.616C2703.83 376.069 2702.38 369.755 2702.38 362.672ZM2761.77 362.8C2761.77 357.509 2760.7 352.901 2758.57 348.976C2756.44 345.051 2753.54 342.064 2749.87 340.016C2746.28 337.883 2742.32 336.816 2737.96 336.816C2733.61 336.816 2729.64 337.84 2726.06 339.888C2722.48 341.936 2719.62 344.923 2717.48 348.848C2715.35 352.773 2714.28 357.381 2714.28 362.672C2714.28 368.048 2715.35 372.741 2717.48 376.752C2719.62 380.677 2722.48 383.707 2726.06 385.84C2729.64 387.888 2733.61 388.912 2737.96 388.912C2742.32 388.912 2746.28 387.888 2749.87 385.84C2753.54 383.707 2756.44 380.677 2758.57 376.752C2760.7 372.741 2761.77 368.091 2761.77 362.8ZM2788.88 362.8C2788.88 355.547 2790.33 349.232 2793.23 343.856C2796.13 338.395 2800.14 334.171 2805.26 331.184C2810.47 328.197 2816.4 326.704 2823.06 326.704C2831.67 326.704 2838.76 328.795 2844.3 332.976C2849.94 337.157 2853.65 342.96 2855.44 350.384H2842.9C2841.7 346.117 2839.35 342.747 2835.86 340.272C2832.44 337.797 2828.18 336.56 2823.06 336.56C2816.4 336.56 2811.02 338.864 2806.93 343.472C2802.83 347.995 2800.78 354.437 2800.78 362.8C2800.78 371.248 2802.83 377.776 2806.93 382.384C2811.02 386.992 2816.4 389.296 2823.06 389.296C2828.18 389.296 2832.44 388.101 2835.86 385.712C2839.27 383.323 2841.62 379.909 2842.9 375.472H2855.44C2853.56 382.64 2849.81 388.4 2844.18 392.752C2838.54 397.019 2831.5 399.152 2823.06 399.152C2816.4 399.152 2810.47 397.659 2805.26 394.672C2800.14 391.685 2796.13 387.461 2793.23 382C2790.33 376.539 2788.88 370.139 2788.88 362.8ZM2877 316.464C2874.78 316.464 2872.9 315.696 2871.37 314.16C2869.83 312.624 2869.06 310.747 2869.06 308.528C2869.06 306.309 2869.83 304.432 2871.37 302.896C2872.9 301.36 2874.78 300.592 2877 300.592C2879.13 300.592 2880.92 301.36 2882.37 302.896C2883.91 304.432 2884.68 306.309 2884.68 308.528C2884.68 310.747 2883.91 312.624 2882.37 314.16C2880.92 315.696 2879.13 316.464 2877 316.464ZM2882.63 327.856V398H2870.98V327.856H2882.63ZM2933.07 399.152C2926.5 399.152 2920.53 397.659 2915.15 394.672C2909.86 391.685 2905.68 387.461 2902.61 382C2899.62 376.453 2898.13 370.053 2898.13 362.8C2898.13 355.632 2899.67 349.317 2902.74 343.856C2905.89 338.309 2910.16 334.085 2915.54 331.184C2920.91 328.197 2926.93 326.704 2933.59 326.704C2940.24 326.704 2946.26 328.197 2951.63 331.184C2957.01 334.085 2961.23 338.267 2964.31 343.728C2967.46 349.189 2969.04 355.547 2969.04 362.8C2969.04 370.053 2967.42 376.453 2964.18 382C2961.02 387.461 2956.71 391.685 2951.25 394.672C2945.79 397.659 2939.73 399.152 2933.07 399.152ZM2933.07 388.912C2937.25 388.912 2941.18 387.931 2944.85 385.968C2948.52 384.005 2951.46 381.061 2953.68 377.136C2955.99 373.211 2957.14 368.432 2957.14 362.8C2957.14 357.168 2956.03 352.389 2953.81 348.464C2951.59 344.539 2948.69 341.637 2945.11 339.76C2941.52 337.797 2937.64 336.816 2933.46 336.816C2929.19 336.816 2925.27 337.797 2921.68 339.76C2918.18 341.637 2915.37 344.539 2913.23 348.464C2911.1 352.389 2910.03 357.168 2910.03 362.8C2910.03 368.517 2911.06 373.339 2913.11 377.264C2915.24 381.189 2918.05 384.133 2921.55 386.096C2925.05 387.973 2928.89 388.912 2933.07 388.912ZM3018.53 326.576C3027.07 326.576 3033.98 329.179 3039.27 334.384C3044.56 339.504 3047.2 346.928 3047.2 356.656V398H3035.68V358.32C3035.68 351.323 3033.93 345.989 3030.44 342.32C3026.94 338.565 3022.16 336.688 3016.1 336.688C3009.96 336.688 3005.05 338.608 3001.38 342.448C2997.8 346.288 2996 351.877 2996 359.216V398H2984.36V327.856H2996V337.84C2998.31 334.256 3001.42 331.483 3005.35 329.52C3009.36 327.557 3013.75 326.576 3018.53 326.576ZM3061.88 362.672C3061.88 355.504 3063.33 349.232 3066.23 343.856C3069.13 338.395 3073.1 334.171 3078.14 331.184C3083.26 328.197 3088.93 326.704 3095.16 326.704C3101.3 326.704 3106.64 328.027 3111.16 330.672C3115.68 333.317 3119.05 336.645 3121.27 340.656V327.856H3133.05V398H3121.27V384.944C3118.97 389.04 3115.51 392.453 3110.9 395.184C3106.38 397.829 3101.09 399.152 3095.03 399.152C3088.8 399.152 3083.17 397.616 3078.14 394.544C3073.1 391.472 3069.13 387.163 3066.23 381.616C3063.33 376.069 3061.88 369.755 3061.88 362.672ZM3121.27 362.8C3121.27 357.509 3120.2 352.901 3118.07 348.976C3115.94 345.051 3113.04 342.064 3109.37 340.016C3105.78 337.883 3101.82 336.816 3097.46 336.816C3093.11 336.816 3089.14 337.84 3085.56 339.888C3081.98 341.936 3079.12 344.923 3076.98 348.848C3074.85 352.773 3073.78 357.381 3073.78 362.672C3073.78 368.048 3074.85 372.741 3076.98 376.752C3079.12 380.677 3081.98 383.707 3085.56 385.84C3089.14 387.888 3093.11 388.912 3097.46 388.912C3101.82 388.912 3105.78 387.888 3109.37 385.84C3113.04 383.707 3115.94 380.677 3118.07 376.752C3120.2 372.741 3121.27 368.091 3121.27 362.8ZM3164.38 303.28V398H3152.73V303.28H3164.38Z" fill="#3F3D56"/>
<path d="M280.033 156.054C298.28 166.302 320.547 166.302 338.794 156.054L454.327 91.1698C460.409 87.754 467.831 87.754 473.913 91.1698L587.777 155.116C601.385 162.759 601.385 182.35 587.776 189.993L319.207 340.824C313.125 344.24 305.702 344.24 299.62 340.824L31.0502 189.993C17.4415 182.35 17.4415 162.759 31.0502 155.116L144.913 91.1698C150.995 87.754 158.418 87.754 164.5 91.1698L280.033 156.054Z" fill="#3F3D56"/>
<path d="M279.403 17.3345C297.973 6.60855 320.855 6.60855 339.424 17.3345L405.657 55.5919C418.986 63.2908 418.986 82.53 405.657 90.2289L339.424 128.486C320.855 139.212 297.973 139.212 279.403 128.486L213.17 90.2289C199.841 82.53 199.841 63.2908 213.17 55.5919L279.403 17.3345Z" fill="#3F3D56"/>
<path fill-rule="evenodd" clip-rule="evenodd" d="M436.467 446.881L511.173 406.954C515.037 404.885 516.969 401.531 516.969 396.883V374.217C516.969 369.569 515.037 368.275 511.173 370.344C503.766 374.305 496.356 378.263 488.947 382.222C481.542 386.179 474.137 390.135 466.734 394.094V377.434C471.965 374.636 477.199 371.841 482.432 369.045C487.666 366.249 492.9 363.454 498.131 360.656C501.995 358.596 503.927 355.233 503.927 350.585V329.86C503.927 325.212 501.995 323.918 498.131 325.987C492.899 328.785 487.665 331.581 482.43 334.377C477.197 337.172 471.964 339.968 466.734 342.765V327.846C474.139 323.886 481.546 319.928 488.953 315.971C496.361 312.013 503.768 308.055 511.173 304.095C515.037 302.027 516.969 298.673 516.969 294.025V276.342C516.971 276.409 516.972 276.477 516.972 276.544V399.49C516.972 402.187 515.486 404.657 513.117 405.924L310.152 514.405L107.188 405.924C104.819 404.648 103.333 402.178 103.333 399.49L103.333 397.138C103.403 401.654 105.334 404.923 109.127 406.954C118.012 411.703 126.895 416.45 135.778 421.197L135.884 421.254L136.258 421.453C145.302 426.286 154.345 431.119 163.391 435.954V435.963C164.212 436.349 165.052 436.753 165.91 437.165L165.912 437.166L165.912 437.166C174.481 441.284 184.723 446.206 193.339 442.288C201.623 438.515 203.282 426.166 203 417.617V357.174C203.264 344.934 199.837 332.503 193.339 322.177C186.285 310.967 174.847 302.692 163.391 296.485C154.408 291.684 145.428 286.885 136.448 282.086L136.365 282.042L136.309 282.012L136.261 281.986C128.742 277.968 121.224 273.951 113.705 269.932C113.824 269.988 113.942 270.047 114.06 270.11L310.152 374.919L506.245 270.11C506.344 270.057 506.444 270.007 506.544 269.959C495.64 275.787 484.734 281.616 473.828 287.445C461.374 294.101 448.919 300.758 436.467 307.413C432.603 309.473 430.671 312.836 430.671 317.484V443.008C430.671 447.656 432.603 448.95 436.467 446.881ZM113.705 269.932C108.921 267.685 103.333 271.164 103.333 276.544L103.333 397.138C103.332 397.053 103.331 396.968 103.331 396.883V271.359C103.331 266.711 105.263 265.416 109.127 267.485L113.705 269.932ZM506.544 269.959C508.087 269.134 509.63 268.31 511.173 267.485C515.037 265.416 516.969 266.711 516.969 271.359V276.342C516.83 271.066 511.28 267.695 506.544 269.959ZM139.886 320.91V386.776C146.127 390.108 149.824 392.086 155.119 394.92L159.044 397.02C164.084 399.717 166.608 397.904 166.608 391.57V344.497C166.608 338.3 164.084 333.852 159.044 331.154C152.803 327.822 149.106 325.844 143.81 323.01L143.801 323.005L139.886 320.91ZM220.872 459.695C220.872 464.343 222.804 467.697 226.668 469.766V469.757C238.101 475.868 249.532 481.979 260.963 488.089C272.394 494.2 283.825 500.311 295.258 506.422C299.123 508.491 301.055 507.196 301.055 502.548V479.5C301.055 474.852 299.123 471.498 295.258 469.429C291.425 467.384 288.767 465.962 285.845 464.399L285.844 464.399L285.829 464.391C283.99 463.407 282.046 462.367 279.637 461.081V395.99C283.475 398.037 286.135 399.46 289.061 401.025C290.901 402.009 292.847 403.05 295.258 404.338C299.123 406.407 301.055 405.113 301.055 400.465V378.024C301.055 373.376 299.123 370.022 295.258 367.953C278.358 358.927 261.463 349.896 244.566 340.864L244.466 340.811L244.416 340.785L244.142 340.638C238.318 337.525 232.493 334.411 226.668 331.298C222.804 329.229 220.872 330.523 220.872 335.171V357.612C220.872 362.26 222.804 365.614 226.668 367.682C229.851 369.383 232.237 370.659 234.622 371.935L234.638 371.943L234.672 371.961L234.672 371.962C237.051 373.234 239.433 374.508 242.608 376.204V441.295C239.419 439.591 237.029 438.313 234.64 437.035L234.63 437.029L234.622 437.025C232.237 435.75 229.851 434.474 226.668 432.773C222.804 430.704 220.872 431.999 220.872 436.647V459.695ZM351.608 492.232C343.287 496.679 334.966 501.127 326.654 505.574C322.79 507.643 320.858 506.349 320.858 501.701V376.176C320.858 371.528 322.79 368.165 326.654 366.106L375.924 339.776C385.694 334.554 393.34 332.047 398.872 332.257C404.395 332.467 408.296 334.809 410.547 339.284C412.798 343.759 413.928 349.746 413.928 357.238V382.037C413.928 389.528 412.798 396.719 410.547 403.6C408.296 410.49 404.359 416.997 398.872 423.113C392.41 430.322 384.181 435.234 375.924 440.119C372.222 442.095 369.446 443.58 366.67 445.064C363.891 446.551 361.112 448.037 357.404 450.016V482.17C357.404 486.818 355.472 490.181 351.608 492.241V492.232ZM357.085 386.065V415.311L371.576 407.564C374.684 405.897 376.726 403.846 377.692 401.385C378.658 398.934 379.141 396.482 379.141 394.021V383.759C379.141 381.18 378.658 379.211 377.692 377.853C376.726 376.495 374.684 376.65 371.576 378.318L357.085 386.065Z" fill="#3F3D56"/>
<path d="M511.173 406.954L512.351 409.159L512.353 409.158L511.173 406.954ZM436.467 446.881L435.289 444.676L435.287 444.677L436.467 446.881ZM511.173 370.344L512.352 372.548L512.353 372.548L511.173 370.344ZM488.947 382.222L487.769 380.017L487.769 380.017L488.947 382.222ZM466.734 394.094H464.234V398.266L467.913 396.299L466.734 394.094ZM466.734 377.434L465.555 375.23L464.234 375.936V377.434H466.734ZM498.131 360.656L496.955 358.449L496.952 358.451L498.131 360.656ZM498.131 325.987L499.31 328.191L499.311 328.191L498.131 325.987ZM482.43 334.377L483.608 336.582L483.608 336.582L482.43 334.377ZM466.734 342.765H464.234V346.937L467.913 344.97L466.734 342.765ZM466.734 327.846L465.555 325.641L464.234 326.348V327.846H466.734ZM488.953 315.971L490.131 318.176L490.131 318.176L488.953 315.971ZM511.173 304.095L512.352 306.3L512.353 306.299L511.173 304.095ZM513.117 405.924L514.295 408.129L514.295 408.129L513.117 405.924ZM310.152 514.405L308.974 516.61L310.152 517.24L311.331 516.61L310.152 514.405ZM107.188 405.924L106.003 408.125L106.01 408.129L107.188 405.924ZM103.333 399.49L105.833 399.49L103.333 399.49ZM109.127 406.954L107.947 409.158L107.949 409.159L109.127 406.954ZM135.778 421.197L134.6 423.402L134.6 423.402L135.778 421.197ZM135.884 421.254L137.063 419.049L137.063 419.049L135.884 421.254ZM136.258 421.453L137.437 419.248L137.437 419.248L136.258 421.453ZM163.391 435.954H165.891V434.455L164.569 433.749L163.391 435.954ZM163.391 435.963H160.891V437.549L162.326 438.225L163.391 435.963ZM165.91 437.165L164.827 439.419L164.832 439.421L165.91 437.165ZM165.912 437.166L164.834 439.422L164.907 439.457L164.983 439.487L165.912 437.166ZM165.912 437.166L166.995 434.913L166.919 434.876L166.84 434.845L165.912 437.166ZM193.339 442.288L194.374 444.564L194.375 444.563L193.339 442.288ZM203 417.617H200.5V417.658L200.501 417.699L203 417.617ZM203 357.174L200.5 357.12L200.5 357.147V357.174H203ZM193.339 322.177L191.223 323.509L191.223 323.509L193.339 322.177ZM163.391 296.485L164.582 294.287L164.569 294.281L163.391 296.485ZM136.448 282.086L135.27 284.291L135.27 284.291L136.448 282.086ZM136.365 282.042L137.543 279.837L137.543 279.837L136.365 282.042ZM136.309 282.012L135.131 284.217L135.131 284.217L136.309 282.012ZM136.261 281.986L137.439 279.781L137.439 279.781L136.261 281.986ZM114.06 270.11L112.881 272.315L112.882 272.315L114.06 270.11ZM310.152 374.919L308.974 377.124L310.152 377.753L311.331 377.124L310.152 374.919ZM506.245 270.11L505.069 267.904L505.066 267.905L506.245 270.11ZM473.828 287.445L475.007 289.649L475.007 289.649L473.828 287.445ZM436.467 307.413L437.643 309.619L437.645 309.618L436.467 307.413ZM103.333 276.544H105.833H103.333ZM109.127 267.485L107.947 269.689L107.949 269.69L109.127 267.485ZM511.173 267.485L512.351 269.69L512.353 269.689L511.173 267.485ZM139.886 386.776H137.386V388.275L138.709 388.981L139.886 386.776ZM139.886 320.91L141.066 318.706L137.386 316.737V320.91H139.886ZM155.119 394.92L153.94 397.124L153.94 397.124L155.119 394.92ZM159.044 397.02L160.223 394.816L160.223 394.815L159.044 397.02ZM159.044 331.154L160.223 328.95L160.221 328.949L159.044 331.154ZM143.81 323.01L144.99 320.806L144.99 320.806L143.81 323.01ZM143.801 323.005L142.622 325.21L142.622 325.21L143.801 323.005ZM226.668 469.766L225.488 471.97L229.168 473.94V469.766H226.668ZM226.668 469.757L227.846 467.552L224.168 465.586V469.757H226.668ZM295.258 506.422L296.438 504.218L296.437 504.217L295.258 506.422ZM295.258 469.429L296.438 467.225L296.435 467.223L295.258 469.429ZM285.845 464.399L287.024 462.195L287.01 462.187L286.996 462.18L285.845 464.399ZM285.844 464.399L284.666 466.604L284.679 466.611L284.693 466.618L285.844 464.399ZM285.829 464.391L284.65 466.595L284.651 466.596L285.829 464.391ZM279.637 461.081H277.137V462.579L278.459 463.286L279.637 461.081ZM279.637 395.99L280.814 393.784L277.137 391.823V395.99H279.637ZM289.061 401.025L287.882 403.229L287.882 403.229L289.061 401.025ZM295.258 404.338L296.438 402.134L296.436 402.133L295.258 404.338ZM295.258 367.953L296.438 365.749L296.436 365.748L295.258 367.953ZM244.566 340.864L245.744 338.659L245.744 338.659L244.566 340.864ZM244.466 340.811L245.644 338.606L245.644 338.606L244.466 340.811ZM244.416 340.785L243.238 342.989L243.238 342.989L244.416 340.785ZM244.142 340.638L245.321 338.433L245.321 338.433L244.142 340.638ZM226.668 331.298L225.488 333.502L225.489 333.503L226.668 331.298ZM226.668 367.682L225.488 369.886L225.49 369.887L226.668 367.682ZM234.622 371.935L235.802 369.73L235.801 369.73L234.622 371.935ZM234.638 371.943L233.459 374.148L233.459 374.148L234.638 371.943ZM234.672 371.961L233.493 374.166L233.495 374.167L234.672 371.961ZM234.672 371.962L235.851 369.757L235.849 369.756L234.672 371.962ZM242.608 376.204H245.108V374.705L243.786 373.999L242.608 376.204ZM242.608 441.295L241.43 443.5L245.108 445.465V441.295H242.608ZM234.64 437.035L233.457 439.237L233.461 439.24L234.64 437.035ZM234.63 437.029L233.446 439.231L233.447 439.232L234.63 437.029ZM234.622 437.025L235.806 434.823L235.801 434.821L234.622 437.025ZM226.668 432.773L225.488 434.977L225.49 434.978L226.668 432.773ZM326.654 505.574L325.475 503.37L325.474 503.37L326.654 505.574ZM351.608 492.232H354.108V488.061L350.43 490.027L351.608 492.232ZM326.654 366.106L327.83 368.312L327.833 368.311L326.654 366.106ZM375.924 339.776L377.102 341.981L377.102 341.981L375.924 339.776ZM398.872 332.257L398.967 329.759L398.967 329.759L398.872 332.257ZM410.547 339.284L408.314 340.407L408.314 340.407L410.547 339.284ZM410.547 403.6L408.171 402.823L408.171 402.823L410.547 403.6ZM398.872 423.113L397.011 421.443L397.011 421.444L398.872 423.113ZM375.924 440.119L377.101 442.324L377.149 442.298L377.197 442.271L375.924 440.119ZM366.67 445.064L367.849 447.269L367.849 447.269L366.67 445.064ZM357.404 450.016L356.227 447.811L354.904 448.517V450.016H357.404ZM351.608 492.241H349.108V496.406L352.784 494.447L351.608 492.241ZM357.085 415.311H354.585V419.482L358.264 417.516L357.085 415.311ZM357.085 386.065L355.907 383.86L354.585 384.567V386.065H357.085ZM371.576 407.564L372.755 409.769L372.759 409.767L371.576 407.564ZM377.692 401.385L375.366 400.469L375.365 400.472L377.692 401.385ZM377.692 377.853L375.655 379.303L375.655 379.303L377.692 377.853ZM371.576 378.318L372.755 380.523L372.759 380.521L371.576 378.318ZM509.994 404.749L435.289 444.676L437.645 449.086L512.351 409.159L509.994 404.749ZM514.469 396.883C514.469 398.857 514.061 400.409 513.353 401.638C512.65 402.86 511.569 403.906 509.993 404.75L512.353 409.158C514.641 407.933 516.458 406.268 517.687 404.133C518.911 402.006 519.469 399.557 519.469 396.883H514.469ZM514.469 374.217V396.883H519.469V374.217H514.469ZM512.353 372.548C513.173 372.108 513.722 371.943 514.04 371.9C514.322 371.863 514.274 371.935 514.13 371.84C514.009 371.758 514.102 371.741 514.229 372.133C514.36 372.536 514.469 373.202 514.469 374.217H519.469C519.469 372.908 519.336 371.669 518.984 370.587C518.629 369.494 517.997 368.41 516.91 367.683C514.68 366.192 512.024 367.052 509.993 368.14L512.353 372.548ZM490.125 384.427C497.535 380.468 504.944 376.509 512.352 372.548L509.994 368.139C502.587 372.1 495.178 376.058 487.769 380.017L490.125 384.427ZM467.913 396.299C475.315 392.34 482.72 388.384 490.125 384.427L487.769 380.017C480.364 383.974 472.958 387.93 465.555 391.89L467.913 396.299ZM464.234 377.434V394.094H469.234V377.434H464.234ZM481.254 366.84C476.021 369.635 470.787 372.431 465.555 375.23L467.913 379.639C473.144 376.841 478.377 374.046 483.61 371.25L481.254 366.84ZM496.952 358.451C491.721 361.249 486.488 364.044 481.254 366.84L483.61 371.25C488.844 368.454 494.078 365.658 499.31 362.86L496.952 358.451ZM501.427 350.585C501.427 352.559 501.019 354.114 500.311 355.344C499.608 356.566 498.528 357.611 496.955 358.449L499.307 362.862C501.598 361.641 503.416 359.974 504.645 357.838C505.869 355.71 506.427 353.259 506.427 350.585H501.427ZM501.427 329.86V350.585H506.427V329.86H501.427ZM499.311 328.191C500.131 327.751 500.68 327.586 500.998 327.543C501.281 327.506 501.232 327.579 501.089 327.483C500.967 327.402 501.06 327.384 501.188 327.776C501.319 328.179 501.427 328.845 501.427 329.86H506.427C506.427 328.551 506.294 327.312 505.942 326.23C505.587 325.137 504.955 324.054 503.868 323.326C501.638 321.836 498.983 322.695 496.951 323.783L499.311 328.191ZM483.608 336.582C488.842 333.786 494.077 330.99 499.31 328.191L496.952 323.782C491.72 326.58 486.487 329.376 481.252 332.172L483.608 336.582ZM467.913 344.97C473.143 342.173 478.375 339.378 483.608 336.582L481.252 332.172C476.02 334.967 470.786 337.763 465.555 340.561L467.913 344.97ZM464.234 327.846V342.765H469.234V327.846H464.234ZM487.775 313.766C480.368 317.723 472.96 321.681 465.555 325.641L467.913 330.051C475.317 326.091 482.724 322.133 490.131 318.176L487.775 313.766ZM509.994 301.891C502.589 305.851 495.182 309.808 487.775 313.766L490.131 318.176C497.539 314.218 504.946 310.26 512.352 306.3L509.994 301.891ZM514.469 294.025C514.469 295.999 514.061 297.551 513.353 298.78C512.65 300.001 511.569 301.047 509.993 301.891L512.353 306.299C514.641 305.075 516.458 303.409 517.687 301.275C518.911 299.148 519.469 296.699 519.469 294.025H514.469ZM514.469 276.342V294.025H519.469V276.342H514.469ZM514.47 276.408C514.471 276.453 514.472 276.498 514.472 276.544H519.472C519.472 276.455 519.471 276.366 519.468 276.276L514.47 276.408ZM514.472 276.544V399.49H519.472V276.544H514.472ZM514.472 399.49C514.472 401.264 513.495 402.887 511.938 403.719L514.295 408.129C517.477 406.428 519.472 403.111 519.472 399.49H514.472ZM511.938 403.719L308.974 512.201L311.331 516.61L514.295 408.129L511.938 403.719ZM311.331 512.201L108.367 403.719L106.01 408.129L308.974 516.61L311.331 512.201ZM108.373 403.723C106.807 402.879 105.833 401.251 105.833 399.49H100.833C100.833 403.105 102.83 406.417 106.003 408.125L108.373 403.723ZM105.833 399.49L105.833 397.138L100.833 397.138L100.833 399.49L105.833 399.49ZM100.833 397.176C100.874 399.786 101.456 402.174 102.681 404.249C103.909 406.329 105.702 407.956 107.947 409.158L110.307 404.75C108.759 403.921 107.69 402.898 106.987 401.707C106.28 400.51 105.862 399.005 105.833 397.099L100.833 397.176ZM107.949 409.159C116.834 413.908 125.717 418.655 134.6 423.402L136.956 418.992C128.073 414.245 119.191 409.498 110.306 404.749L107.949 409.159ZM134.6 423.402L134.706 423.459L137.063 419.049L136.956 418.992L134.6 423.402ZM134.706 423.459L135.08 423.658L137.437 419.248L137.063 419.049L134.706 423.459ZM135.08 423.658C144.124 428.491 153.167 433.324 162.212 438.159L164.569 433.749C155.524 428.914 146.48 424.081 137.437 419.248L135.08 423.658ZM160.891 435.954V435.963H165.891V435.954H160.891ZM162.326 438.225C163.136 438.606 163.968 439.006 164.827 439.419L166.993 434.912C166.137 434.501 165.287 434.092 164.456 433.701L162.326 438.225ZM164.832 439.421L164.834 439.422L166.99 434.911L166.988 434.91L164.832 439.421ZM164.983 439.487L164.983 439.488L166.84 434.845L166.84 434.845L164.983 439.487ZM164.829 439.42C169.072 441.458 173.988 443.83 178.964 445.156C183.96 446.489 189.331 446.857 194.374 444.564L192.304 440.012C188.732 441.637 184.673 441.504 180.252 440.325C175.811 439.141 171.322 436.992 166.995 434.913L164.829 439.42ZM194.375 444.563C199.45 442.252 202.26 437.422 203.773 432.474C205.296 427.493 205.645 421.97 205.498 417.534L200.501 417.699C200.637 421.812 200.298 426.739 198.991 431.012C197.674 435.319 195.512 438.551 192.303 440.013L194.375 444.563ZM205.5 417.617V357.174H200.5V417.617H205.5ZM205.499 357.228C205.774 344.502 202.215 331.588 195.455 320.846L191.223 323.509C197.459 333.418 200.754 345.367 200.5 357.12L205.499 357.228ZM195.455 320.846C188.067 309.105 176.192 300.577 164.582 294.287L162.2 298.684C173.502 304.806 184.503 312.829 191.223 323.509L195.455 320.846ZM164.569 294.281C155.587 289.479 146.606 284.68 137.626 279.881L135.27 284.291C144.25 289.09 153.23 293.889 162.212 298.69L164.569 294.281ZM137.626 279.881L137.543 279.837L135.187 284.247L135.27 284.291L137.626 279.881ZM137.543 279.837L137.488 279.807L135.131 284.217L135.187 284.247L137.543 279.837ZM137.488 279.807L137.439 279.781L135.082 284.191L135.131 284.217L137.488 279.807ZM137.439 279.781C129.921 275.764 122.403 271.746 114.883 267.727L112.526 272.137C120.046 276.156 127.564 280.173 135.082 284.191L137.439 279.781ZM112.642 272.195C112.721 272.232 112.801 272.272 112.881 272.315L115.239 267.906C115.083 267.822 114.926 267.743 114.768 267.669L112.642 272.195ZM112.882 272.315L308.974 377.124L311.331 372.714L115.238 267.905L112.882 272.315ZM311.331 377.124L507.423 272.315L505.066 267.905L308.974 372.714L311.331 377.124ZM507.42 272.317C507.488 272.281 507.555 272.247 507.622 272.215L505.466 267.704C505.333 267.767 505.201 267.834 505.069 267.904L507.42 272.317ZM475.007 289.649C485.912 283.82 496.818 277.991 507.722 272.164L505.366 267.754C494.461 273.582 483.555 279.411 472.65 285.24L475.007 289.649ZM437.645 309.618C450.098 302.963 462.552 296.306 475.007 289.649L472.65 285.24C460.195 291.897 447.741 298.553 435.289 305.208L437.645 309.618ZM433.171 317.484C433.171 315.509 433.579 313.955 434.287 312.724C434.99 311.502 436.07 310.457 437.643 309.619L435.291 305.207C433 306.428 431.182 308.095 429.953 310.231C428.729 312.359 428.171 314.81 428.171 317.484H433.171ZM433.171 443.008V317.484H428.171V443.008H433.171ZM435.287 444.677C434.466 445.117 433.918 445.282 433.599 445.325C433.317 445.362 433.366 445.289 433.509 445.385C433.631 445.466 433.538 445.484 433.41 445.092C433.279 444.689 433.171 444.023 433.171 443.008H428.171C428.171 444.317 428.303 445.556 428.655 446.638C429.011 447.731 429.643 448.815 430.73 449.542C432.96 451.032 435.615 450.173 437.647 449.085L435.287 444.677ZM114.768 267.669C108.337 264.648 100.833 269.321 100.833 276.544H105.833C105.833 273.008 109.505 270.721 112.642 272.195L114.768 267.669ZM100.833 276.544L100.833 397.138L105.833 397.138L105.833 276.544L100.833 276.544ZM105.833 397.099C105.832 397.028 105.831 396.956 105.831 396.883H100.831C100.831 396.981 100.832 397.079 100.833 397.176L105.833 397.099ZM105.831 396.883V271.359H100.831V396.883H105.831ZM105.831 271.359C105.831 270.344 105.94 269.678 106.071 269.275C106.198 268.883 106.291 268.9 106.17 268.981C106.026 269.077 105.978 269.004 106.26 269.042C106.578 269.085 107.127 269.25 107.947 269.689L110.307 265.281C108.276 264.194 105.62 263.334 103.391 264.825C102.303 265.552 101.671 266.635 101.316 267.728C100.964 268.811 100.831 270.049 100.831 271.359H105.831ZM107.949 269.69L112.526 272.137L114.883 267.727L110.306 265.281L107.949 269.69ZM507.722 272.164C509.265 271.339 510.808 270.515 512.351 269.69L509.994 265.28C508.451 266.105 506.909 266.93 505.366 267.754L507.722 272.164ZM512.353 269.689C513.173 269.25 513.722 269.085 514.04 269.042C514.322 269.004 514.274 269.077 514.13 268.981C514.009 268.9 514.102 268.883 514.229 269.275C514.36 269.678 514.469 270.344 514.469 271.359H519.469C519.469 270.049 519.336 268.811 518.984 267.728C518.629 266.635 517.997 265.552 516.91 264.825C514.68 263.334 512.024 264.194 509.993 265.281L512.353 269.689ZM514.469 271.359V276.342H519.469V271.359H514.469ZM507.622 272.215C510.731 270.729 514.379 272.949 514.47 276.408L519.468 276.276C519.282 269.183 511.828 264.662 505.466 267.704L507.622 272.215ZM142.386 386.776V320.91H137.386V386.776H142.386ZM156.299 392.715C151.003 389.882 147.306 387.903 141.064 384.57L138.709 388.981C144.948 392.312 148.645 394.29 153.94 397.124L156.299 392.715ZM160.223 394.815L156.299 392.715L153.94 397.124L157.864 399.224L160.223 394.815ZM164.108 391.57C164.108 393.012 163.962 394.04 163.747 394.733C163.533 395.423 163.307 395.616 163.255 395.653C163.239 395.664 163.114 395.769 162.642 395.714C162.123 395.653 161.332 395.409 160.223 394.816L157.864 399.224C160.505 400.637 163.647 401.532 166.177 399.71C167.386 398.84 168.106 397.56 168.523 396.212C168.939 394.868 169.108 393.295 169.108 391.57H164.108ZM164.108 344.497V391.57H169.108V344.497H164.108ZM157.864 333.358C160.018 334.511 161.54 335.981 162.541 337.746C163.548 339.522 164.108 341.74 164.108 344.497H169.108C169.108 341.057 168.406 337.952 166.891 335.28C165.369 332.597 163.109 330.495 160.223 328.95L157.864 333.358ZM142.631 325.214C147.927 328.048 151.624 330.027 157.866 333.36L160.221 328.949C153.982 325.618 150.285 323.64 144.99 320.806L142.631 325.214ZM142.622 325.21L142.631 325.215L144.99 320.806L144.981 320.801L142.622 325.21ZM138.707 323.115L142.622 325.21L144.981 320.801L141.066 318.706L138.707 323.115ZM227.848 467.562C226.272 466.718 225.19 465.672 224.487 464.451C223.78 463.221 223.372 461.669 223.372 459.695H218.372C218.372 462.37 218.93 464.818 220.154 466.945C221.383 469.08 223.2 470.745 225.488 471.97L227.848 467.562ZM224.168 469.757V469.766H229.168V469.757H224.168ZM262.142 485.885C250.711 479.774 239.28 473.663 227.846 467.552L225.489 471.962C236.923 478.073 248.354 484.183 259.785 490.294L262.142 485.885ZM296.437 504.217C285.004 498.106 273.573 491.995 262.142 485.885L259.785 490.294C271.215 496.405 282.647 502.516 294.08 508.627L296.437 504.217ZM298.555 502.548C298.555 503.563 298.446 504.229 298.315 504.632C298.188 505.024 298.095 505.007 298.216 504.926C298.359 504.83 298.408 504.903 298.126 504.865C297.807 504.822 297.259 504.657 296.438 504.218L294.078 508.626C296.11 509.714 298.766 510.573 300.995 509.082C302.083 508.355 302.714 507.272 303.07 506.179C303.422 505.096 303.555 503.858 303.555 502.548H298.555ZM298.555 479.5V502.548H303.555V479.5H298.555ZM294.078 471.633C295.655 472.477 296.736 473.523 297.439 474.744C298.147 475.974 298.555 477.526 298.555 479.5H303.555C303.555 476.825 302.997 474.377 301.772 472.25C300.543 470.115 298.726 468.45 296.438 467.225L294.078 471.633ZM284.666 466.604C287.588 468.167 290.247 469.589 294.082 471.635L296.435 467.223C292.603 465.179 289.946 463.757 287.024 462.195L284.666 466.604ZM284.693 466.618L284.694 466.619L286.996 462.18L286.994 462.179L284.693 466.618ZM284.651 466.596L284.666 466.604L287.022 462.194L287.007 462.186L284.651 466.596ZM278.459 463.286C280.867 464.572 282.811 465.612 284.65 466.595L287.008 462.186C285.169 461.203 283.224 460.163 280.815 458.876L278.459 463.286ZM277.137 395.99V461.081H282.137V395.99H277.137ZM290.24 398.82C287.314 397.255 284.653 395.832 280.814 393.784L278.46 398.196C282.297 400.243 284.956 401.665 287.882 403.229L290.24 398.82ZM296.436 402.133C294.026 400.845 292.08 399.805 290.24 398.82L287.882 403.229C289.722 404.214 291.669 405.255 294.08 406.543L296.436 402.133ZM298.555 400.465C298.555 401.479 298.446 402.146 298.315 402.549C298.188 402.941 298.095 402.923 298.216 402.842C298.359 402.746 298.408 402.819 298.126 402.781C297.807 402.739 297.259 402.573 296.438 402.134L294.078 406.542C296.11 407.63 298.766 408.489 300.995 406.999C302.083 406.271 302.714 405.188 303.07 404.095C303.422 403.013 303.555 401.774 303.555 400.465H298.555ZM298.555 378.024V400.465H303.555V378.024H298.555ZM294.078 370.157C295.655 371.001 296.736 372.047 297.439 373.269C298.147 374.498 298.555 376.05 298.555 378.024H303.555C303.555 375.35 302.997 372.901 301.772 370.774C300.543 368.64 298.726 366.974 296.438 365.749L294.078 370.157ZM243.387 343.069C260.284 352.101 277.18 361.132 294.081 370.159L296.436 365.748C279.536 356.722 262.642 347.692 245.744 338.659L243.387 343.069ZM243.287 343.016L243.387 343.069L245.744 338.659L245.644 338.606L243.287 343.016ZM243.238 342.989L243.288 343.016L245.644 338.606L245.595 338.58L243.238 342.989ZM242.964 342.843L243.238 342.989L245.595 338.58L245.321 338.433L242.964 342.843ZM225.489 333.503C231.315 336.616 237.139 339.729 242.964 342.843L245.321 338.433C239.496 335.32 233.672 332.206 227.846 329.093L225.489 333.503ZM223.372 335.171C223.372 334.156 223.48 333.49 223.611 333.087C223.739 332.695 223.832 332.713 223.71 332.794C223.567 332.89 223.518 332.817 223.8 332.854C224.119 332.897 224.667 333.062 225.488 333.502L227.848 329.094C225.816 328.006 223.161 327.147 220.931 328.637C219.844 329.364 219.212 330.448 218.856 331.541C218.504 332.623 218.372 333.862 218.372 335.171H223.372ZM223.372 357.612V335.171H218.372V357.612H223.372ZM227.848 365.478C226.272 364.635 225.19 363.588 224.487 362.367C223.78 361.138 223.372 359.586 223.372 357.612H218.372C218.372 360.286 218.93 362.735 220.154 364.862C221.383 366.996 223.2 368.662 225.488 369.886L227.848 365.478ZM235.801 369.73C233.416 368.455 231.029 367.178 227.846 365.477L225.49 369.887C228.672 371.588 231.058 372.864 233.443 374.139L235.801 369.73ZM235.817 369.739L235.802 369.73L233.443 374.139L233.459 374.148L235.817 369.739ZM235.85 369.757L235.817 369.739L233.459 374.148L233.493 374.166L235.85 369.757ZM235.849 369.756L235.848 369.755L233.495 374.167L233.496 374.167L235.849 369.756ZM243.786 373.999C240.612 372.303 238.23 371.029 235.851 369.757L233.493 374.166C235.872 375.438 238.255 376.713 241.43 378.409L243.786 373.999ZM245.108 441.295V376.204H240.108V441.295H245.108ZM233.461 439.24C235.85 440.517 238.24 441.796 241.43 443.5L243.786 439.09C240.598 437.386 238.208 436.108 235.819 434.831L233.461 439.24ZM233.447 439.232L233.457 439.237L235.823 434.833L235.812 434.827L233.447 439.232ZM233.439 439.228L233.446 439.231L235.813 434.827L235.806 434.823L233.439 439.228ZM225.49 434.978C228.672 436.678 231.058 437.955 233.443 439.23L235.801 434.821C233.416 433.546 231.029 432.269 227.846 430.568L225.49 434.978ZM223.372 436.647C223.372 435.632 223.48 434.966 223.611 434.563C223.739 434.171 223.832 434.188 223.71 434.269C223.567 434.365 223.518 434.292 223.8 434.33C224.119 434.373 224.667 434.538 225.488 434.977L227.848 430.569C225.816 429.481 223.161 428.622 220.931 430.113C219.844 430.84 219.212 431.923 218.856 433.016C218.504 434.099 218.372 435.337 218.372 436.647H223.372ZM223.372 459.695V436.647H218.372V459.695H223.372ZM327.834 507.778C336.145 503.331 344.466 498.884 352.786 494.436L350.43 490.027C342.109 494.474 333.787 498.922 325.475 503.37L327.834 507.778ZM318.358 501.701C318.358 503.01 318.491 504.249 318.843 505.331C319.198 506.424 319.83 507.507 320.918 508.235C323.147 509.725 325.803 508.866 327.834 507.778L325.474 503.37C324.654 503.809 324.105 503.975 323.787 504.017C323.505 504.055 323.554 503.982 323.697 504.078C323.818 504.159 323.725 504.177 323.598 503.785C323.467 503.382 323.358 502.715 323.358 501.701H318.358ZM318.358 376.176V501.701H323.358V376.176H318.358ZM325.479 363.9C323.187 365.121 321.369 366.788 320.14 368.924C318.916 371.052 318.358 373.503 318.358 376.176H323.358C323.358 374.202 323.766 372.648 324.474 371.417C325.177 370.195 326.257 369.15 327.83 368.312L325.479 363.9ZM374.745 337.571L325.476 363.901L327.833 368.311L377.102 341.981L374.745 337.571ZM398.967 329.759C392.733 329.523 384.586 332.311 374.745 337.571L377.102 341.981C386.801 336.797 393.947 334.572 398.778 334.755L398.967 329.759ZM412.78 338.16C410.069 332.772 405.282 329.999 398.967 329.759L398.777 334.755C403.508 334.935 406.522 336.846 408.314 340.407L412.78 338.16ZM416.428 357.238C416.428 349.532 415.272 343.113 412.78 338.16L408.314 340.407C410.324 344.405 411.428 349.961 411.428 357.238H416.428ZM416.428 382.037V357.238H411.428V382.037H416.428ZM412.923 404.377C415.259 397.238 416.428 389.784 416.428 382.037H411.428C411.428 389.273 410.337 396.2 408.171 402.823L412.923 404.377ZM400.733 424.782C406.412 418.453 410.547 411.649 412.923 404.376L408.171 402.823C406.045 409.331 402.306 415.542 397.011 421.443L400.733 424.782ZM377.197 442.271C385.406 437.414 393.975 432.322 400.734 424.781L397.011 421.444C390.846 428.321 382.956 433.054 374.651 437.967L377.197 442.271ZM367.849 447.269C370.625 445.784 373.4 444.3 377.101 442.324L374.746 437.913C371.043 439.89 368.267 441.375 365.491 442.86L367.849 447.269ZM358.582 452.222C362.29 450.242 365.07 448.755 367.849 447.269L365.491 442.86C362.712 444.346 359.934 445.832 356.227 447.811L358.582 452.222ZM359.904 482.17V450.016H354.904V482.17H359.904ZM352.784 494.447C355.075 493.226 356.893 491.559 358.122 489.423C359.346 487.295 359.904 484.844 359.904 482.17H354.904C354.904 484.144 354.496 485.699 353.788 486.929C353.085 488.151 352.005 489.196 350.432 490.034L352.784 494.447ZM349.108 492.232V492.241H354.108V492.232H349.108ZM359.585 415.311V386.065H354.585V415.311H359.585ZM370.398 405.36L355.907 413.106L358.264 417.516L372.755 409.769L370.398 405.36ZM375.365 400.472C374.681 402.213 373.164 403.875 370.394 405.362L372.759 409.767C376.205 407.918 378.77 405.479 380.019 402.299L375.365 400.472ZM376.641 394.021C376.641 396.146 376.225 398.288 375.366 400.469L380.018 402.302C381.09 399.58 381.641 396.818 381.641 394.021H376.641ZM376.641 383.759V394.021H381.641V383.759H376.641ZM375.655 379.303C376.196 380.063 376.641 381.434 376.641 383.759H381.641C381.641 380.926 381.12 378.36 379.729 376.404L375.655 379.303ZM372.759 380.521C374.196 379.75 375.12 379.482 375.627 379.444C375.853 379.427 375.897 379.464 375.837 379.44C375.754 379.406 375.683 379.342 375.655 379.303L379.729 376.404C378.616 374.841 376.91 374.332 375.248 374.458C373.715 374.575 372.065 375.219 370.394 376.115L372.759 380.521ZM358.264 388.27L372.755 380.523L370.398 376.113L355.907 383.86L358.264 388.27Z" fill="#3F3D56"/>
</svg>
