<svg width="619" height="518" viewBox="0 0 619 518" fill="none" xmlns="http://www.w3.org/2000/svg">
<path d="M280.033 156.054C298.28 166.302 320.547 166.302 338.794 156.054L454.327 91.1698C460.409 87.754 467.831 87.754 473.913 91.1698L587.777 155.116C601.385 162.759 601.385 182.35 587.776 189.993L319.207 340.824C313.125 344.24 305.702 344.24 299.62 340.824L31.0502 189.993C17.4415 182.35 17.4415 162.759 31.0502 155.116L144.913 91.1698C150.995 87.754 158.418 87.754 164.5 91.1698L280.033 156.054Z" fill="white"/>
<path d="M279.403 17.3345C297.973 6.60855 320.855 6.60855 339.424 17.3345L405.657 55.5919C418.986 63.2908 418.986 82.53 405.657 90.2289L339.424 128.486C320.855 139.212 297.973 139.212 279.403 128.486L213.17 90.2289C199.841 82.53 199.841 63.2908 213.17 55.5919L279.403 17.3345Z" fill="white"/>
<path fill-rule="evenodd" clip-rule="evenodd" d="M436.467 446.881L511.173 406.954C515.037 404.885 516.969 401.531 516.969 396.883V374.217C516.969 369.569 515.037 368.275 511.173 370.344C503.766 374.305 496.356 378.263 488.947 382.222C481.542 386.179 474.137 390.135 466.734 394.094V377.434C471.965 374.636 477.199 371.841 482.432 369.045C487.666 366.249 492.9 363.454 498.131 360.656C501.995 358.596 503.927 355.233 503.927 350.585V329.86C503.927 325.212 501.995 323.918 498.131 325.987C492.899 328.785 487.665 331.581 482.43 334.377C477.197 337.172 471.964 339.968 466.734 342.765V327.846C474.139 323.886 481.546 319.928 488.953 315.971C496.361 312.013 503.768 308.055 511.173 304.095C515.037 302.027 516.969 298.673 516.969 294.025V276.342C516.971 276.409 516.972 276.477 516.972 276.544V399.49C516.972 402.187 515.486 404.657 513.117 405.924L310.152 514.405L107.188 405.924C104.819 404.648 103.333 402.178 103.333 399.49L103.333 397.138C103.403 401.654 105.334 404.923 109.127 406.954C118.012 411.703 126.895 416.45 135.778 421.197L135.884 421.254L136.258 421.453C145.302 426.286 154.345 431.119 163.391 435.954V435.963C164.212 436.349 165.052 436.753 165.91 437.165L165.912 437.166L165.912 437.166C174.481 441.284 184.723 446.206 193.339 442.288C201.623 438.515 203.282 426.166 203 417.617V357.174C203.264 344.934 199.837 332.503 193.339 322.177C186.285 310.967 174.847 302.692 163.391 296.485C154.408 291.684 145.428 286.885 136.448 282.086L136.365 282.042L136.309 282.012L136.261 281.986C128.742 277.968 121.224 273.951 113.705 269.932C113.824 269.988 113.942 270.047 114.06 270.11L310.152 374.919L506.245 270.11C506.344 270.057 506.444 270.007 506.544 269.959C495.64 275.787 484.734 281.616 473.828 287.445C461.374 294.101 448.919 300.758 436.467 307.413C432.603 309.473 430.671 312.836 430.671 317.484V443.008C430.671 447.656 432.603 448.95 436.467 446.881ZM113.705 269.932C108.921 267.685 103.333 271.164 103.333 276.544L103.333 397.138C103.332 397.053 103.331 396.968 103.331 396.883V271.359C103.331 266.711 105.263 265.416 109.127 267.485L113.705 269.932ZM506.544 269.959C508.087 269.134 509.63 268.31 511.173 267.485C515.037 265.416 516.969 266.711 516.969 271.359V276.342C516.83 271.066 511.28 267.695 506.544 269.959ZM139.886 320.91V386.776C146.127 390.108 149.824 392.086 155.119 394.92L159.044 397.02C164.084 399.717 166.608 397.904 166.608 391.57V344.497C166.608 338.3 164.084 333.852 159.044 331.154C152.803 327.822 149.106 325.844 143.81 323.01L143.801 323.005L139.886 320.91ZM220.872 459.695C220.872 464.343 222.804 467.697 226.668 469.766V469.757C238.101 475.868 249.532 481.979 260.963 488.089C272.394 494.2 283.825 500.311 295.258 506.422C299.123 508.491 301.055 507.196 301.055 502.548V479.5C301.055 474.852 299.123 471.498 295.258 469.429C291.425 467.384 288.767 465.962 285.845 464.399L285.844 464.399L285.829 464.391C283.99 463.407 282.046 462.367 279.637 461.081V395.99C283.475 398.037 286.135 399.46 289.061 401.025C290.901 402.009 292.847 403.05 295.258 404.338C299.123 406.407 301.055 405.113 301.055 400.465V378.024C301.055 373.376 299.123 370.022 295.258 367.953C278.358 358.927 261.463 349.896 244.566 340.864L244.466 340.811L244.416 340.785L244.142 340.638C238.318 337.525 232.493 334.411 226.668 331.298C222.804 329.229 220.872 330.523 220.872 335.171V357.612C220.872 362.26 222.804 365.614 226.668 367.682C229.851 369.383 232.237 370.659 234.622 371.935L234.638 371.943L234.672 371.961L234.672 371.962C237.051 373.234 239.433 374.508 242.608 376.204V441.295C239.419 439.591 237.029 438.313 234.64 437.035L234.63 437.029L234.622 437.025C232.237 435.75 229.851 434.474 226.668 432.773C222.804 430.704 220.872 431.999 220.872 436.647V459.695ZM351.608 492.232C343.287 496.679 334.966 501.127 326.654 505.574C322.79 507.643 320.858 506.349 320.858 501.701V376.176C320.858 371.528 322.79 368.165 326.654 366.106L375.924 339.776C385.694 334.554 393.34 332.047 398.872 332.257C404.395 332.467 408.296 334.809 410.547 339.284C412.798 343.759 413.928 349.746 413.928 357.238V382.037C413.928 389.528 412.798 396.719 410.547 403.6C408.296 410.49 404.359 416.997 398.872 423.113C392.41 430.322 384.181 435.234 375.924 440.119C372.222 442.095 369.446 443.58 366.67 445.064C363.891 446.551 361.112 448.037 357.404 450.016V482.17C357.404 486.818 355.472 490.181 351.608 492.241V492.232ZM357.085 386.065V415.311L371.576 407.564C374.684 405.897 376.726 403.846 377.692 401.385C378.658 398.934 379.141 396.482 379.141 394.021V383.759C379.141 381.18 378.658 379.211 377.692 377.853C376.726 376.495 374.684 376.65 371.576 378.318L357.085 386.065Z" fill="white"/>
<path d="M511.173 406.954L512.351 409.159L512.353 409.158L511.173 406.954ZM436.467 446.881L435.289 444.676L435.287 444.677L436.467 446.881ZM511.173 370.344L512.352 372.548L512.353 372.548L511.173 370.344ZM488.947 382.222L487.769 380.017L487.769 380.017L488.947 382.222ZM466.734 394.094H464.234V398.266L467.913 396.299L466.734 394.094ZM466.734 377.434L465.555 375.23L464.234 375.936V377.434H466.734ZM498.131 360.656L496.955 358.449L496.952 358.451L498.131 360.656ZM498.131 325.987L499.31 328.191L499.311 328.191L498.131 325.987ZM482.43 334.377L483.608 336.582L483.608 336.582L482.43 334.377ZM466.734 342.765H464.234V346.937L467.913 344.97L466.734 342.765ZM466.734 327.846L465.555 325.641L464.234 326.348V327.846H466.734ZM488.953 315.971L490.131 318.176L490.131 318.176L488.953 315.971ZM511.173 304.095L512.352 306.3L512.353 306.299L511.173 304.095ZM513.117 405.924L514.295 408.129L514.295 408.129L513.117 405.924ZM310.152 514.405L308.974 516.61L310.152 517.24L311.331 516.61L310.152 514.405ZM107.188 405.924L106.003 408.125L106.01 408.129L107.188 405.924ZM103.333 399.49L105.833 399.49L103.333 399.49ZM109.127 406.954L107.947 409.158L107.949 409.159L109.127 406.954ZM135.778 421.197L134.6 423.402L134.6 423.402L135.778 421.197ZM135.884 421.254L137.063 419.049L137.063 419.049L135.884 421.254ZM136.258 421.453L137.437 419.248L137.437 419.248L136.258 421.453ZM163.391 435.954H165.891V434.455L164.569 433.749L163.391 435.954ZM163.391 435.963H160.891V437.549L162.326 438.225L163.391 435.963ZM165.91 437.165L164.827 439.419L164.832 439.421L165.91 437.165ZM165.912 437.166L164.834 439.422L164.907 439.457L164.983 439.487L165.912 437.166ZM165.912 437.166L166.995 434.913L166.919 434.876L166.84 434.845L165.912 437.166ZM193.339 442.288L194.374 444.564L194.375 444.563L193.339 442.288ZM203 417.617H200.5V417.658L200.501 417.699L203 417.617ZM203 357.174L200.5 357.12L200.5 357.147V357.174H203ZM193.339 322.177L191.223 323.509L191.223 323.509L193.339 322.177ZM163.391 296.485L164.582 294.287L164.569 294.281L163.391 296.485ZM136.448 282.086L135.27 284.291L135.27 284.291L136.448 282.086ZM136.365 282.042L137.543 279.837L137.543 279.837L136.365 282.042ZM136.309 282.012L135.131 284.217L135.131 284.217L136.309 282.012ZM136.261 281.986L137.439 279.781L137.439 279.781L136.261 281.986ZM114.06 270.11L112.881 272.315L112.882 272.315L114.06 270.11ZM310.152 374.919L308.974 377.124L310.152 377.753L311.331 377.124L310.152 374.919ZM506.245 270.11L505.069 267.904L505.066 267.905L506.245 270.11ZM473.828 287.445L475.007 289.649L475.007 289.649L473.828 287.445ZM436.467 307.413L437.643 309.619L437.645 309.618L436.467 307.413ZM103.333 276.544H105.833H103.333ZM109.127 267.485L107.947 269.689L107.949 269.69L109.127 267.485ZM511.173 267.485L512.351 269.69L512.353 269.689L511.173 267.485ZM139.886 386.776H137.386V388.275L138.709 388.981L139.886 386.776ZM139.886 320.91L141.066 318.706L137.386 316.737V320.91H139.886ZM155.119 394.92L153.94 397.124L153.94 397.124L155.119 394.92ZM159.044 397.02L160.223 394.816L160.223 394.815L159.044 397.02ZM159.044 331.154L160.223 328.95L160.221 328.949L159.044 331.154ZM143.81 323.01L144.99 320.806L144.99 320.806L143.81 323.01ZM143.801 323.005L142.622 325.21L142.622 325.21L143.801 323.005ZM226.668 469.766L225.488 471.97L229.168 473.94V469.766H226.668ZM226.668 469.757L227.846 467.552L224.168 465.586V469.757H226.668ZM295.258 506.422L296.438 504.218L296.437 504.217L295.258 506.422ZM295.258 469.429L296.438 467.225L296.435 467.223L295.258 469.429ZM285.845 464.399L287.024 462.195L287.01 462.187L286.996 462.18L285.845 464.399ZM285.844 464.399L284.666 466.604L284.679 466.611L284.693 466.618L285.844 464.399ZM285.829 464.391L284.65 466.595L284.651 466.596L285.829 464.391ZM279.637 461.081H277.137V462.579L278.459 463.286L279.637 461.081ZM279.637 395.99L280.814 393.784L277.137 391.823V395.99H279.637ZM289.061 401.025L287.882 403.229L287.882 403.229L289.061 401.025ZM295.258 404.338L296.438 402.134L296.436 402.133L295.258 404.338ZM295.258 367.953L296.438 365.749L296.436 365.748L295.258 367.953ZM244.566 340.864L245.744 338.659L245.744 338.659L244.566 340.864ZM244.466 340.811L245.644 338.606L245.644 338.606L244.466 340.811ZM244.416 340.785L243.238 342.989L243.238 342.989L244.416 340.785ZM244.142 340.638L245.321 338.433L245.321 338.433L244.142 340.638ZM226.668 331.298L225.488 333.502L225.489 333.503L226.668 331.298ZM226.668 367.682L225.488 369.886L225.49 369.887L226.668 367.682ZM234.622 371.935L235.802 369.73L235.801 369.73L234.622 371.935ZM234.638 371.943L233.459 374.148L233.459 374.148L234.638 371.943ZM234.672 371.961L233.493 374.166L233.495 374.167L234.672 371.961ZM234.672 371.962L235.851 369.757L235.849 369.756L234.672 371.962ZM242.608 376.204H245.108V374.705L243.786 373.999L242.608 376.204ZM242.608 441.295L241.43 443.5L245.108 445.465V441.295H242.608ZM234.64 437.035L233.457 439.237L233.461 439.24L234.64 437.035ZM234.63 437.029L233.446 439.231L233.447 439.232L234.63 437.029ZM234.622 437.025L235.806 434.823L235.801 434.821L234.622 437.025ZM226.668 432.773L225.488 434.977L225.49 434.978L226.668 432.773ZM326.654 505.574L325.475 503.37L325.474 503.37L326.654 505.574ZM351.608 492.232H354.108V488.061L350.43 490.027L351.608 492.232ZM326.654 366.106L327.83 368.312L327.833 368.311L326.654 366.106ZM375.924 339.776L377.102 341.981L377.102 341.981L375.924 339.776ZM398.872 332.257L398.967 329.759L398.967 329.759L398.872 332.257ZM410.547 339.284L408.314 340.407L408.314 340.407L410.547 339.284ZM410.547 403.6L408.171 402.823L408.171 402.823L410.547 403.6ZM398.872 423.113L397.011 421.443L397.011 421.444L398.872 423.113ZM375.924 440.119L377.101 442.324L377.149 442.298L377.197 442.271L375.924 440.119ZM366.67 445.064L367.849 447.269L367.849 447.269L366.67 445.064ZM357.404 450.016L356.227 447.811L354.904 448.517V450.016H357.404ZM351.608 492.241H349.108V496.406L352.784 494.447L351.608 492.241ZM357.085 415.311H354.585V419.482L358.264 417.516L357.085 415.311ZM357.085 386.065L355.907 383.86L354.585 384.567V386.065H357.085ZM371.576 407.564L372.755 409.769L372.759 409.767L371.576 407.564ZM377.692 401.385L375.366 400.469L375.365 400.472L377.692 401.385ZM377.692 377.853L375.655 379.303L375.655 379.303L377.692 377.853ZM371.576 378.318L372.755 380.523L372.759 380.521L371.576 378.318ZM509.994 404.749L435.289 444.676L437.645 449.086L512.351 409.159L509.994 404.749ZM514.469 396.883C514.469 398.857 514.061 400.409 513.353 401.638C512.65 402.86 511.569 403.906 509.993 404.75L512.353 409.158C514.641 407.933 516.458 406.268 517.687 404.133C518.911 402.006 519.469 399.557 519.469 396.883H514.469ZM514.469 374.217V396.883H519.469V374.217H514.469ZM512.353 372.548C513.173 372.108 513.722 371.943 514.04 371.9C514.322 371.863 514.274 371.935 514.13 371.84C514.009 371.758 514.102 371.741 514.229 372.133C514.36 372.536 514.469 373.202 514.469 374.217H519.469C519.469 372.908 519.336 371.669 518.984 370.587C518.629 369.494 517.997 368.41 516.91 367.683C514.68 366.192 512.024 367.052 509.993 368.14L512.353 372.548ZM490.125 384.427C497.535 380.468 504.944 376.509 512.352 372.548L509.994 368.139C502.587 372.1 495.178 376.058 487.769 380.017L490.125 384.427ZM467.913 396.299C475.315 392.34 482.72 388.384 490.125 384.427L487.769 380.017C480.364 383.974 472.958 387.93 465.555 391.89L467.913 396.299ZM464.234 377.434V394.094H469.234V377.434H464.234ZM481.254 366.84C476.021 369.635 470.787 372.431 465.555 375.23L467.913 379.639C473.144 376.841 478.377 374.046 483.61 371.25L481.254 366.84ZM496.952 358.451C491.721 361.249 486.488 364.044 481.254 366.84L483.61 371.25C488.844 368.454 494.078 365.658 499.31 362.86L496.952 358.451ZM501.427 350.585C501.427 352.559 501.019 354.114 500.311 355.344C499.608 356.566 498.528 357.611 496.955 358.449L499.307 362.862C501.598 361.641 503.416 359.974 504.645 357.838C505.869 355.71 506.427 353.259 506.427 350.585H501.427ZM501.427 329.86V350.585H506.427V329.86H501.427ZM499.311 328.191C500.131 327.751 500.68 327.586 500.998 327.543C501.281 327.506 501.232 327.579 501.089 327.483C500.967 327.402 501.06 327.384 501.188 327.776C501.319 328.179 501.427 328.845 501.427 329.86H506.427C506.427 328.551 506.294 327.312 505.942 326.23C505.587 325.137 504.955 324.054 503.868 323.326C501.638 321.836 498.983 322.695 496.951 323.783L499.311 328.191ZM483.608 336.582C488.842 333.786 494.077 330.99 499.31 328.191L496.952 323.782C491.72 326.58 486.487 329.376 481.252 332.172L483.608 336.582ZM467.913 344.97C473.143 342.173 478.375 339.378 483.608 336.582L481.252 332.172C476.02 334.967 470.786 337.763 465.555 340.561L467.913 344.97ZM464.234 327.846V342.765H469.234V327.846H464.234ZM487.775 313.766C480.368 317.723 472.96 321.681 465.555 325.641L467.913 330.051C475.317 326.091 482.724 322.133 490.131 318.176L487.775 313.766ZM509.994 301.891C502.589 305.851 495.182 309.808 487.775 313.766L490.131 318.176C497.539 314.218 504.946 310.26 512.352 306.3L509.994 301.891ZM514.469 294.025C514.469 295.999 514.061 297.551 513.353 298.78C512.65 300.001 511.569 301.047 509.993 301.891L512.353 306.299C514.641 305.075 516.458 303.409 517.687 301.275C518.911 299.148 519.469 296.699 519.469 294.025H514.469ZM514.469 276.342V294.025H519.469V276.342H514.469ZM514.47 276.408C514.471 276.453 514.472 276.498 514.472 276.544H519.472C519.472 276.455 519.471 276.366 519.468 276.276L514.47 276.408ZM514.472 276.544V399.49H519.472V276.544H514.472ZM514.472 399.49C514.472 401.264 513.495 402.887 511.938 403.719L514.295 408.129C517.477 406.428 519.472 403.111 519.472 399.49H514.472ZM511.938 403.719L308.974 512.201L311.331 516.61L514.295 408.129L511.938 403.719ZM311.331 512.201L108.367 403.719L106.01 408.129L308.974 516.61L311.331 512.201ZM108.373 403.723C106.807 402.879 105.833 401.251 105.833 399.49H100.833C100.833 403.105 102.83 406.417 106.003 408.125L108.373 403.723ZM105.833 399.49L105.833 397.138L100.833 397.138L100.833 399.49L105.833 399.49ZM100.833 397.176C100.874 399.786 101.456 402.174 102.681 404.249C103.909 406.329 105.702 407.956 107.947 409.158L110.307 404.75C108.759 403.921 107.69 402.898 106.987 401.707C106.28 400.51 105.862 399.005 105.833 397.099L100.833 397.176ZM107.949 409.159C116.834 413.908 125.717 418.655 134.6 423.402L136.956 418.992C128.073 414.245 119.191 409.498 110.306 404.749L107.949 409.159ZM134.6 423.402L134.706 423.459L137.063 419.049L136.956 418.992L134.6 423.402ZM134.706 423.459L135.08 423.658L137.437 419.248L137.063 419.049L134.706 423.459ZM135.08 423.658C144.124 428.491 153.167 433.324 162.212 438.159L164.569 433.749C155.524 428.914 146.48 424.081 137.437 419.248L135.08 423.658ZM160.891 435.954V435.963H165.891V435.954H160.891ZM162.326 438.225C163.136 438.606 163.968 439.006 164.827 439.419L166.993 434.912C166.137 434.501 165.287 434.092 164.456 433.701L162.326 438.225ZM164.832 439.421L164.834 439.422L166.99 434.911L166.988 434.91L164.832 439.421ZM164.983 439.487L164.983 439.488L166.84 434.845L166.84 434.845L164.983 439.487ZM164.829 439.42C169.072 441.458 173.988 443.83 178.964 445.156C183.96 446.489 189.331 446.857 194.374 444.564L192.304 440.012C188.732 441.637 184.673 441.504 180.252 440.325C175.811 439.141 171.322 436.992 166.995 434.913L164.829 439.42ZM194.375 444.563C199.45 442.252 202.26 437.422 203.773 432.474C205.296 427.493 205.645 421.97 205.498 417.534L200.501 417.699C200.637 421.812 200.298 426.739 198.991 431.012C197.674 435.319 195.512 438.551 192.303 440.013L194.375 444.563ZM205.5 417.617V357.174H200.5V417.617H205.5ZM205.499 357.228C205.774 344.502 202.215 331.588 195.455 320.846L191.223 323.509C197.459 333.418 200.754 345.367 200.5 357.12L205.499 357.228ZM195.455 320.846C188.067 309.105 176.192 300.577 164.582 294.287L162.2 298.684C173.502 304.806 184.503 312.829 191.223 323.509L195.455 320.846ZM164.569 294.281C155.587 289.479 146.606 284.68 137.626 279.881L135.27 284.291C144.25 289.09 153.23 293.889 162.212 298.69L164.569 294.281ZM137.626 279.881L137.543 279.837L135.187 284.247L135.27 284.291L137.626 279.881ZM137.543 279.837L137.488 279.807L135.131 284.217L135.187 284.247L137.543 279.837ZM137.488 279.807L137.439 279.781L135.082 284.191L135.131 284.217L137.488 279.807ZM137.439 279.781C129.921 275.764 122.403 271.746 114.883 267.727L112.526 272.137C120.046 276.156 127.564 280.173 135.082 284.191L137.439 279.781ZM112.642 272.195C112.721 272.232 112.801 272.272 112.881 272.315L115.239 267.906C115.083 267.822 114.926 267.743 114.768 267.669L112.642 272.195ZM112.882 272.315L308.974 377.124L311.331 372.714L115.238 267.905L112.882 272.315ZM311.331 377.124L507.423 272.315L505.066 267.905L308.974 372.714L311.331 377.124ZM507.42 272.317C507.488 272.281 507.555 272.247 507.622 272.215L505.466 267.704C505.333 267.767 505.201 267.834 505.069 267.904L507.42 272.317ZM475.007 289.649C485.912 283.82 496.818 277.991 507.722 272.164L505.366 267.754C494.461 273.582 483.555 279.411 472.65 285.24L475.007 289.649ZM437.645 309.618C450.098 302.963 462.552 296.306 475.007 289.649L472.65 285.24C460.195 291.897 447.741 298.553 435.289 305.208L437.645 309.618ZM433.171 317.484C433.171 315.509 433.579 313.955 434.287 312.724C434.99 311.502 436.07 310.457 437.643 309.619L435.291 305.207C433 306.428 431.182 308.095 429.953 310.231C428.729 312.359 428.171 314.81 428.171 317.484H433.171ZM433.171 443.008V317.484H428.171V443.008H433.171ZM435.287 444.677C434.466 445.117 433.918 445.282 433.599 445.325C433.317 445.362 433.366 445.289 433.509 445.385C433.631 445.466 433.538 445.484 433.41 445.092C433.279 444.689 433.171 444.023 433.171 443.008H428.171C428.171 444.317 428.303 445.556 428.655 446.638C429.011 447.731 429.643 448.815 430.73 449.542C432.96 451.032 435.615 450.173 437.647 449.085L435.287 444.677ZM114.768 267.669C108.337 264.648 100.833 269.321 100.833 276.544H105.833C105.833 273.008 109.505 270.721 112.642 272.195L114.768 267.669ZM100.833 276.544L100.833 397.138L105.833 397.138L105.833 276.544L100.833 276.544ZM105.833 397.099C105.832 397.028 105.831 396.956 105.831 396.883H100.831C100.831 396.981 100.832 397.079 100.833 397.176L105.833 397.099ZM105.831 396.883V271.359H100.831V396.883H105.831ZM105.831 271.359C105.831 270.344 105.94 269.678 106.071 269.275C106.198 268.883 106.291 268.9 106.17 268.981C106.026 269.077 105.978 269.004 106.26 269.042C106.578 269.085 107.127 269.25 107.947 269.689L110.307 265.281C108.276 264.194 105.62 263.334 103.391 264.825C102.303 265.552 101.671 266.635 101.316 267.728C100.964 268.811 100.831 270.049 100.831 271.359H105.831ZM107.949 269.69L112.526 272.137L114.883 267.727L110.306 265.281L107.949 269.69ZM507.722 272.164C509.265 271.339 510.808 270.515 512.351 269.69L509.994 265.28C508.451 266.105 506.909 266.93 505.366 267.754L507.722 272.164ZM512.353 269.689C513.173 269.25 513.722 269.085 514.04 269.042C514.322 269.004 514.274 269.077 514.13 268.981C514.009 268.9 514.102 268.883 514.229 269.275C514.36 269.678 514.469 270.344 514.469 271.359H519.469C519.469 270.049 519.336 268.811 518.984 267.728C518.629 266.635 517.997 265.552 516.91 264.825C514.68 263.334 512.024 264.194 509.993 265.281L512.353 269.689ZM514.469 271.359V276.342H519.469V271.359H514.469ZM507.622 272.215C510.731 270.729 514.379 272.949 514.47 276.408L519.468 276.276C519.282 269.183 511.828 264.662 505.466 267.704L507.622 272.215ZM142.386 386.776V320.91H137.386V386.776H142.386ZM156.299 392.715C151.003 389.882 147.306 387.903 141.064 384.57L138.709 388.981C144.948 392.312 148.645 394.29 153.94 397.124L156.299 392.715ZM160.223 394.815L156.299 392.715L153.94 397.124L157.864 399.224L160.223 394.815ZM164.108 391.57C164.108 393.012 163.962 394.04 163.747 394.733C163.533 395.423 163.307 395.616 163.255 395.653C163.239 395.664 163.114 395.769 162.642 395.714C162.123 395.653 161.332 395.409 160.223 394.816L157.864 399.224C160.505 400.637 163.647 401.532 166.177 399.71C167.386 398.84 168.106 397.56 168.523 396.212C168.939 394.868 169.108 393.295 169.108 391.57H164.108ZM164.108 344.497V391.57H169.108V344.497H164.108ZM157.864 333.358C160.018 334.511 161.54 335.981 162.541 337.746C163.548 339.522 164.108 341.74 164.108 344.497H169.108C169.108 341.057 168.406 337.952 166.891 335.28C165.369 332.597 163.109 330.495 160.223 328.95L157.864 333.358ZM142.631 325.214C147.927 328.048 151.624 330.027 157.866 333.36L160.221 328.949C153.982 325.618 150.285 323.64 144.99 320.806L142.631 325.214ZM142.622 325.21L142.631 325.215L144.99 320.806L144.981 320.801L142.622 325.21ZM138.707 323.115L142.622 325.21L144.981 320.801L141.066 318.706L138.707 323.115ZM227.848 467.562C226.272 466.718 225.19 465.672 224.487 464.451C223.78 463.221 223.372 461.669 223.372 459.695H218.372C218.372 462.37 218.93 464.818 220.154 466.945C221.383 469.08 223.2 470.745 225.488 471.97L227.848 467.562ZM224.168 469.757V469.766H229.168V469.757H224.168ZM262.142 485.885C250.711 479.774 239.28 473.663 227.846 467.552L225.489 471.962C236.923 478.073 248.354 484.183 259.785 490.294L262.142 485.885ZM296.437 504.217C285.004 498.106 273.573 491.995 262.142 485.885L259.785 490.294C271.215 496.405 282.647 502.516 294.08 508.627L296.437 504.217ZM298.555 502.548C298.555 503.563 298.446 504.229 298.315 504.632C298.188 505.024 298.095 505.007 298.216 504.926C298.359 504.83 298.408 504.903 298.126 504.865C297.807 504.822 297.259 504.657 296.438 504.218L294.078 508.626C296.11 509.714 298.766 510.573 300.995 509.082C302.083 508.355 302.714 507.272 303.07 506.179C303.422 505.096 303.555 503.858 303.555 502.548H298.555ZM298.555 479.5V502.548H303.555V479.5H298.555ZM294.078 471.633C295.655 472.477 296.736 473.523 297.439 474.744C298.147 475.974 298.555 477.526 298.555 479.5H303.555C303.555 476.825 302.997 474.377 301.772 472.25C300.543 470.115 298.726 468.45 296.438 467.225L294.078 471.633ZM284.666 466.604C287.588 468.167 290.247 469.589 294.082 471.635L296.435 467.223C292.603 465.179 289.946 463.757 287.024 462.195L284.666 466.604ZM284.693 466.618L284.694 466.619L286.996 462.18L286.994 462.179L284.693 466.618ZM284.651 466.596L284.666 466.604L287.022 462.194L287.007 462.186L284.651 466.596ZM278.459 463.286C280.867 464.572 282.811 465.612 284.65 466.595L287.008 462.186C285.169 461.203 283.224 460.163 280.815 458.876L278.459 463.286ZM277.137 395.99V461.081H282.137V395.99H277.137ZM290.24 398.82C287.314 397.255 284.653 395.832 280.814 393.784L278.46 398.196C282.297 400.243 284.956 401.665 287.882 403.229L290.24 398.82ZM296.436 402.133C294.026 400.845 292.08 399.805 290.24 398.82L287.882 403.229C289.722 404.214 291.669 405.255 294.08 406.543L296.436 402.133ZM298.555 400.465C298.555 401.479 298.446 402.146 298.315 402.549C298.188 402.941 298.095 402.923 298.216 402.842C298.359 402.746 298.408 402.819 298.126 402.781C297.807 402.739 297.259 402.573 296.438 402.134L294.078 406.542C296.11 407.63 298.766 408.489 300.995 406.999C302.083 406.271 302.714 405.188 303.07 404.095C303.422 403.013 303.555 401.774 303.555 400.465H298.555ZM298.555 378.024V400.465H303.555V378.024H298.555ZM294.078 370.157C295.655 371.001 296.736 372.047 297.439 373.269C298.147 374.498 298.555 376.05 298.555 378.024H303.555C303.555 375.35 302.997 372.901 301.772 370.774C300.543 368.64 298.726 366.974 296.438 365.749L294.078 370.157ZM243.387 343.069C260.284 352.101 277.18 361.132 294.081 370.159L296.436 365.748C279.536 356.722 262.642 347.692 245.744 338.659L243.387 343.069ZM243.287 343.016L243.387 343.069L245.744 338.659L245.644 338.606L243.287 343.016ZM243.238 342.989L243.288 343.016L245.644 338.606L245.595 338.58L243.238 342.989ZM242.964 342.843L243.238 342.989L245.595 338.58L245.321 338.433L242.964 342.843ZM225.489 333.503C231.315 336.616 237.139 339.729 242.964 342.843L245.321 338.433C239.496 335.32 233.672 332.206 227.846 329.093L225.489 333.503ZM223.372 335.171C223.372 334.156 223.48 333.49 223.611 333.087C223.739 332.695 223.832 332.713 223.71 332.794C223.567 332.89 223.518 332.817 223.8 332.854C224.119 332.897 224.667 333.062 225.488 333.502L227.848 329.094C225.816 328.006 223.161 327.147 220.931 328.637C219.844 329.364 219.212 330.448 218.856 331.541C218.504 332.623 218.372 333.862 218.372 335.171H223.372ZM223.372 357.612V335.171H218.372V357.612H223.372ZM227.848 365.478C226.272 364.635 225.19 363.588 224.487 362.367C223.78 361.138 223.372 359.586 223.372 357.612H218.372C218.372 360.286 218.93 362.735 220.154 364.862C221.383 366.996 223.2 368.662 225.488 369.886L227.848 365.478ZM235.801 369.73C233.416 368.455 231.029 367.178 227.846 365.477L225.49 369.887C228.672 371.588 231.058 372.864 233.443 374.139L235.801 369.73ZM235.817 369.739L235.802 369.73L233.443 374.139L233.459 374.148L235.817 369.739ZM235.85 369.757L235.817 369.739L233.459 374.148L233.493 374.166L235.85 369.757ZM235.849 369.756L235.848 369.755L233.495 374.167L233.496 374.167L235.849 369.756ZM243.786 373.999C240.612 372.303 238.23 371.029 235.851 369.757L233.493 374.166C235.872 375.438 238.255 376.713 241.43 378.409L243.786 373.999ZM245.108 441.295V376.204H240.108V441.295H245.108ZM233.461 439.24C235.85 440.517 238.24 441.796 241.43 443.5L243.786 439.09C240.598 437.386 238.208 436.108 235.819 434.831L233.461 439.24ZM233.447 439.232L233.457 439.237L235.823 434.833L235.812 434.827L233.447 439.232ZM233.439 439.228L233.446 439.231L235.813 434.827L235.806 434.823L233.439 439.228ZM225.49 434.978C228.672 436.678 231.058 437.955 233.443 439.23L235.801 434.821C233.416 433.546 231.029 432.269 227.846 430.568L225.49 434.978ZM223.372 436.647C223.372 435.632 223.48 434.966 223.611 434.563C223.739 434.171 223.832 434.188 223.71 434.269C223.567 434.365 223.518 434.292 223.8 434.33C224.119 434.373 224.667 434.538 225.488 434.977L227.848 430.569C225.816 429.481 223.161 428.622 220.931 430.113C219.844 430.84 219.212 431.923 218.856 433.016C218.504 434.099 218.372 435.337 218.372 436.647H223.372ZM223.372 459.695V436.647H218.372V459.695H223.372ZM327.834 507.778C336.145 503.331 344.466 498.884 352.786 494.436L350.43 490.027C342.109 494.474 333.787 498.922 325.475 503.37L327.834 507.778ZM318.358 501.701C318.358 503.01 318.491 504.249 318.843 505.331C319.198 506.424 319.83 507.507 320.918 508.235C323.147 509.725 325.803 508.866 327.834 507.778L325.474 503.37C324.654 503.809 324.105 503.975 323.787 504.017C323.505 504.055 323.554 503.982 323.697 504.078C323.818 504.159 323.725 504.177 323.598 503.785C323.467 503.382 323.358 502.715 323.358 501.701H318.358ZM318.358 376.176V501.701H323.358V376.176H318.358ZM325.479 363.9C323.187 365.121 321.369 366.788 320.14 368.924C318.916 371.052 318.358 373.503 318.358 376.176H323.358C323.358 374.202 323.766 372.648 324.474 371.417C325.177 370.195 326.257 369.15 327.83 368.312L325.479 363.9ZM374.745 337.571L325.476 363.901L327.833 368.311L377.102 341.981L374.745 337.571ZM398.967 329.759C392.733 329.523 384.586 332.311 374.745 337.571L377.102 341.981C386.801 336.797 393.947 334.572 398.778 334.755L398.967 329.759ZM412.78 338.16C410.069 332.772 405.282 329.999 398.967 329.759L398.777 334.755C403.508 334.935 406.522 336.846 408.314 340.407L412.78 338.16ZM416.428 357.238C416.428 349.532 415.272 343.113 412.78 338.16L408.314 340.407C410.324 344.405 411.428 349.961 411.428 357.238H416.428ZM416.428 382.037V357.238H411.428V382.037H416.428ZM412.923 404.377C415.259 397.238 416.428 389.784 416.428 382.037H411.428C411.428 389.273 410.337 396.2 408.171 402.823L412.923 404.377ZM400.733 424.782C406.412 418.453 410.547 411.649 412.923 404.376L408.171 402.823C406.045 409.331 402.306 415.542 397.011 421.443L400.733 424.782ZM377.197 442.271C385.406 437.414 393.975 432.322 400.734 424.781L397.011 421.444C390.846 428.321 382.956 433.054 374.651 437.967L377.197 442.271ZM367.849 447.269C370.625 445.784 373.4 444.3 377.101 442.324L374.746 437.913C371.043 439.89 368.267 441.375 365.491 442.86L367.849 447.269ZM358.582 452.222C362.29 450.242 365.07 448.755 367.849 447.269L365.491 442.86C362.712 444.346 359.934 445.832 356.227 447.811L358.582 452.222ZM359.904 482.17V450.016H354.904V482.17H359.904ZM352.784 494.447C355.075 493.226 356.893 491.559 358.122 489.423C359.346 487.295 359.904 484.844 359.904 482.17H354.904C354.904 484.144 354.496 485.699 353.788 486.929C353.085 488.151 352.005 489.196 350.432 490.034L352.784 494.447ZM349.108 492.232V492.241H354.108V492.232H349.108ZM359.585 415.311V386.065H354.585V415.311H359.585ZM370.398 405.36L355.907 413.106L358.264 417.516L372.755 409.769L370.398 405.36ZM375.365 400.472C374.681 402.213 373.164 403.875 370.394 405.362L372.759 409.767C376.205 407.918 378.77 405.479 380.019 402.299L375.365 400.472ZM376.641 394.021C376.641 396.146 376.225 398.288 375.366 400.469L380.018 402.302C381.09 399.58 381.641 396.818 381.641 394.021H376.641ZM376.641 383.759V394.021H381.641V383.759H376.641ZM375.655 379.303C376.196 380.063 376.641 381.434 376.641 383.759H381.641C381.641 380.926 381.12 378.36 379.729 376.404L375.655 379.303ZM372.759 380.521C374.196 379.75 375.12 379.482 375.627 379.444C375.853 379.427 375.897 379.464 375.837 379.44C375.754 379.406 375.683 379.342 375.655 379.303L379.729 376.404C378.616 374.841 376.91 374.332 375.248 374.458C373.715 374.575 372.065 375.219 370.394 376.115L372.759 380.521ZM358.264 388.27L372.755 380.523L370.398 376.113L355.907 383.86L358.264 388.27Z" fill="white"/>
</svg>
