<svg width="634" height="634" viewBox="0 0 634 634" fill="none" xmlns="http://www.w3.org/2000/svg">
<rect width="634" height="634" rx="100" fill="white"/>
<path d="M288.12 226.026C306.366 236.273 328.634 236.273 346.88 226.026L444.457 171.226C450.539 167.81 457.961 167.81 464.043 171.226L559.95 225.088C573.559 232.731 573.559 252.322 559.95 259.964L327.293 390.627C321.211 394.042 313.789 394.042 307.707 390.627L75.0502 259.964C61.4415 252.322 61.4415 232.731 75.0502 225.088L170.957 171.226C177.039 167.81 184.461 167.81 190.543 171.226L288.12 226.026Z" fill="#3FA847"/>
<path d="M287.49 107.335C306.059 96.6085 328.941 96.6085 347.51 107.335L399.092 137.129C412.421 144.828 412.421 164.067 399.092 171.766L347.51 201.561C328.941 212.287 306.059 212.287 287.49 201.561L235.907 171.766C222.579 164.067 222.579 144.828 235.907 137.129L287.49 107.335Z" fill="#C0C054"/>
<path d="M318.153 421.402L144.821 328.759C140.527 326.463 135.339 329.572 135.339 334.446V443.121C135.339 445.498 136.652 447.681 138.747 448.809L318.153 544.699L497.559 448.809C499.654 447.689 500.967 445.506 500.967 443.121V334.446C500.967 329.58 495.779 326.471 491.485 328.759L318.153 421.402Z" fill="#2E4934" stroke="#2E4934" stroke-width="14" stroke-miterlimit="10"/>
<path d="M188.427 475.353C172.436 466.806 156.453 458.266 140.461 449.719C137.046 447.89 135.338 444.926 135.338 440.817V329.862C135.338 325.754 137.046 324.61 140.461 326.439C156.453 334.986 172.436 343.525 188.427 352.073C198.553 357.559 208.663 364.874 214.899 374.782C220.642 383.91 223.672 394.898 223.438 405.717V459.144C223.688 466.701 222.221 477.617 214.899 480.952C206.52 484.762 196.402 479.115 188.427 475.361V475.353ZM167.65 373.663V431.883C174.425 435.5 177.809 437.313 184.584 440.938C189.039 443.323 191.27 441.719 191.27 436.12V394.511C191.27 389.033 189.039 385.102 184.584 382.717C177.809 379.1 174.425 377.288 167.65 373.663Z" fill="white"/>
<path d="M244.359 505.241C240.943 503.412 239.235 500.447 239.235 496.339V475.965C239.235 471.857 240.943 470.713 244.359 472.541C249.998 475.554 252.81 477.061 258.449 480.074V422.538C252.81 419.525 249.998 418.019 244.359 415.006C240.943 413.177 239.235 410.212 239.235 406.104V385.384C239.235 381.275 240.943 380.132 244.359 381.96C264.571 392.763 284.776 403.566 304.988 414.361C308.404 416.19 310.112 419.155 310.112 423.263V443.983C310.112 448.092 308.404 449.236 304.988 447.407C299.47 444.458 296.707 442.976 291.18 440.028V497.563C296.699 500.512 299.462 501.994 304.988 504.943C308.404 506.771 310.112 509.736 310.112 513.844V534.218C310.112 538.326 308.404 539.47 304.988 537.642C284.776 526.839 264.571 516.036 244.359 505.233V505.241Z" fill="white"/>
<path d="M354.798 525.099C347.443 529.03 340.088 532.961 332.741 536.893C329.325 538.721 327.617 537.577 327.617 533.469V422.514C327.617 418.405 329.325 415.433 332.741 413.612C347.258 405.854 361.774 398.096 376.291 390.338C384.927 385.722 391.686 383.507 396.576 383.692C401.458 383.878 404.906 385.948 406.896 389.903C408.886 393.859 409.885 399.152 409.885 405.774V427.694C409.885 434.316 408.886 440.672 406.896 446.754C404.906 452.845 401.426 458.597 396.576 464.002C390.865 470.374 383.59 474.717 376.291 479.035C369.742 482.531 366.471 484.287 359.922 487.783V516.205C359.922 520.313 358.214 523.286 354.798 525.107V525.099ZM359.64 431.247V457.106C364.763 454.367 367.325 452.998 372.449 450.259C375.196 448.784 377 446.972 377.854 444.797C378.708 442.63 379.135 440.463 379.135 438.288V429.217C379.135 426.937 378.708 425.197 377.854 423.996C377 422.796 375.196 422.933 372.449 424.407C367.325 427.146 364.763 428.516 359.64 431.255V431.247Z" fill="white"/>
<path d="M495.842 449.719L429.807 485.012C426.391 486.841 424.684 485.697 424.684 481.588V370.634C424.684 366.525 426.391 363.552 429.807 361.732C451.816 349.97 473.833 338.2 495.842 326.439C499.258 324.61 500.966 325.754 500.966 329.862V349.897C500.966 354.006 499.258 356.971 495.842 358.799C482.751 365.8 469.652 372.793 456.561 379.793V392.981C465.809 388.034 475.066 383.096 484.314 378.15C487.73 376.321 489.437 377.465 489.437 381.574V399.893C489.437 404.001 487.73 406.974 484.314 408.795C475.066 413.741 465.809 418.679 456.561 423.626V438.352C469.652 431.351 482.751 424.359 495.842 417.358C499.258 415.529 500.966 416.673 500.966 420.782V440.817C500.966 444.926 499.258 447.89 495.842 449.719Z" fill="white"/>
</svg>
