<svg width="234" height="94" viewBox="0 0 234 94" fill="none" xmlns="http://www.w3.org/2000/svg">
<path d="M5.43 6.07C5.43 6.65 5.23 7.13333 4.83 7.52C4.43667 7.9 3.83333 8.09 3.02 8.09H1.68V11H0.77V4.03H3.02C3.80667 4.03 4.40333 4.22 4.81 4.6C5.22333 4.98 5.43 5.47 5.43 6.07ZM3.02 7.34C3.52667 7.34 3.9 7.23 4.14 7.01C4.38 6.79 4.5 6.47667 4.5 6.07C4.5 5.21 4.00667 4.78 3.02 4.78H1.68V7.34H3.02ZM9.25102 11.09C8.73768 11.09 8.27102 10.9733 7.85102 10.74C7.43768 10.5067 7.11102 10.1767 6.87102 9.75C6.63768 9.31667 6.52102 8.81667 6.52102 8.25C6.52102 7.69 6.64102 7.19667 6.88102 6.77C7.12768 6.33667 7.46102 6.00667 7.88102 5.78C8.30102 5.54667 8.77102 5.43 9.29102 5.43C9.81102 5.43 10.281 5.54667 10.701 5.78C11.121 6.00667 11.451 6.33333 11.691 6.76C11.9377 7.18667 12.061 7.68333 12.061 8.25C12.061 8.81667 11.9343 9.31667 11.681 9.75C11.4343 10.1767 11.0977 10.5067 10.671 10.74C10.2443 10.9733 9.77102 11.09 9.25102 11.09ZM9.25102 10.29C9.57768 10.29 9.88435 10.2133 10.171 10.06C10.4577 9.90667 10.6877 9.67667 10.861 9.37C11.041 9.06333 11.131 8.69 11.131 8.25C11.131 7.81 11.0443 7.43667 10.871 7.13C10.6977 6.82333 10.471 6.59667 10.191 6.45C9.91102 6.29667 9.60768 6.22 9.28102 6.22C8.94768 6.22 8.64102 6.29667 8.36102 6.45C8.08768 6.59667 7.86768 6.82333 7.70102 7.13C7.53435 7.43667 7.45102 7.81 7.45102 8.25C7.45102 8.69667 7.53102 9.07333 7.69102 9.38C7.85768 9.68667 8.07768 9.91667 8.35102 10.07C8.62435 10.2167 8.92435 10.29 9.25102 10.29ZM14.4675 6.41C14.6275 6.09667 14.8542 5.85333 15.1475 5.68C15.4475 5.50667 15.8108 5.42 16.2375 5.42V6.36H15.9975C14.9775 6.36 14.4675 6.91333 14.4675 8.02V11H13.5575V5.52H14.4675V6.41ZM18.698 6.27V9.5C18.698 9.76667 18.7546 9.95667 18.868 10.07C18.9813 10.1767 19.178 10.23 19.458 10.23H20.128V11H19.308C18.8013 11 18.4213 10.8833 18.168 10.65C17.9146 10.4167 17.788 10.0333 17.788 9.5V6.27H17.078V5.52H17.788V4.14H18.698V5.52H20.128V6.27H18.698ZM26.3905 5.52V11H25.4805V10.19C25.3072 10.47 25.0639 10.69 24.7505 10.85C24.4439 11.0033 24.1039 11.08 23.7305 11.08C23.3039 11.08 22.9205 10.9933 22.5805 10.82C22.2405 10.64 21.9705 10.3733 21.7705 10.02C21.5772 9.66667 21.4805 9.23667 21.4805 8.73V5.52H22.3805V8.61C22.3805 9.15 22.5172 9.56667 22.7905 9.86C23.0639 10.1467 23.4372 10.29 23.9105 10.29C24.3972 10.29 24.7805 10.14 25.0605 9.84C25.3405 9.54 25.4805 9.10333 25.4805 8.53V5.52H26.3905ZM30.487 5.43C30.9604 5.43 31.3737 5.53333 31.727 5.74C32.087 5.94667 32.3537 6.20667 32.527 6.52V5.52H33.447V11.12C33.447 11.62 33.3404 12.0633 33.127 12.45C32.9137 12.8433 32.607 13.15 32.207 13.37C31.8137 13.59 31.3537 13.7 30.827 13.7C30.107 13.7 29.507 13.53 29.027 13.19C28.547 12.85 28.2637 12.3867 28.177 11.8H29.077C29.177 12.1333 29.3837 12.4 29.697 12.6C30.0104 12.8067 30.387 12.91 30.827 12.91C31.327 12.91 31.7337 12.7533 32.047 12.44C32.367 12.1267 32.527 11.6867 32.527 11.12V9.97C32.347 10.29 32.0804 10.5567 31.727 10.77C31.3737 10.9833 30.9604 11.09 30.487 11.09C30.0004 11.09 29.557 10.97 29.157 10.73C28.7637 10.49 28.4537 10.1533 28.227 9.72C28.0004 9.28667 27.887 8.79333 27.887 8.24C27.887 7.68 28.0004 7.19 28.227 6.77C28.4537 6.34333 28.7637 6.01333 29.157 5.78C29.557 5.54667 30.0004 5.43 30.487 5.43ZM32.527 8.25C32.527 7.83667 32.4437 7.47667 32.277 7.17C32.1104 6.86333 31.8837 6.63 31.597 6.47C31.317 6.30333 31.007 6.22 30.667 6.22C30.327 6.22 30.017 6.3 29.737 6.46C29.457 6.62 29.2337 6.85333 29.067 7.16C28.9004 7.46667 28.817 7.82667 28.817 8.24C28.817 8.66 28.9004 9.02667 29.067 9.34C29.2337 9.64667 29.457 9.88333 29.737 10.05C30.017 10.21 30.327 10.29 30.667 10.29C31.007 10.29 31.317 10.21 31.597 10.05C31.8837 9.88333 32.1104 9.64667 32.277 9.34C32.4437 9.02667 32.527 8.66333 32.527 8.25ZM40.1448 5.52V11H39.2348V10.19C39.0615 10.47 38.8182 10.69 38.5048 10.85C38.1982 11.0033 37.8582 11.08 37.4848 11.08C37.0582 11.08 36.6748 10.9933 36.3348 10.82C35.9948 10.64 35.7248 10.3733 35.5248 10.02C35.3315 9.66667 35.2348 9.23667 35.2348 8.73V5.52H36.1348V8.61C36.1348 9.15 36.2715 9.56667 36.5448 9.86C36.8182 10.1467 37.1915 10.29 37.6648 10.29C38.1515 10.29 38.5348 10.14 38.8148 9.84C39.0948 9.54 39.2348 9.10333 39.2348 8.53V5.52H40.1448ZM46.9813 8.05C46.9813 8.22333 46.9713 8.40667 46.9513 8.6H42.5713C42.6047 9.14 42.788 9.56333 43.1213 9.87C43.4613 10.17 43.8713 10.32 44.3513 10.32C44.7447 10.32 45.0713 10.23 45.3313 10.05C45.598 9.86333 45.7847 9.61667 45.8913 9.31H46.8713C46.7247 9.83667 46.4313 10.2667 45.9913 10.6C45.5513 10.9267 45.0047 11.09 44.3513 11.09C43.8313 11.09 43.3647 10.9733 42.9513 10.74C42.5447 10.5067 42.2247 10.1767 41.9913 9.75C41.758 9.31667 41.6413 8.81667 41.6413 8.25C41.6413 7.68333 41.7547 7.18667 41.9813 6.76C42.208 6.33333 42.5247 6.00667 42.9313 5.78C43.3447 5.54667 43.818 5.43 44.3513 5.43C44.8713 5.43 45.3313 5.54333 45.7313 5.77C46.1313 5.99667 46.438 6.31 46.6513 6.71C46.8713 7.10333 46.9813 7.55 46.9813 8.05ZM46.0413 7.86C46.0413 7.51333 45.9647 7.21667 45.8113 6.97C45.658 6.71667 45.448 6.52667 45.1813 6.4C44.9213 6.26667 44.6313 6.2 44.3113 6.2C43.8513 6.2 43.458 6.34667 43.1313 6.64C42.8113 6.93333 42.628 7.34 42.5813 7.86H46.0413ZM44.3213 4.18L42.9313 5.03V4.31L44.3213 3.48L45.7013 4.31V5.03L44.3213 4.18ZM50.4225 11.09C50.0025 11.09 49.6258 11.02 49.2925 10.88C48.9592 10.7333 48.6958 10.5333 48.5025 10.28C48.3092 10.02 48.2025 9.72333 48.1825 9.39H49.1225C49.1492 9.66333 49.2758 9.88667 49.5025 10.06C49.7358 10.2333 50.0392 10.32 50.4125 10.32C50.7592 10.32 51.0325 10.2433 51.2325 10.09C51.4325 9.93667 51.5325 9.74333 51.5325 9.51C51.5325 9.27 51.4258 9.09333 51.2125 8.98C50.9992 8.86 50.6692 8.74333 50.2225 8.63C49.8158 8.52333 49.4825 8.41667 49.2225 8.31C48.9692 8.19667 48.7492 8.03333 48.5625 7.82C48.3825 7.6 48.2925 7.31333 48.2925 6.96C48.2925 6.68 48.3758 6.42333 48.5425 6.19C48.7092 5.95667 48.9458 5.77333 49.2525 5.64C49.5592 5.5 49.9092 5.43 50.3025 5.43C50.9092 5.43 51.3992 5.58333 51.7725 5.89C52.1458 6.19667 52.3458 6.61667 52.3725 7.15H51.4625C51.4425 6.86333 51.3258 6.63333 51.1125 6.46C50.9058 6.28667 50.6258 6.2 50.2725 6.2C49.9458 6.2 49.6858 6.27 49.4925 6.41C49.2992 6.55 49.2025 6.73333 49.2025 6.96C49.2025 7.14 49.2592 7.29 49.3725 7.41C49.4925 7.52333 49.6392 7.61667 49.8125 7.69C49.9925 7.75667 50.2392 7.83333 50.5525 7.92C50.9458 8.02667 51.2658 8.13333 51.5125 8.24C51.7592 8.34 51.9692 8.49333 52.1425 8.7C52.3225 8.90667 52.4158 9.17667 52.4225 9.51C52.4225 9.81 52.3392 10.08 52.1725 10.32C52.0058 10.56 51.7692 10.75 51.4625 10.89C51.1625 11.0233 50.8158 11.09 50.4225 11.09Z" fill="#555555"/>
<path d="M213.968 8.14C213.302 7.79333 212.968 7.25667 212.968 6.53C212.968 6.17 213.058 5.84333 213.238 5.55C213.425 5.25 213.702 5.01333 214.068 4.84C214.442 4.66 214.895 4.57 215.428 4.57C215.962 4.57 216.412 4.66 216.778 4.84C217.152 5.01333 217.428 5.25 217.608 5.55C217.795 5.84333 217.888 6.17 217.888 6.53C217.888 6.89667 217.798 7.22 217.618 7.5C217.438 7.77333 217.198 7.98667 216.898 8.14C217.265 8.3 217.552 8.53333 217.758 8.84C217.965 9.14667 218.068 9.51 218.068 9.93C218.068 10.3833 217.952 10.78 217.718 11.12C217.492 11.4533 217.178 11.71 216.778 11.89C216.378 12.07 215.928 12.16 215.428 12.16C214.928 12.16 214.478 12.07 214.078 11.89C213.685 11.71 213.372 11.4533 213.138 11.12C212.912 10.78 212.798 10.3833 212.798 9.93C212.798 9.51 212.902 9.14667 213.108 8.84C213.315 8.52667 213.602 8.29333 213.968 8.14ZM216.528 6.73C216.528 6.40333 216.428 6.15 216.228 5.97C216.035 5.79 215.768 5.7 215.428 5.7C215.095 5.7 214.828 5.79 214.628 5.97C214.435 6.15 214.338 6.40667 214.338 6.74C214.338 7.04 214.438 7.28 214.638 7.46C214.845 7.64 215.108 7.73 215.428 7.73C215.748 7.73 216.012 7.64 216.218 7.46C216.425 7.27333 216.528 7.03 216.528 6.73ZM215.428 8.75C215.048 8.75 214.738 8.84667 214.498 9.04C214.265 9.23333 214.148 9.51 214.148 9.87C214.148 10.2033 214.262 10.4767 214.488 10.69C214.722 10.8967 215.035 11 215.428 11C215.822 11 216.132 10.8933 216.358 10.68C216.585 10.4667 216.698 10.1967 216.698 9.87C216.698 9.51667 216.582 9.24333 216.348 9.05C216.115 8.85 215.808 8.75 215.428 8.75ZM219.474 8.26C219.474 7.10667 219.681 6.20333 220.094 5.55C220.514 4.89667 221.207 4.57 222.174 4.57C223.141 4.57 223.831 4.89667 224.244 5.55C224.664 6.20333 224.874 7.10667 224.874 8.26C224.874 9.42 224.664 10.33 224.244 10.99C223.831 11.65 223.141 11.98 222.174 11.98C221.207 11.98 220.514 11.65 220.094 10.99C219.681 10.33 219.474 9.42 219.474 8.26ZM223.494 8.26C223.494 7.76667 223.461 7.35333 223.394 7.02C223.334 6.68 223.207 6.40333 223.014 6.19C222.827 5.97667 222.547 5.87 222.174 5.87C221.801 5.87 221.517 5.97667 221.324 6.19C221.137 6.40333 221.011 6.68 220.944 7.02C220.884 7.35333 220.854 7.76667 220.854 8.26C220.854 8.76667 220.884 9.19333 220.944 9.54C221.004 9.88 221.131 10.1567 221.324 10.37C221.517 10.5767 221.801 10.68 222.174 10.68C222.547 10.68 222.831 10.5767 223.024 10.37C223.217 10.1567 223.344 9.88 223.404 9.54C223.464 9.19333 223.494 8.76667 223.494 8.26ZM226.079 6.5C226.079 5.99333 226.226 5.59667 226.519 5.31C226.819 5.02333 227.202 4.88 227.669 4.88C228.136 4.88 228.516 5.02333 228.809 5.31C229.109 5.59667 229.259 5.99333 229.259 6.5C229.259 7.01333 229.109 7.41333 228.809 7.7C228.516 7.98667 228.136 8.13 227.669 8.13C227.202 8.13 226.819 7.98667 226.519 7.7C226.226 7.41333 226.079 7.01333 226.079 6.5ZM232.499 5L228.569 12H227.209L231.129 5H232.499ZM227.659 5.72C227.292 5.72 227.109 5.98 227.109 6.5C227.109 7.02667 227.292 7.29 227.659 7.29C227.839 7.29 227.979 7.22667 228.079 7.1C228.179 6.96667 228.229 6.76667 228.229 6.5C228.229 5.98 228.039 5.72 227.659 5.72ZM230.469 10.49C230.469 9.97667 230.616 9.58 230.909 9.3C231.209 9.01333 231.592 8.87 232.059 8.87C232.526 8.87 232.902 9.01333 233.189 9.3C233.482 9.58 233.629 9.97667 233.629 10.49C233.629 11.0033 233.482 11.4033 233.189 11.69C232.902 11.9767 232.526 12.12 232.059 12.12C231.586 12.12 231.202 11.9767 230.909 11.69C230.616 11.4033 230.469 11.0033 230.469 10.49ZM232.049 9.71C231.669 9.71 231.479 9.97 231.479 10.49C231.479 11.0167 231.669 11.28 232.049 11.28C232.422 11.28 232.609 11.0167 232.609 10.49C232.609 9.97 232.422 9.71 232.049 9.71Z" fill="#555555"/>
<rect y="15" width="234" height="7" rx="3.5" fill="#C4C4C4"/>
<rect y="15" width="193" height="7" rx="3.5" fill="#7E78D2"/>
<path d="M219.058 40.77L216.398 47H214.978L217.658 40.93H214.238V39.73H219.058V40.77ZM220.637 45.42C221.277 44.8867 221.787 44.4433 222.167 44.09C222.547 43.73 222.863 43.3567 223.117 42.97C223.37 42.5833 223.497 42.2033 223.497 41.83C223.497 41.49 223.417 41.2233 223.257 41.03C223.097 40.8367 222.85 40.74 222.517 40.74C222.183 40.74 221.927 40.8533 221.747 41.08C221.567 41.3 221.473 41.6033 221.467 41.99H220.107C220.133 41.19 220.37 40.5833 220.817 40.17C221.27 39.7567 221.843 39.55 222.537 39.55C223.297 39.55 223.88 39.7533 224.287 40.16C224.693 40.56 224.897 41.09 224.897 41.75C224.897 42.27 224.757 42.7667 224.477 43.24C224.197 43.7133 223.877 44.1267 223.517 44.48C223.157 44.8267 222.687 45.2467 222.107 45.74H225.057V46.9H220.117V45.86L220.637 45.42ZM226.079 41.5C226.079 40.9933 226.226 40.5967 226.519 40.31C226.819 40.0233 227.202 39.88 227.669 39.88C228.136 39.88 228.516 40.0233 228.809 40.31C229.109 40.5967 229.259 40.9933 229.259 41.5C229.259 42.0133 229.109 42.4133 228.809 42.7C228.516 42.9867 228.136 43.13 227.669 43.13C227.202 43.13 226.819 42.9867 226.519 42.7C226.226 42.4133 226.079 42.0133 226.079 41.5ZM232.499 40L228.569 47H227.209L231.129 40H232.499ZM227.659 40.72C227.292 40.72 227.109 40.98 227.109 41.5C227.109 42.0267 227.292 42.29 227.659 42.29C227.839 42.29 227.979 42.2267 228.079 42.1C228.179 41.9667 228.229 41.7667 228.229 41.5C228.229 40.98 228.039 40.72 227.659 40.72ZM230.469 45.49C230.469 44.9767 230.616 44.58 230.909 44.3C231.209 44.0133 231.592 43.87 232.059 43.87C232.526 43.87 232.902 44.0133 233.189 44.3C233.482 44.58 233.629 44.9767 233.629 45.49C233.629 46.0033 233.482 46.4033 233.189 46.69C232.902 46.9767 232.526 47.12 232.059 47.12C231.586 47.12 231.202 46.9767 230.909 46.69C230.616 46.4033 230.469 46.0033 230.469 45.49ZM232.049 44.71C231.669 44.71 231.479 44.97 231.479 45.49C231.479 46.0167 231.669 46.28 232.049 46.28C232.422 46.28 232.609 46.0167 232.609 45.49C232.609 44.97 232.422 44.71 232.049 44.71Z" fill="#555555"/>
<path d="M7.84 40.08V47H6.93V41.84L4.63 47H3.99L1.68 41.83V47H0.77V40.08H1.75L4.31 45.8L6.87 40.08H7.84ZM9.34328 44.24C9.34328 43.68 9.45661 43.19 9.68328 42.77C9.90995 42.3433 10.2199 42.0133 10.6133 41.78C11.0133 41.5467 11.4566 41.43 11.9433 41.43C12.4233 41.43 12.8399 41.5333 13.1933 41.74C13.5466 41.9467 13.8099 42.2067 13.9833 42.52V41.52H14.9033V47H13.9833V45.98C13.8033 46.3 13.5333 46.5667 13.1733 46.78C12.8199 46.9867 12.4066 47.09 11.9333 47.09C11.4466 47.09 11.0066 46.97 10.6133 46.73C10.2199 46.49 9.90995 46.1533 9.68328 45.72C9.45661 45.2867 9.34328 44.7933 9.34328 44.24ZM13.9833 44.25C13.9833 43.8367 13.8999 43.4767 13.7333 43.17C13.5666 42.8633 13.3399 42.63 13.0533 42.47C12.7733 42.3033 12.4633 42.22 12.1233 42.22C11.7833 42.22 11.4733 42.3 11.1933 42.46C10.9133 42.62 10.6899 42.8533 10.5233 43.16C10.3566 43.4667 10.2733 43.8267 10.2733 44.24C10.2733 44.66 10.3566 45.0267 10.5233 45.34C10.6899 45.6467 10.9133 45.8833 11.1933 46.05C11.4733 46.21 11.7833 46.29 12.1233 46.29C12.4633 46.29 12.7733 46.21 13.0533 46.05C13.3399 45.8833 13.5666 45.6467 13.7333 45.34C13.8999 45.0267 13.9833 44.6633 13.9833 44.25ZM17.8511 42.27V45.5C17.8511 45.7667 17.9078 45.9567 18.0211 46.07C18.1344 46.1767 18.3311 46.23 18.6111 46.23H19.2811V47H18.4611C17.9544 47 17.5744 46.8833 17.3211 46.65C17.0678 46.4167 16.9411 46.0333 16.9411 45.5V42.27H16.2311V41.52H16.9411V40.14H17.8511V41.52H19.2811V42.27H17.8511ZM25.6837 44.05C25.6837 44.2233 25.6737 44.4067 25.6537 44.6H21.2737C21.307 45.14 21.4903 45.5633 21.8237 45.87C22.1637 46.17 22.5737 46.32 23.0537 46.32C23.447 46.32 23.7737 46.23 24.0337 46.05C24.3003 45.8633 24.487 45.6167 24.5937 45.31H25.5737C25.427 45.8367 25.1337 46.2667 24.6937 46.6C24.2537 46.9267 23.707 47.09 23.0537 47.09C22.5337 47.09 22.067 46.9733 21.6537 46.74C21.247 46.5067 20.927 46.1767 20.6937 45.75C20.4603 45.3167 20.3437 44.8167 20.3437 44.25C20.3437 43.6833 20.457 43.1867 20.6837 42.76C20.9103 42.3333 21.227 42.0067 21.6337 41.78C22.047 41.5467 22.5203 41.43 23.0537 41.43C23.5737 41.43 24.0337 41.5433 24.4337 41.77C24.8337 41.9967 25.1403 42.31 25.3537 42.71C25.5737 43.1033 25.6837 43.55 25.6837 44.05ZM24.7437 43.86C24.7437 43.5133 24.667 43.2167 24.5137 42.97C24.3603 42.7167 24.1503 42.5267 23.8837 42.4C23.6237 42.2667 23.3337 42.2 23.0137 42.2C22.5537 42.2 22.1603 42.3467 21.8337 42.64C21.5137 42.9333 21.3303 43.34 21.2837 43.86H24.7437ZM33.7748 41.42C34.2015 41.42 34.5815 41.51 34.9148 41.69C35.2482 41.8633 35.5115 42.1267 35.7048 42.48C35.8982 42.8333 35.9948 43.2633 35.9948 43.77V47H35.0948V43.9C35.0948 43.3533 34.9582 42.9367 34.6848 42.65C34.4182 42.3567 34.0548 42.21 33.5948 42.21C33.1215 42.21 32.7448 42.3633 32.4648 42.67C32.1848 42.97 32.0448 43.4067 32.0448 43.98V47H31.1448V43.9C31.1448 43.3533 31.0082 42.9367 30.7348 42.65C30.4682 42.3567 30.1048 42.21 29.6448 42.21C29.1715 42.21 28.7948 42.3633 28.5148 42.67C28.2348 42.97 28.0948 43.4067 28.0948 43.98V47H27.1848V41.52H28.0948V42.31C28.2748 42.0233 28.5148 41.8033 28.8148 41.65C29.1215 41.4967 29.4582 41.42 29.8248 41.42C30.2848 41.42 30.6915 41.5233 31.0448 41.73C31.3982 41.9367 31.6615 42.24 31.8348 42.64C31.9882 42.2533 32.2415 41.9533 32.5948 41.74C32.9482 41.5267 33.3415 41.42 33.7748 41.42ZM37.4476 44.24C37.4476 43.68 37.5609 43.19 37.7876 42.77C38.0142 42.3433 38.3242 42.0133 38.7176 41.78C39.1176 41.5467 39.5609 41.43 40.0476 41.43C40.5276 41.43 40.9442 41.5333 41.2976 41.74C41.6509 41.9467 41.9142 42.2067 42.0876 42.52V41.52H43.0076V47H42.0876V45.98C41.9076 46.3 41.6376 46.5667 41.2776 46.78C40.9242 46.9867 40.5109 47.09 40.0376 47.09C39.5509 47.09 39.1109 46.97 38.7176 46.73C38.3242 46.49 38.0142 46.1533 37.7876 45.72C37.5609 45.2867 37.4476 44.7933 37.4476 44.24ZM42.0876 44.25C42.0876 43.8367 42.0042 43.4767 41.8376 43.17C41.6709 42.8633 41.4442 42.63 41.1576 42.47C40.8776 42.3033 40.5676 42.22 40.2276 42.22C39.8876 42.22 39.5776 42.3 39.2976 42.46C39.0176 42.62 38.7942 42.8533 38.6276 43.16C38.4609 43.4667 38.3776 43.8267 38.3776 44.24C38.3776 44.66 38.4609 45.0267 38.6276 45.34C38.7942 45.6467 39.0176 45.8833 39.2976 46.05C39.5776 46.21 39.8876 46.29 40.2276 46.29C40.5676 46.29 40.8776 46.21 41.1576 46.05C41.4442 45.8833 41.6709 45.6467 41.8376 45.34C42.0042 45.0267 42.0876 44.6633 42.0876 44.25ZM41.3776 39.97L39.2476 41.11V40.43L41.3776 39.18V39.97ZM45.9554 42.27V45.5C45.9554 45.7667 46.0121 45.9567 46.1254 46.07C46.2387 46.1767 46.4354 46.23 46.7154 46.23H47.3854V47H46.5654C46.0587 47 45.6787 46.8833 45.4254 46.65C45.1721 46.4167 45.0454 46.0333 45.0454 45.5V42.27H44.3354V41.52H45.0454V40.14H45.9554V41.52H47.3854V42.27H45.9554ZM49.258 40.63C49.0846 40.63 48.938 40.57 48.818 40.45C48.698 40.33 48.638 40.1833 48.638 40.01C48.638 39.8367 48.698 39.69 48.818 39.57C48.938 39.45 49.0846 39.39 49.258 39.39C49.4246 39.39 49.5646 39.45 49.678 39.57C49.798 39.69 49.858 39.8367 49.858 40.01C49.858 40.1833 49.798 40.33 49.678 40.45C49.5646 40.57 49.4246 40.63 49.258 40.63ZM49.698 41.52V47H48.788V41.52H49.698ZM51.2089 44.25C51.2089 43.6833 51.3222 43.19 51.5489 42.77C51.7756 42.3433 52.0889 42.0133 52.4889 41.78C52.8956 41.5467 53.3589 41.43 53.8789 41.43C54.5522 41.43 55.1056 41.5933 55.5389 41.92C55.9789 42.2467 56.2689 42.7 56.4089 43.28H55.4289C55.3356 42.9467 55.1522 42.6833 54.8789 42.49C54.6122 42.2967 54.2789 42.2 53.8789 42.2C53.3589 42.2 52.9389 42.38 52.6189 42.74C52.2989 43.0933 52.1389 43.5967 52.1389 44.25C52.1389 44.91 52.2989 45.42 52.6189 45.78C52.9389 46.14 53.3589 46.32 53.8789 46.32C54.2789 46.32 54.6122 46.2267 54.8789 46.04C55.1456 45.8533 55.3289 45.5867 55.4289 45.24H56.4089C56.2622 45.8 55.9689 46.25 55.5289 46.59C55.0889 46.9233 54.5389 47.09 53.8789 47.09C53.3589 47.09 52.8956 46.9733 52.4889 46.74C52.0889 46.5067 51.7756 46.1767 51.5489 45.75C51.3222 45.3233 51.2089 44.8233 51.2089 44.25ZM57.5831 44.24C57.5831 43.68 57.6965 43.19 57.9231 42.77C58.1498 42.3433 58.4598 42.0133 58.8531 41.78C59.2531 41.5467 59.6965 41.43 60.1831 41.43C60.6631 41.43 61.0798 41.5333 61.4331 41.74C61.7865 41.9467 62.0498 42.2067 62.2231 42.52V41.52H63.1431V47H62.2231V45.98C62.0431 46.3 61.7731 46.5667 61.4131 46.78C61.0598 46.9867 60.6465 47.09 60.1731 47.09C59.6865 47.09 59.2465 46.97 58.8531 46.73C58.4598 46.49 58.1498 46.1533 57.9231 45.72C57.6965 45.2867 57.5831 44.7933 57.5831 44.24ZM62.2231 44.25C62.2231 43.8367 62.1398 43.4767 61.9731 43.17C61.8065 42.8633 61.5798 42.63 61.2931 42.47C61.0131 42.3033 60.7031 42.22 60.3631 42.22C60.0231 42.22 59.7131 42.3 59.4331 42.46C59.1531 42.62 58.9298 42.8533 58.7631 43.16C58.5965 43.4667 58.5131 43.8267 58.5131 44.24C58.5131 44.66 58.5965 45.0267 58.7631 45.34C58.9298 45.6467 59.1531 45.8833 59.4331 46.05C59.7131 46.21 60.0231 46.29 60.3631 46.29C60.7031 46.29 61.0131 46.21 61.2931 46.05C61.5798 45.8833 61.8065 45.6467 61.9731 45.34C62.1398 45.0267 62.2231 44.6633 62.2231 44.25Z" fill="#555555"/>
<rect y="51" width="234" height="7" rx="3.5" fill="#C4C4C4"/>
<rect y="51" width="161" height="7" rx="3.5" fill="#0FA3B1"/>
<path d="M215.381 78V76.71H217.791V84H216.351V78H215.381ZM219.474 80.26C219.474 79.1067 219.681 78.2033 220.094 77.55C220.514 76.8967 221.207 76.57 222.174 76.57C223.141 76.57 223.831 76.8967 224.244 77.55C224.664 78.2033 224.874 79.1067 224.874 80.26C224.874 81.42 224.664 82.33 224.244 82.99C223.831 83.65 223.141 83.98 222.174 83.98C221.207 83.98 220.514 83.65 220.094 82.99C219.681 82.33 219.474 81.42 219.474 80.26ZM223.494 80.26C223.494 79.7667 223.461 79.3533 223.394 79.02C223.334 78.68 223.207 78.4033 223.014 78.19C222.827 77.9767 222.547 77.87 222.174 77.87C221.801 77.87 221.517 77.9767 221.324 78.19C221.137 78.4033 221.011 78.68 220.944 79.02C220.884 79.3533 220.854 79.7667 220.854 80.26C220.854 80.7667 220.884 81.1933 220.944 81.54C221.004 81.88 221.131 82.1567 221.324 82.37C221.517 82.5767 221.801 82.68 222.174 82.68C222.547 82.68 222.831 82.5767 223.024 82.37C223.217 82.1567 223.344 81.88 223.404 81.54C223.464 81.1933 223.494 80.7667 223.494 80.26ZM226.079 78.5C226.079 77.9933 226.226 77.5967 226.519 77.31C226.819 77.0233 227.202 76.88 227.669 76.88C228.136 76.88 228.516 77.0233 228.809 77.31C229.109 77.5967 229.259 77.9933 229.259 78.5C229.259 79.0133 229.109 79.4133 228.809 79.7C228.516 79.9867 228.136 80.13 227.669 80.13C227.202 80.13 226.819 79.9867 226.519 79.7C226.226 79.4133 226.079 79.0133 226.079 78.5ZM232.499 77L228.569 84H227.209L231.129 77H232.499ZM227.659 77.72C227.292 77.72 227.109 77.98 227.109 78.5C227.109 79.0267 227.292 79.29 227.659 79.29C227.839 79.29 227.979 79.2267 228.079 79.1C228.179 78.9667 228.229 78.7667 228.229 78.5C228.229 77.98 228.039 77.72 227.659 77.72ZM230.469 82.49C230.469 81.9767 230.616 81.58 230.909 81.3C231.209 81.0133 231.592 80.87 232.059 80.87C232.526 80.87 232.902 81.0133 233.189 81.3C233.482 81.58 233.629 81.9767 233.629 82.49C233.629 83.0033 233.482 83.4033 233.189 83.69C232.902 83.9767 232.526 84.12 232.059 84.12C231.586 84.12 231.202 83.9767 230.909 83.69C230.616 83.4033 230.469 83.0033 230.469 82.49ZM232.049 81.71C231.669 81.71 231.479 81.97 231.479 82.49C231.479 83.0167 231.669 83.28 232.049 83.28C232.422 83.28 232.609 83.0167 232.609 82.49C232.609 81.97 232.422 81.71 232.049 81.71Z" fill="#555555"/>
<path d="M0.43 79.51C0.43 78.83 0.583333 78.22 0.89 77.68C1.19667 77.1333 1.61333 76.7067 2.14 76.4C2.67333 76.0933 3.26333 75.94 3.91 75.94C4.67 75.94 5.33333 76.1233 5.9 76.49C6.46667 76.8567 6.88 77.3767 7.14 78.05H6.05C5.85667 77.63 5.57667 77.3067 5.21 77.08C4.85 76.8533 4.41667 76.74 3.91 76.74C3.42333 76.74 2.98667 76.8533 2.6 77.08C2.21333 77.3067 1.91 77.63 1.69 78.05C1.47 78.4633 1.36 78.95 1.36 79.51C1.36 80.0633 1.47 80.55 1.69 80.97C1.91 81.3833 2.21333 81.7033 2.6 81.93C2.98667 82.1567 3.42333 82.27 3.91 82.27C4.41667 82.27 4.85 82.16 5.21 81.94C5.57667 81.7133 5.85667 81.39 6.05 80.97H7.14C6.88 81.6367 6.46667 82.1533 5.9 82.52C5.33333 82.88 4.67 83.06 3.91 83.06C3.26333 83.06 2.67333 82.91 2.14 82.61C1.61333 82.3033 1.19667 81.88 0.89 81.34C0.583333 80.8 0.43 80.19 0.43 79.51ZM9.26461 76.63C9.09128 76.63 8.94461 76.57 8.82461 76.45C8.70461 76.33 8.64461 76.1833 8.64461 76.01C8.64461 75.8367 8.70461 75.69 8.82461 75.57C8.94461 75.45 9.09128 75.39 9.26461 75.39C9.43128 75.39 9.57128 75.45 9.68461 75.57C9.80461 75.69 9.86461 75.8367 9.86461 76.01C9.86461 76.1833 9.80461 76.33 9.68461 76.45C9.57128 76.57 9.43128 76.63 9.26461 76.63ZM9.70461 77.52V83H8.79461V77.52H9.70461ZM16.5555 80.05C16.5555 80.2233 16.5455 80.4067 16.5255 80.6H12.1455C12.1789 81.14 12.3622 81.5633 12.6955 81.87C13.0355 82.17 13.4455 82.32 13.9255 82.32C14.3189 82.32 14.6455 82.23 14.9055 82.05C15.1722 81.8633 15.3589 81.6167 15.4655 81.31H16.4455C16.2989 81.8367 16.0055 82.2667 15.5655 82.6C15.1255 82.9267 14.5789 83.09 13.9255 83.09C13.4055 83.09 12.9389 82.9733 12.5255 82.74C12.1189 82.5067 11.7989 82.1767 11.5655 81.75C11.3322 81.3167 11.2155 80.8167 11.2155 80.25C11.2155 79.6833 11.3289 79.1867 11.5555 78.76C11.7822 78.3333 12.0989 78.0067 12.5055 77.78C12.9189 77.5467 13.3922 77.43 13.9255 77.43C14.4455 77.43 14.9055 77.5433 15.3055 77.77C15.7055 77.9967 16.0122 78.31 16.2255 78.71C16.4455 79.1033 16.5555 79.55 16.5555 80.05ZM15.6155 79.86C15.6155 79.5133 15.5389 79.2167 15.3855 78.97C15.2322 78.7167 15.0222 78.5267 14.7555 78.4C14.4955 78.2667 14.2055 78.2 13.8855 78.2C13.4255 78.2 13.0322 78.3467 12.7055 78.64C12.3855 78.9333 12.2022 79.34 12.1555 79.86H15.6155ZM13.8955 76.18L12.5055 77.03V76.31L13.8955 75.48L15.2755 76.31V77.03L13.8955 76.18ZM20.7267 77.42C21.3934 77.42 21.9334 77.6233 22.3467 78.03C22.7601 78.43 22.9667 79.01 22.9667 79.77V83H22.0667V79.9C22.0667 79.3533 21.9301 78.9367 21.6567 78.65C21.3834 78.3567 21.0101 78.21 20.5367 78.21C20.0567 78.21 19.6734 78.36 19.3867 78.66C19.1067 78.96 18.9667 79.3967 18.9667 79.97V83H18.0567V77.52H18.9667V78.3C19.1467 78.02 19.3901 77.8033 19.6967 77.65C20.0101 77.4967 20.3534 77.42 20.7267 77.42ZM24.4132 80.25C24.4132 79.6833 24.5265 79.19 24.7532 78.77C24.9799 78.3433 25.2932 78.0133 25.6932 77.78C26.0999 77.5467 26.5632 77.43 27.0832 77.43C27.7565 77.43 28.3099 77.5933 28.7432 77.92C29.1832 78.2467 29.4732 78.7 29.6132 79.28H28.6332C28.5399 78.9467 28.3565 78.6833 28.0832 78.49C27.8165 78.2967 27.4832 78.2 27.0832 78.2C26.5632 78.2 26.1432 78.38 25.8232 78.74C25.5032 79.0933 25.3432 79.5967 25.3432 80.25C25.3432 80.91 25.5032 81.42 25.8232 81.78C26.1432 82.14 26.5632 82.32 27.0832 82.32C27.4832 82.32 27.8165 82.2267 28.0832 82.04C28.3499 81.8533 28.5332 81.5867 28.6332 81.24H29.6132C29.4665 81.8 29.1732 82.25 28.7332 82.59C28.2932 82.9233 27.7432 83.09 27.0832 83.09C26.5632 83.09 26.0999 82.9733 25.6932 82.74C25.2932 82.5067 24.9799 82.1767 24.7532 81.75C24.5265 81.3233 24.4132 80.8233 24.4132 80.25ZM31.5974 76.63C31.4241 76.63 31.2774 76.57 31.1574 76.45C31.0374 76.33 30.9774 76.1833 30.9774 76.01C30.9774 75.8367 31.0374 75.69 31.1574 75.57C31.2774 75.45 31.4241 75.39 31.5974 75.39C31.7641 75.39 31.9041 75.45 32.0174 75.57C32.1374 75.69 32.1974 75.8367 32.1974 76.01C32.1974 76.1833 32.1374 76.33 32.0174 76.45C31.9041 76.57 31.7641 76.63 31.5974 76.63ZM32.0374 77.52V83H31.1274V77.52H32.0374ZM33.5484 80.24C33.5484 79.68 33.6617 79.19 33.8884 78.77C34.115 78.3433 34.425 78.0133 34.8184 77.78C35.2184 77.5467 35.6617 77.43 36.1484 77.43C36.6284 77.43 37.045 77.5333 37.3984 77.74C37.7517 77.9467 38.015 78.2067 38.1884 78.52V77.52H39.1084V83H38.1884V81.98C38.0084 82.3 37.7384 82.5667 37.3784 82.78C37.025 82.9867 36.6117 83.09 36.1384 83.09C35.6517 83.09 35.2117 82.97 34.8184 82.73C34.425 82.49 34.115 82.1533 33.8884 81.72C33.6617 81.2867 33.5484 80.7933 33.5484 80.24ZM38.1884 80.25C38.1884 79.8367 38.105 79.4767 37.9384 79.17C37.7717 78.8633 37.545 78.63 37.2584 78.47C36.9784 78.3033 36.6684 78.22 36.3284 78.22C35.9884 78.22 35.6784 78.3 35.3984 78.46C35.1184 78.62 34.895 78.8533 34.7284 79.16C34.5617 79.4667 34.4784 79.8267 34.4784 80.24C34.4784 80.66 34.5617 81.0267 34.7284 81.34C34.895 81.6467 35.1184 81.8833 35.3984 82.05C35.6784 82.21 35.9884 82.29 36.3284 82.29C36.6684 82.29 36.9784 82.21 37.2584 82.05C37.545 81.8833 37.7717 81.6467 37.9384 81.34C38.105 81.0267 38.1884 80.6633 38.1884 80.25ZM42.8862 83.09C42.4662 83.09 42.0895 83.02 41.7562 82.88C41.4228 82.7333 41.1595 82.5333 40.9662 82.28C40.7728 82.02 40.6662 81.7233 40.6462 81.39H41.5862C41.6128 81.6633 41.7395 81.8867 41.9662 82.06C42.1995 82.2333 42.5028 82.32 42.8762 82.32C43.2228 82.32 43.4962 82.2433 43.6962 82.09C43.8962 81.9367 43.9962 81.7433 43.9962 81.51C43.9962 81.27 43.8895 81.0933 43.6762 80.98C43.4628 80.86 43.1328 80.7433 42.6862 80.63C42.2795 80.5233 41.9462 80.4167 41.6862 80.31C41.4328 80.1967 41.2128 80.0333 41.0262 79.82C40.8462 79.6 40.7562 79.3133 40.7562 78.96C40.7562 78.68 40.8395 78.4233 41.0062 78.19C41.1728 77.9567 41.4095 77.7733 41.7162 77.64C42.0228 77.5 42.3728 77.43 42.7662 77.43C43.3728 77.43 43.8628 77.5833 44.2362 77.89C44.6095 78.1967 44.8095 78.6167 44.8362 79.15H43.9262C43.9062 78.8633 43.7895 78.6333 43.5762 78.46C43.3695 78.2867 43.0895 78.2 42.7362 78.2C42.4095 78.2 42.1495 78.27 41.9562 78.41C41.7628 78.55 41.6662 78.7333 41.6662 78.96C41.6662 79.14 41.7228 79.29 41.8362 79.41C41.9562 79.5233 42.1028 79.6167 42.2762 79.69C42.4562 79.7567 42.7028 79.8333 43.0162 79.92C43.4095 80.0267 43.7295 80.1333 43.9762 80.24C44.2228 80.34 44.4328 80.4933 44.6062 80.7C44.7862 80.9067 44.8795 81.1767 44.8862 81.51C44.8862 81.81 44.8028 82.08 44.6362 82.32C44.4695 82.56 44.2328 82.75 43.9262 82.89C43.6262 83.0233 43.2795 83.09 42.8862 83.09Z" fill="#555555"/>
<rect y="87" width="234" height="7" rx="3.5" fill="#C4C4C4"/>
<rect y="87" width="53" height="7" rx="3.5" fill="#FE938C"/>
</svg>
