<svg width="115" height="128" viewBox="0 0 115 128" fill="none" xmlns="http://www.w3.org/2000/svg">
<path d="M37.1903 72.5L44.6136 57.8068V57.6875H35.9972V55.0455H47.8864V57.7472L40.4716 72.5H37.1903ZM48.9155 69.2614V66.7472L56.3217 55.0455H58.4183V58.625H57.1399L52.1541 66.5256V66.6619H62.4922V69.2614H48.9155ZM57.2422 72.5V68.4943L57.2763 67.3693V55.0455H60.2592V72.5H57.2422ZM66.6577 72.6875C66.1406 72.6875 65.6974 72.5057 65.3281 72.142C64.9588 71.7784 64.777 71.3352 64.7827 70.8125C64.777 70.3011 64.9588 69.8636 65.3281 69.5C65.6974 69.1364 66.1406 68.9545 66.6577 68.9545C67.1577 68.9545 67.5923 69.1364 67.9616 69.5C68.3366 69.8636 68.527 70.3011 68.5327 70.8125C68.527 71.1591 68.4361 71.4744 68.2599 71.7585C68.0895 72.0426 67.8622 72.2699 67.5781 72.4403C67.2997 72.6051 66.9929 72.6875 66.6577 72.6875ZM76.6271 55.0455V72.5H73.4652V58.1222H73.3629L69.2805 60.7301V57.8324L73.6186 55.0455H76.6271Z" fill="black" fill-opacity="0.9"/>
<path d="M9.77837 70.9846C8.80064 63.9858 9.30372 56.8536 11.2536 50.0711C13.2034 43.2886 16.5544 37.0142 21.0797 31.6728C25.605 26.3314 31.1989 22.0478 37.4826 19.1121C43.7662 16.1763 50.5928 14.657 57.5 14.657L57.5 22.0584C51.6289 22.0584 45.8263 23.3499 40.4852 25.8453C35.1441 28.3407 30.3893 31.9817 26.5428 36.5219C22.6963 41.0621 19.8479 46.3953 18.1905 52.1604C16.5332 57.9256 16.1055 63.9879 16.9366 69.9369L9.77837 70.9846Z" fill="#FE938C"/>
<path d="M57.5 14.657C66.2395 14.657 74.8146 17.0888 82.3081 21.6922C89.8015 26.2957 95.9314 32.8976 100.042 40.7918C104.153 48.686 106.089 57.5755 105.645 66.5093C105.2 75.4432 102.391 84.0853 97.5188 91.5113L91.516 87.3846C95.6578 81.0725 98.0453 73.7267 98.423 66.1329C98.8008 58.5391 97.1546 50.9831 93.6607 44.273C90.1667 37.563 84.9563 31.9513 78.5869 28.0384C72.2174 24.1255 64.9286 22.0584 57.5 22.0584L57.5 14.657Z" fill="#7E78D2"/>
<path d="M97.5188 91.5113C92.0839 99.7941 84.3235 106.196 75.2614 109.872C66.1994 113.548 56.2615 114.326 46.7587 112.103C37.256 109.879 28.6349 104.76 22.0329 97.4192C15.4309 90.0785 11.1582 80.8616 9.77837 70.9846L16.9366 69.9369C18.1095 78.3324 21.7413 86.1667 27.353 92.4063C32.9647 98.6459 40.2926 102.998 48.3699 104.887C56.4472 106.777 64.8945 106.116 72.5972 102.991C80.3 99.8664 86.8963 94.425 91.516 87.3846L97.5188 91.5113Z" fill="#0FA3B1"/>
</svg>
