<svg width="679" height="551" viewBox="0 0 679 551" fill="none" xmlns="http://www.w3.org/2000/svg">
<path d="M115 417.326V295.319C115 287.747 123.089 282.922 129.752 286.52L329.613 394.446C335.594 397.676 342.806 397.647 348.761 394.369L549.178 284.047C555.842 280.378 564 285.2 564 292.807V407.506C564 414.6 560.242 421.164 554.123 424.755L348.946 545.173C342.902 548.72 335.443 548.845 329.284 545.503L125.461 434.905C119.015 431.407 115 424.661 115 417.326Z" fill="#64C46A"/>
<path d="M310.671 169.206C328.631 179.045 350.369 179.045 368.329 169.206L499.64 97.2648C505.627 93.9849 512.873 93.9849 518.86 97.2648L646.985 167.46C660.838 175.05 660.838 194.95 646.985 202.54L349.11 365.735C343.123 369.015 335.877 369.015 329.89 365.735L32.0154 202.54C18.1616 194.95 18.1616 175.05 32.0154 167.46L160.14 97.2648C166.127 93.9849 173.373 93.9849 179.36 97.2648L310.671 169.206Z" fill="#64C46A"/>
<path d="M310.057 16.5814C328.336 6.28723 350.664 6.28724 368.943 16.5814L447.057 60.5735C460.638 68.2221 460.638 87.7779 447.057 95.4265L368.943 139.419C350.664 149.713 328.336 149.713 310.057 139.419L231.943 95.4265C218.362 87.7779 218.362 68.2221 231.943 60.5735L310.057 16.5814Z" fill="#64C46A"/>
</svg>
