<svg width="57" height="57" viewBox="0 0 57 57" fill="none" xmlns="http://www.w3.org/2000/svg">
<g clip-path="url(#clip0_4935_38)">
<path d="M57 0H0V57H57V0Z" fill="#FAF9FB"/>
<path d="M5 0C5 1.32608 4.47322 2.59785 3.53553 3.53553C2.59785 4.47322 1.32608 5 0 5C-1.32608 5 -2.59785 4.47322 -3.53553 3.53553C-4.47322 2.59785 -5 1.32608 -5 0C-5 -1.32608 -4.47322 -2.59785 -3.53553 -3.53553C-2.59785 -4.47322 -1.32608 -5 0 -5C0.656609 -5 1.30679 -4.87067 1.91342 -4.6194C2.52005 -4.36812 3.07124 -3.99983 3.53553 -3.53553C3.99983 -3.07124 4.36812 -2.52005 4.6194 -1.91342C4.87067 -1.30679 5 -0.656609 5 0Z" fill="#C6ECC8"/>
<path d="M62 0C62 1.32608 61.4732 2.59785 60.5355 3.53553C59.5979 4.47322 58.3261 5 57 5C55.6739 5 54.4021 4.47322 53.4645 3.53553C52.5268 2.59785 52 1.32608 52 0C52 -1.32608 52.5268 -2.59785 53.4645 -3.53553C54.4021 -4.47322 55.6739 -5 57 -5C57.6566 -5 58.3068 -4.87067 58.9134 -4.6194C59.52 -4.36812 60.0712 -3.99983 60.5355 -3.53553C60.9998 -3.07124 61.3681 -2.52005 61.6194 -1.91342C61.8707 -1.30679 62 -0.656609 62 0Z" fill="#C6ECC8"/>
<path d="M62 57C62 58.3261 61.4732 59.5979 60.5355 60.5355C59.5979 61.4732 58.3261 62 57 62C55.6739 62 54.4021 61.4732 53.4645 60.5355C52.5268 59.5979 52 58.3261 52 57C52 55.6739 52.5268 54.4021 53.4645 53.4645C54.4021 52.5268 55.6739 52 57 52C57.6566 52 58.3068 52.1293 58.9134 52.3806C59.52 52.6319 60.0712 53.0002 60.5355 53.4645C60.9998 53.9288 61.3681 54.48 61.6194 55.0866C61.8707 55.6932 62 56.3434 62 57Z" fill="#C6ECC8"/>
<path d="M5 57C5 58.3261 4.47322 59.5979 3.53553 60.5355C2.59785 61.4732 1.32608 62 0 62C-1.32608 62 -2.59785 61.4732 -3.53553 60.5355C-4.47322 59.5979 -5 58.3261 -5 57C-5 55.6739 -4.47322 54.4021 -3.53553 53.4645C-2.59785 52.5268 -1.32608 52 0 52C0.656609 52 1.30679 52.1293 1.91342 52.3806C2.52005 52.6319 3.07124 53.0002 3.53553 53.4645C3.99983 53.9288 4.36812 54.48 4.6194 55.0866C4.87067 55.6932 5 56.3434 5 57Z" fill="#C6ECC8"/>
</g>
<defs>
<clipPath id="clip0_4935_38">
<rect width="57" height="57" fill="white"/>
</clipPath>
</defs>
</svg>
