<?xml version="1.0" encoding="UTF-8"?>
<svg id="Camada_2" data-name="Camada 2" xmlns="http://www.w3.org/2000/svg" viewBox="0 0 763.93 549.61">
  <defs>
    <style>
      .cls-1, .cls-2 {
        fill: #37b050;
      }

      .cls-2 {
        opacity: .2;
      }

      .cls-2, .cls-3 {
        isolation: isolate;
      }

      .cls-4 {
        fill: #2f2e41;
      }

      .cls-5 {
        fill: #fff;
      }

      .cls-6 {
        fill: #3f3d56;
      }

      .cls-7 {
        fill: #e6e6e6;
      }

      .cls-8 {
        fill: #ffb9b9;
      }

      .cls-3 {
        opacity: .1;
      }

      .cls-9 {
        fill: #ff6584;
      }

      .cls-10 {
        fill: #f2f2f2;
      }
    </style>
  </defs>
  <g id="Camada_2-2" data-name="Camada 2">
    <g>
      <path class="cls-6" d="m763.93,549.61c-39.36-5.77-77.22-10.74-113.57-14.91l14.37-23.26c-4.85-1.43-26.14,11.83-26.14,11.83l18.87-67.62c-24.37,2.35-36.77,71.42-36.77,71.42l-27.22-23.5,13.18,26.34c-111.25-11.48-207.33-15.99-288.14-16.51l12.3-19.91c-4.85-1.43-26.14,11.83-26.14,11.83l18.87-67.62c-24.37,2.35-36.77,71.42-36.77,71.42l-27.22-23.5,13.96,27.9c-67.75.82-123,4.44-165.64,8.65,12.44-31.04,54.71-60.43,54.71-60.43-32.27,7.89-49.21,21.27-58.05,33.79-.68-38.4,3.87-109.58,37.68-188.24,0,0-66.73,121.22-58.23,202.84l1.02,14.49c-56.55,6.52-84.99,13.44-84.99,13.44l763.93,11.55Z"/>
      <path class="cls-6" d="m406.21,22.01v489.85c-.01,12.15-9.86,21.99-22.01,22h-198.86c-12.14.02-21.99-9.8-22.01-21.94,0-.02,0-.04,0-.06V22.01C163.32,9.86,173.17,0,185.33,0h29.76v3.82c0,10.01,8.11,18.13,18.12,18.13h101.14c3.87,0,7.64-1.23,10.75-3.54.63-.46,1.22-.96,1.78-1.5,3.58-3.42,5.6-8.15,5.59-13.1V0h31.72c12.15,0,22.01,9.85,22.01,22h0Z"/>
      <circle class="cls-10" cx="218.72" cy="81.62" r="5.29"/>
      <path class="cls-1" d="m346.89,16.91c-.56.54-1.16,1.04-1.78,1.5,13.1,23.05,35.27,39.55,61.11,45.49v-2.36c-25.14-5.93-46.65-22.11-59.32-44.62Z"/>
      <path class="cls-1" d="m301.69,21.95h-2.48c17.91,45.5,58.66,78.04,107,85.43v-2.34c-47.06-7.31-86.79-38.89-104.52-83.09Z"/>
      <path class="cls-1" d="m256.03,21.95h-2.39c19.97,69.33,80.24,120.94,152.57,129.32v-2.3c-71.07-8.34-130.31-58.97-150.18-127.01Z"/>
      <polygon class="cls-10" points="201.34 120.78 199.96 120.78 199.96 119.4 199.69 119.4 199.69 120.78 198.32 120.78 198.32 121.05 199.69 121.05 199.69 122.42 199.96 122.42 199.96 121.05 201.34 121.05 201.34 120.78"/>
      <polygon class="cls-10" points="294.29 52.01 292.91 52.01 292.91 50.63 292.65 50.63 292.65 52.01 291.27 52.01 291.27 52.28 292.65 52.28 292.65 53.65 292.91 53.65 292.91 52.28 294.29 52.28 294.29 52.01"/>
      <polygon class="cls-10" points="214.94 175.19 213.56 175.19 213.56 173.81 213.3 173.81 213.3 175.19 211.92 175.19 211.92 175.46 213.3 175.46 213.3 176.83 213.56 176.83 213.56 175.46 214.94 175.46 214.94 175.19"/>
      <polygon class="cls-10" points="278.42 135.14 277.04 135.14 277.04 133.76 276.78 133.76 276.78 135.14 275.4 135.14 275.4 135.41 276.78 135.41 276.78 136.78 277.04 136.78 277.04 135.41 278.42 135.41 278.42 135.14"/>
      <polygon class="cls-10" points="369.11 160.07 367.73 160.07 367.73 158.7 367.46 158.7 367.46 160.07 366.08 160.07 366.08 160.34 367.46 160.34 367.46 161.72 367.73 161.72 367.73 160.34 369.11 160.34 369.11 160.07"/>
      <circle class="cls-9" cx="353.24" cy="94.46" r="3.02"/>
      <path class="cls-7" d="m244.94,165.35l-1.72.26c.54,3.43.96,6.94,1.27,10.41l1.73-.15c-.31-3.51-.74-7.05-1.28-10.52Z"/>
      <path class="cls-7" d="m240.25,144.69l-1.66.51c1.01,3.33,1.9,6.73,2.67,10.13l1.7-.39c-.78-3.43-1.69-6.88-2.71-10.25Z"/>
      <path class="cls-7" d="m232.76,124.87l-1.58.73c1.45,3.17,2.81,6.42,4.04,9.67l1.62-.61c-1.25-3.29-2.61-6.58-4.09-9.78Z"/>
      <path class="cls-7" d="m222.64,106.3l-1.47.93c1.87,2.93,3.66,5.97,5.32,9.02l1.53-.83c-1.68-3.08-3.49-6.15-5.38-9.11Z"/>
      <path class="cls-7" d="m210.05,89.27l-1.32,1.13c2.25,2.64,4.44,5.41,6.51,8.21l1.39-1.04c-2.09-2.83-4.3-5.62-6.58-8.3Z"/>
      <path class="cls-7" d="m195.25,74.11l-1.16,1.29c2.6,2.32,5.15,4.76,7.57,7.25l1.25-1.22c-2.46-2.52-5.03-4.98-7.66-7.32Z"/>
      <path class="cls-7" d="m178.53,61.1l-.97,1.44c2.89,1.94,5.74,4.01,8.49,6.15l1.07-1.37c-2.78-2.16-5.67-4.25-8.58-6.22Z"/>
      <path class="cls-7" d="m163.32,52.06v1.96c1.81.94,3.6,1.93,5.35,2.95l.87-1.5c-2.04-1.18-4.11-2.32-6.22-3.41Z"/>
      <path class="cls-7" d="m244.55,328.58c.28-1.69.54-3.42.77-5.13l1.72.23c-.23,1.73-.49,3.48-.78,5.18l-1.71-.29Z"/>
      <path class="cls-7" d="m239.71,348.97l1.66.52c1.04-3.36,1.98-6.8,2.8-10.23l-1.69-.4c-.81,3.39-1.74,6.79-2.77,10.11Z"/>
      <path class="cls-7" d="m232.12,368.49l1.58.74c1.5-3.18,2.9-6.46,4.17-9.74l-1.62-.63c-1.26,3.24-2.65,6.49-4.13,9.63Z"/>
      <path class="cls-7" d="m221.91,386.8l1.46.95c1.92-2.95,3.77-6,5.48-9.08l-1.52-.85c-1.69,3.04-3.52,6.06-5.42,8.98Z"/>
      <path class="cls-7" d="m209.28,403.54l1.32,1.14c2.31-2.67,4.55-5.44,6.68-8.24l-1.39-1.04c-2.09,2.77-4.31,5.51-6.6,8.14Z"/>
      <path class="cls-7" d="m194.48,418.38l1.14,1.31c2.66-2.32,5.26-4.76,7.74-7.25l-1.23-1.23c-2.45,2.46-5.03,4.87-7.65,7.17Z"/>
      <path class="cls-7" d="m177.82,431.07l.96,1.45c2.93-1.94,5.85-4,8.64-6.13l-1.05-1.39c-2.77,2.11-5.65,4.15-8.55,6.06Z"/>
      <path class="cls-7" d="m169.74,438.04c-2.1,1.19-4.25,2.34-6.42,3.42v-1.95c1.87-.95,3.73-1.96,5.55-2.98l.86,1.5Z"/>
      <path class="cls-7" d="m245.06,186.74l1.74-.03c.03,1.75.03,3.52,0,5.24l-1.74-.03c.03-1.7.02-3.45,0-5.18Z"/>
      <path class="cls-5" d="m170.95,227.94h177.75c27.55,0,49.88,22.33,49.88,49.88v6.6h-177.75c-27.55,0-49.88-22.33-49.88-49.88h0v-6.6h0Z"/>
      <path class="cls-10" d="m288.92,533.17c-.17-.28-4.26-7.11-5.68-21.29-1.3-13.01-.46-34.93,10.91-65.52,21.54-57.94-4.96-104.69-5.24-105.16l1.31-.76c.07.12,6.91,12.04,10.95,31.02,5.34,25.16,3.39,51.33-5.6,75.42-21.51,57.84-5.52,85.22-5.35,85.49l-1.29.79Z"/>
      <circle class="cls-1" cx="280.49" cy="327.98" r="9.82"/>
      <circle class="cls-10" cx="311.48" cy="364.25" r="9.82"/>
      <circle class="cls-1" cx="290.32" cy="388.43" r="9.82"/>
      <circle class="cls-1" cx="316.01" cy="408.84" r="9.82"/>
      <circle class="cls-10" cx="282.76" cy="440.58" r="9.82"/>
      <path class="cls-10" d="m294.85,533.53s-9.82-24.18,19.65-42.32l-19.65,42.32Z"/>
      <path class="cls-10" d="m282.77,533.09s-4.47-25.72-39.08-25.5l39.08,25.5Z"/>
      <circle class="cls-2" cx="243.66" cy="256.18" r="60.46"/>
      <circle class="cls-2" cx="243.66" cy="256.18" r="42.57"/>
      <circle class="cls-1" cx="243.66" cy="256.18" r="28.1"/>
      <path class="cls-5" d="m248.77,250.12c0-2.82-2.29-5.11-5.11-5.11-2.82,0-5.11,2.29-5.11,5.11,0,1.54.69,2.99,1.88,3.96l-1.88,13.17h10.22l-1.88-13.17c1.19-.97,1.88-2.42,1.88-3.96Z"/>
      <path class="cls-4" d="m526.05,40.28s-16.85-15.11-39.52,13.37-58.12,42.42-66.25,53.47c0,0,33.71-13.95,45.33-19.76,11.62-5.81,11.04-4.65,11.04-4.65,0,0-15.69,11.04-18.6,22.08-2.91,11.04-.58,20.34-5.81,31.38s99.96,7.56,99.96,7.56c0,0,10.46-18.02,7.56-36.61-2.91-18.6-1.16-64.51-33.71-66.83Z"/>
      <path class="cls-8" d="m494.17,87.81s3.66,25.65-12.04,31.41-9.95,13.61-9.95,13.61l23.56,11.52,25.13-7.85,8.38-12.57s-13.61-3.14-9.95-12.57c3.66-9.42,4.71-12.57,4.71-12.57l-29.84-10.99Z"/>
      <path class="cls-3" d="m494.17,87.81s3.66,25.65-12.04,31.41-9.95,13.61-9.95,13.61l23.56,11.52,25.13-7.85,8.38-12.57s-13.61-3.14-9.95-12.57c3.66-9.42,4.71-12.57,4.71-12.57l-29.84-10.99Z"/>
      <path class="cls-8" d="m560.14,161.11s-3.66,48.17-2.62,50.26,0,74.87,0,74.87c0,0,7.33,39.27-2.09,41.36s-7.33-43.98-7.33-43.98l-9.42-60.73,1.05-60.21,20.42-1.57Z"/>
      <path class="cls-3" d="m560.14,161.11s-3.66,48.17-2.62,50.26,0,74.87,0,74.87c0,0,7.33,39.27-2.09,41.36s-7.33-43.98-7.33-43.98l-9.42-60.73,1.05-60.21,20.42-1.57Z"/>
      <path class="cls-8" d="m458.05,306.13s-17.28,65.44-16.75,97.38,7.33,76.44,7.33,76.44c0,0,1.05,19.37-.52,21.47s7.85,10.99,7.85,10.99l9.95-5.76,3.66-4.19v-3.66s-5.76-17.8-1.05-31.94c4.71-14.14,7.33-49.74,2.62-60.73l32.46-96.33-45.55-3.66Z"/>
      <path class="cls-4" d="m457,504.03s-6.28-7.85-10.47-5.24-10.99,20.42-10.99,20.42c0,0-23.56,22.51-6.81,23.56,16.75,1.05,24.08-4.71,26.18-8.9s21.47-15.18,21.47-15.18c0,0-2.09-19.89-5.24-20.42s-7.85,7.85-7.85,7.85l-6.28-2.09Z"/>
      <path class="cls-8" d="m515.11,310.32v64.92c.06,7.88.59,15.74,1.57,23.56,1.57,11.52-8.9,97.38-8.9,97.38l1.05,15.18,13.09-1.05,1.57-13.09,18.85-57.59s6.28-35.08,3.14-48.17c-3.14-13.09,16.23-96.86,16.23-96.86l-46.6,15.71Z"/>
      <path class="cls-4" d="m504.64,507.7l3.88-.84s2.93-6.49,6.59-4.92c2.58,1.19,5.02,2.65,7.29,4.37l1.61,2.96s3.66,7.85,8.38,13.09,9.95,16.75,2.09,17.8-18.32,1.57-21.47-1.05-1.05-6.81-4.19-7.85-5.76-4.19-5.24-5.24,1.05-18.32,1.05-18.32Z"/>
      <circle class="cls-8" cx="515.11" cy="82.58" r="23.27"/>
      <path class="cls-1" d="m471.14,123.42l6.92-2.41s-2.73,4.51,11.93,7.13,29.84,3.54,36.65-5.03c0,0,2.62-1.25,6.28,2.42,3.66,3.66,5.76,2.62,5.76,2.62l-2.62,13.61-5.24,25.13-6.81,18.85-19.37-4.19-20.94-15.18-7.85-20.42v-18.85l-4.71-3.66Z"/>
      <path class="cls-1" d="m535.01,130.74l5.24-3.66s17.8,3.14,18.85,11.52l-13.61,26.18c2.78,7.28,2.59,15.37-.52,22.51-5.24,12.04-4.71,14.66-4.71,14.66l-3.66,15.71-66.49,5.24s-2.62-6.28-3.66-7.33-1.05-4.71,0-4.71,0-1.57-1.05-3.14-1.57-2.09,0-4.19-2.62-20.94-2.62-20.94v-20.42l-17.8-23.56s6.28-9.42,9.42-10.47,18.08-5.18,18.08-5.18l3.38,4.98,4.71,37.89,6.81,23.04,28.66-4.87,11.13-18.69,7.33-21.99.52-12.57Z"/>
      <path class="cls-1" d="m554.9,135.46l4.19,3.14s3.66,29.32,2.62,31.41-19.37,4.19-19.89,3.14,13.09-37.7,13.09-37.7Z"/>
      <path class="cls-4" d="m468.52,120.8l5.24,34.55s-4.71,51.31-3.66,61.78l1.05,3.14s-2.09-1.05-2.62,1.05,0,8.9,0,8.9c0,0-3.14,3.14-4.19,20.42s-13.61,58.64-8.9,60.21,32.98,9.42,48.17,7.85c15.18-1.57,69.63-19.89,69.11-24.61s-26.7-71.2-26.7-71.2c0,0-4.71-7.85-4.71-8.9s6.28-5.24,4.71-9.42-9.95-48.17-9.95-48.17l5.76-31.41-7.85-2.09-5.76,30.37s-22.51,10.99-46.07,1.05l-5.24-35.6-8.38,2.09Z"/>
      <path class="cls-4" d="m493.71,65.88s38.74,26.7,49.21,14.66-18.32-22.51-18.32-22.51l-24.08-2.62-6.81,10.47Z"/>
      <path class="cls-1" d="m433.51,349.92c9.05,6.74,21.84,4.86,28.58-4.19,6.74-9.05,4.86-21.84-4.19-28.58-9.05-6.74-21.84-4.86-28.58,4.19-4.44,5.96-5.29,13.86-2.22,20.63l-53.43,44.49-7.11-8.44-3.2,2.14-3.56-4.22,2.92-2.46-3.56-4.22-4.55,3.83,2.19,2.6-4.87,4.1-2.19-2.6-7.14,6.02,3.28,3.9,2.6-2.19,3.56,4.22-3.25,2.74,6.57,7.79-7.79,6.57,7.94,9.42,78.01-65.73Zm13.34-29.84c7.44.64,12.95,7.18,12.31,14.61-.64,7.44-7.18,12.95-14.61,12.31-7.44-.64-12.95-7.18-12.31-14.61s7.18-12.95,14.61-12.31h0Z"/>
      <path class="cls-8" d="m441.3,167.39s3.66,48.17,2.62,50.26,0,74.87,0,74.87c0,0-7.33,39.27,2.09,41.36s7.33-43.98,7.33-43.98l9.42-60.73-1.05-60.21-20.42-1.57Z"/>
      <path class="cls-1" d="m449.15,137.03l-4.19,1.57s-7.85,32.98-5.76,32.98,27.22,3.14,27.22,2.09-4.71-26.7-4.71-26.7l-12.57-9.95Z"/>
    </g>
  </g>
</svg>