<svg width="568" height="73" viewBox="0 0 568 73" fill="none" xmlns="http://www.w3.org/2000/svg">
<path d="M4.592 55.816C5.82933 55.816 6.89067 56.04 7.776 56.488C8.66133 56.936 9.33867 57.5813 9.808 58.424C10.2773 59.2667 10.512 60.2693 10.512 61.432C10.512 62.584 10.2773 63.5813 9.808 64.424C9.33867 65.256 8.66133 65.896 7.776 66.344C6.89067 66.7813 5.82933 67 4.592 67H1.28V55.816H4.592ZM4.592 66.072C6.14933 66.072 7.33333 65.6667 8.144 64.856C8.96533 64.0347 9.376 62.8933 9.376 61.432C9.376 59.96 8.96533 58.8133 8.144 57.992C7.33333 57.16 6.14933 56.744 4.592 56.744H2.4V66.072H4.592ZM12.5449 62.616C12.5449 61.72 12.7209 60.936 13.0729 60.264C13.4355 59.5813 13.9315 59.0587 14.5609 58.696C15.2009 58.3227 15.9209 58.136 16.7209 58.136C17.5529 58.136 18.2675 58.328 18.8649 58.712C19.4729 59.096 19.9102 59.5867 20.1769 60.184V58.264H21.2969V67H20.1769V65.064C19.8995 65.6613 19.4569 66.1573 18.8489 66.552C18.2515 66.936 17.5369 67.128 16.7049 67.128C15.9155 67.128 15.2009 66.9413 14.5609 66.568C13.9315 66.1947 13.4355 65.6667 13.0729 64.984C12.7209 64.3013 12.5449 63.512 12.5449 62.616ZM20.1769 62.632C20.1769 61.928 20.0329 61.3093 19.7449 60.776C19.4569 60.2427 19.0622 59.832 18.5609 59.544C18.0702 59.256 17.5262 59.112 16.9289 59.112C16.3102 59.112 15.7555 59.2507 15.2649 59.528C14.7742 59.8053 14.3849 60.2107 14.0969 60.744C13.8195 61.2667 13.6809 61.8907 13.6809 62.616C13.6809 63.3307 13.8195 63.96 14.0969 64.504C14.3849 65.0373 14.7742 65.448 15.2649 65.736C15.7555 66.0133 16.3102 66.152 16.9289 66.152C17.5262 66.152 18.0702 66.008 18.5609 65.72C19.0622 65.432 19.4569 65.0213 19.7449 64.488C20.0329 63.9547 20.1769 63.336 20.1769 62.632ZM23.8217 62.616C23.8217 61.72 24.0031 60.936 24.3657 60.264C24.7284 59.5813 25.2244 59.0587 25.8537 58.696C26.4937 58.3227 27.2137 58.136 28.0137 58.136C28.7817 58.136 29.4751 58.3227 30.0937 58.696C30.7124 59.0693 31.1657 59.5547 31.4537 60.152V55.16H32.5737V67H31.4537V65.048C31.1871 65.656 30.7497 66.1573 30.1417 66.552C29.5337 66.936 28.8191 67.128 27.9977 67.128C27.1977 67.128 26.4777 66.9413 25.8377 66.568C25.2084 66.1947 24.7124 65.6667 24.3497 64.984C23.9977 64.3013 23.8217 63.512 23.8217 62.616ZM31.4537 62.632C31.4537 61.928 31.3097 61.3093 31.0217 60.776C30.7337 60.2427 30.3391 59.832 29.8377 59.544C29.3471 59.256 28.8031 59.112 28.2057 59.112C27.5871 59.112 27.0324 59.2507 26.5417 59.528C26.0511 59.8053 25.6617 60.2107 25.3737 60.744C25.0964 61.2667 24.9577 61.8907 24.9577 62.616C24.9577 63.3307 25.0964 63.96 25.3737 64.504C25.6617 65.0373 26.0511 65.448 26.5417 65.736C27.0324 66.0133 27.5871 66.152 28.2057 66.152C28.8031 66.152 29.3471 66.008 29.8377 65.72C30.3391 65.432 30.7337 65.0213 31.0217 64.488C31.3097 63.9547 31.4537 63.336 31.4537 62.632ZM39.4346 67.128C38.6133 67.128 37.872 66.9467 37.2106 66.584C36.56 66.2107 36.0426 65.688 35.6586 65.016C35.2853 64.3333 35.0986 63.5387 35.0986 62.632C35.0986 61.7253 35.2906 60.936 35.6746 60.264C36.0586 59.5813 36.5813 59.0587 37.2426 58.696C37.904 58.3227 38.6453 58.136 39.4666 58.136C40.288 58.136 41.0293 58.3227 41.6906 58.696C42.3626 59.0587 42.8853 59.5813 43.2586 60.264C43.6426 60.936 43.8346 61.7253 43.8346 62.632C43.8346 63.528 43.6426 64.3173 43.2586 65C42.8746 65.6827 42.3466 66.2107 41.6746 66.584C41.0026 66.9467 40.256 67.128 39.4346 67.128ZM39.4346 66.152C40.0106 66.152 40.544 66.024 41.0346 65.768C41.5253 65.5013 41.92 65.1067 42.2186 64.584C42.528 64.0507 42.6826 63.4 42.6826 62.632C42.6826 61.864 42.5333 61.2187 42.2346 60.696C41.936 60.1627 41.5413 59.768 41.0506 59.512C40.56 59.2453 40.0266 59.112 39.4506 59.112C38.8746 59.112 38.3413 59.2453 37.8506 59.512C37.36 59.768 36.9653 60.1627 36.6666 60.696C36.3786 61.2187 36.2346 61.864 36.2346 62.632C36.2346 63.4 36.3786 64.0507 36.6666 64.584C36.9653 65.1067 37.3546 65.5013 37.8346 65.768C38.3253 66.024 38.8586 66.152 39.4346 66.152ZM49.3642 67.128C48.3616 67.128 47.5402 66.8987 46.9002 66.44C46.2709 65.9707 45.9189 65.336 45.8442 64.536H46.9962C47.0496 65.0267 47.2789 65.4267 47.6842 65.736C48.1002 66.0347 48.6549 66.184 49.3482 66.184C49.9562 66.184 50.4309 66.04 50.7722 65.752C51.1242 65.464 51.3002 65.1067 51.3002 64.68C51.3002 64.3813 51.2042 64.136 51.0122 63.944C50.8202 63.752 50.5749 63.6027 50.2762 63.496C49.9882 63.3787 49.5936 63.256 49.0922 63.128C48.4416 62.9573 47.9136 62.7867 47.5082 62.616C47.1029 62.4453 46.7562 62.1947 46.4682 61.864C46.1909 61.5227 46.0522 61.0693 46.0522 60.504C46.0522 60.0773 46.1802 59.6827 46.4362 59.32C46.6922 58.9573 47.0549 58.6693 47.5242 58.456C47.9936 58.2427 48.5269 58.136 49.1242 58.136C50.0629 58.136 50.8202 58.376 51.3962 58.856C51.9722 59.3253 52.2816 59.976 52.3242 60.808H51.2042C51.1722 60.296 50.9696 59.8853 50.5962 59.576C50.2336 59.256 49.7322 59.096 49.0922 59.096C48.5269 59.096 48.0682 59.2293 47.7162 59.496C47.3642 59.7627 47.1882 60.0933 47.1882 60.488C47.1882 60.8293 47.2896 61.112 47.4922 61.336C47.7056 61.5493 47.9669 61.72 48.2762 61.848C48.5856 61.9653 49.0016 62.0987 49.5242 62.248C50.1536 62.4187 50.6549 62.584 51.0282 62.744C51.4016 62.904 51.7216 63.1387 51.9882 63.448C52.2549 63.7573 52.3936 64.168 52.4042 64.68C52.4042 65.1493 52.2762 65.5707 52.0202 65.944C51.7642 66.3067 51.4069 66.5947 50.9482 66.808C50.4896 67.0213 49.9616 67.128 49.3642 67.128ZM59.3511 62.616C59.3511 61.72 59.5325 60.936 59.8951 60.264C60.2578 59.5813 60.7538 59.0587 61.3831 58.696C62.0231 58.3227 62.7431 58.136 63.5431 58.136C64.3111 58.136 65.0045 58.3227 65.6231 58.696C66.2418 59.0693 66.6951 59.5547 66.9831 60.152V55.16H68.1031V67H66.9831V65.048C66.7165 65.656 66.2791 66.1573 65.6711 66.552C65.0631 66.936 64.3485 67.128 63.5271 67.128C62.7271 67.128 62.0071 66.9413 61.3671 66.568C60.7378 66.1947 60.2418 65.6667 59.8791 64.984C59.5271 64.3013 59.3511 63.512 59.3511 62.616ZM66.9831 62.632C66.9831 61.928 66.8391 61.3093 66.5511 60.776C66.2631 60.2427 65.8685 59.832 65.3671 59.544C64.8765 59.256 64.3325 59.112 63.7351 59.112C63.1165 59.112 62.5618 59.2507 62.0711 59.528C61.5805 59.8053 61.1911 60.2107 60.9031 60.744C60.6258 61.2667 60.4871 61.8907 60.4871 62.616C60.4871 63.3307 60.6258 63.96 60.9031 64.504C61.1911 65.0373 61.5805 65.448 62.0711 65.736C62.5618 66.0133 63.1165 66.152 63.7351 66.152C64.3325 66.152 64.8765 66.008 65.3671 65.72C65.8685 65.432 66.2631 65.0213 66.5511 64.488C66.8391 63.9547 66.9831 63.336 66.9831 62.632ZM79.044 62.184C79.044 62.568 79.0333 62.8613 79.012 63.064H71.764C71.796 63.7253 71.956 64.2907 72.244 64.76C72.532 65.2293 72.9107 65.5867 73.38 65.832C73.8493 66.0667 74.3613 66.184 74.916 66.184C75.6413 66.184 76.2493 66.008 76.74 65.656C77.2413 65.304 77.572 64.8293 77.732 64.232H78.916C78.7027 65.0853 78.244 65.784 77.54 66.328C76.8467 66.8613 75.972 67.128 74.916 67.128C74.0947 67.128 73.3587 66.9467 72.708 66.584C72.0573 66.2107 71.5453 65.688 71.172 65.016C70.8093 64.3333 70.628 63.5387 70.628 62.632C70.628 61.7253 70.8093 60.9307 71.172 60.248C71.5347 59.5653 72.0413 59.0427 72.692 58.68C73.3427 58.3173 74.084 58.136 74.916 58.136C75.748 58.136 76.4733 58.3173 77.092 58.68C77.7213 59.0427 78.2013 59.5333 78.532 60.152C78.8733 60.76 79.044 61.4373 79.044 62.184ZM77.908 62.152C77.9187 61.5013 77.7853 60.9467 77.508 60.488C77.2413 60.0293 76.8733 59.6827 76.404 59.448C75.9347 59.2133 75.4227 59.096 74.868 59.096C74.036 59.096 73.3267 59.3627 72.74 59.896C72.1533 60.4293 71.828 61.1813 71.764 62.152H77.908ZM92.9237 64.344H87.8357L86.8597 67H85.6757L89.7557 55.96H91.0198L95.0837 67H93.8997L92.9237 64.344ZM92.5877 63.416L90.3797 57.368L88.1717 63.416H92.5877ZM96.8493 62.632C96.8493 61.7253 97.0306 60.936 97.3933 60.264C97.7559 59.5813 98.2573 59.0587 98.8973 58.696C99.5373 58.3227 100.268 58.136 101.089 58.136C102.167 58.136 103.052 58.4027 103.745 58.936C104.449 59.4693 104.903 60.1947 105.105 61.112H103.905C103.756 60.4827 103.431 59.992 102.929 59.64C102.439 59.2773 101.825 59.096 101.089 59.096C100.503 59.096 99.9746 59.2293 99.5053 59.496C99.0359 59.7627 98.6626 60.1627 98.3853 60.696C98.1186 61.2187 97.9853 61.864 97.9853 62.632C97.9853 63.4 98.1186 64.0507 98.3853 64.584C98.6626 65.1173 99.0359 65.5173 99.5053 65.784C99.9746 66.0507 100.503 66.184 101.089 66.184C101.825 66.184 102.439 66.008 102.929 65.656C103.431 65.2933 103.756 64.792 103.905 64.152H105.105C104.903 65.048 104.449 65.768 103.745 66.312C103.041 66.856 102.156 67.128 101.089 67.128C100.268 67.128 99.5373 66.9467 98.8973 66.584C98.2573 66.2107 97.7559 65.688 97.3933 65.016C97.0306 64.3333 96.8493 63.5387 96.8493 62.632ZM115.558 62.184C115.558 62.568 115.547 62.8613 115.526 63.064H108.278C108.31 63.7253 108.47 64.2907 108.758 64.76C109.046 65.2293 109.424 65.5867 109.894 65.832C110.363 66.0667 110.875 66.184 111.43 66.184C112.155 66.184 112.763 66.008 113.254 65.656C113.755 65.304 114.086 64.8293 114.246 64.232H115.43C115.216 65.0853 114.758 65.784 114.054 66.328C113.36 66.8613 112.486 67.128 111.43 67.128C110.608 67.128 109.872 66.9467 109.222 66.584C108.571 66.2107 108.059 65.688 107.686 65.016C107.323 64.3333 107.142 63.5387 107.142 62.632C107.142 61.7253 107.323 60.9307 107.686 60.248C108.048 59.5653 108.555 59.0427 109.206 58.68C109.856 58.3173 110.598 58.136 111.43 58.136C112.262 58.136 112.987 58.3173 113.606 58.68C114.235 59.0427 114.715 59.5333 115.046 60.152C115.387 60.76 115.558 61.4373 115.558 62.184ZM114.422 62.152C114.432 61.5013 114.299 60.9467 114.022 60.488C113.755 60.0293 113.387 59.6827 112.918 59.448C112.448 59.2133 111.936 59.096 111.382 59.096C110.55 59.096 109.84 59.3627 109.254 59.896C108.667 60.4293 108.342 61.1813 108.278 62.152H114.422ZM121.095 67.128C120.092 67.128 119.271 66.8987 118.631 66.44C118.002 65.9707 117.65 65.336 117.575 64.536H118.727C118.78 65.0267 119.01 65.4267 119.415 65.736C119.831 66.0347 120.386 66.184 121.079 66.184C121.687 66.184 122.162 66.04 122.503 65.752C122.855 65.464 123.031 65.1067 123.031 64.68C123.031 64.3813 122.935 64.136 122.743 63.944C122.551 63.752 122.306 63.6027 122.007 63.496C121.719 63.3787 121.324 63.256 120.823 63.128C120.172 62.9573 119.644 62.7867 119.239 62.616C118.834 62.4453 118.487 62.1947 118.199 61.864C117.922 61.5227 117.783 61.0693 117.783 60.504C117.783 60.0773 117.911 59.6827 118.167 59.32C118.423 58.9573 118.786 58.6693 119.255 58.456C119.724 58.2427 120.258 58.136 120.855 58.136C121.794 58.136 122.551 58.376 123.127 58.856C123.703 59.3253 124.012 59.976 124.055 60.808H122.935C122.903 60.296 122.7 59.8853 122.327 59.576C121.964 59.256 121.463 59.096 120.823 59.096C120.258 59.096 119.799 59.2293 119.447 59.496C119.095 59.7627 118.919 60.0933 118.919 60.488C118.919 60.8293 119.02 61.112 119.223 61.336C119.436 61.5493 119.698 61.72 120.007 61.848C120.316 61.9653 120.732 62.0987 121.255 62.248C121.884 62.4187 122.386 62.584 122.759 62.744C123.132 62.904 123.452 63.1387 123.719 63.448C123.986 63.7573 124.124 64.168 124.135 64.68C124.135 65.1493 124.007 65.5707 123.751 65.944C123.495 66.3067 123.138 66.5947 122.679 66.808C122.22 67.0213 121.692 67.128 121.095 67.128ZM129.731 67.128C128.728 67.128 127.907 66.8987 127.267 66.44C126.638 65.9707 126.286 65.336 126.211 64.536H127.363C127.416 65.0267 127.646 65.4267 128.051 65.736C128.467 66.0347 129.022 66.184 129.715 66.184C130.323 66.184 130.798 66.04 131.139 65.752C131.491 65.464 131.667 65.1067 131.667 64.68C131.667 64.3813 131.571 64.136 131.379 63.944C131.187 63.752 130.942 63.6027 130.643 63.496C130.355 63.3787 129.96 63.256 129.459 63.128C128.808 62.9573 128.28 62.7867 127.875 62.616C127.47 62.4453 127.123 62.1947 126.835 61.864C126.558 61.5227 126.419 61.0693 126.419 60.504C126.419 60.0773 126.547 59.6827 126.803 59.32C127.059 58.9573 127.422 58.6693 127.891 58.456C128.36 58.2427 128.894 58.136 129.491 58.136C130.43 58.136 131.187 58.376 131.763 58.856C132.339 59.3253 132.648 59.976 132.691 60.808H131.571C131.539 60.296 131.336 59.8853 130.963 59.576C130.6 59.256 130.099 59.096 129.459 59.096C128.894 59.096 128.435 59.2293 128.083 59.496C127.731 59.7627 127.555 60.0933 127.555 60.488C127.555 60.8293 127.656 61.112 127.859 61.336C128.072 61.5493 128.334 61.72 128.643 61.848C128.952 61.9653 129.368 62.0987 129.891 62.248C130.52 62.4187 131.022 62.584 131.395 62.744C131.768 62.904 132.088 63.1387 132.355 63.448C132.622 63.7573 132.76 64.168 132.771 64.68C132.771 65.1493 132.643 65.5707 132.387 65.944C132.131 66.3067 131.774 66.5947 131.315 66.808C130.856 67.0213 130.328 67.128 129.731 67.128ZM139.183 67.128C138.362 67.128 137.621 66.9467 136.959 66.584C136.309 66.2107 135.791 65.688 135.407 65.016C135.034 64.3333 134.847 63.5387 134.847 62.632C134.847 61.7253 135.039 60.936 135.423 60.264C135.807 59.5813 136.33 59.0587 136.991 58.696C137.653 58.3227 138.394 58.136 139.215 58.136C140.037 58.136 140.778 58.3227 141.439 58.696C142.111 59.0587 142.634 59.5813 143.007 60.264C143.391 60.936 143.583 61.7253 143.583 62.632C143.583 63.528 143.391 64.3173 143.007 65C142.623 65.6827 142.095 66.2107 141.423 66.584C140.751 66.9467 140.005 67.128 139.183 67.128ZM139.183 66.152C139.759 66.152 140.293 66.024 140.783 65.768C141.274 65.5013 141.669 65.1067 141.967 64.584C142.277 64.0507 142.431 63.4 142.431 62.632C142.431 61.864 142.282 61.2187 141.983 60.696C141.685 60.1627 141.29 59.768 140.799 59.512C140.309 59.2453 139.775 59.112 139.199 59.112C138.623 59.112 138.09 59.2453 137.599 59.512C137.109 59.768 136.714 60.1627 136.415 60.696C136.127 61.2187 135.983 61.864 135.983 62.632C135.983 63.4 136.127 64.0507 136.415 64.584C136.714 65.1067 137.103 65.5013 137.583 65.768C138.074 66.024 138.607 66.152 139.183 66.152Z" fill="#3F3D56"/>
<rect x="52" width="41" height="41" rx="9" fill="#3FA846"/>
<path d="M78.832 32H64.688C64.2827 32 63.984 31.9147 63.792 31.744C63.6213 31.552 63.536 31.2533 63.536 30.848V26.976C63.536 26.5707 63.6213 26.2827 63.792 26.112C63.984 25.92 64.2827 25.824 64.688 25.824H68.272V15.136H65.328C64.9227 15.136 64.624 15.0507 64.432 14.88C64.2613 14.688 64.176 14.3893 64.176 13.984V10.112C64.176 9.70667 64.2613 9.41867 64.432 9.248C64.624 9.056 64.9227 8.96 65.328 8.96H74.608C75.0133 8.96 75.3013 9.056 75.472 9.248C75.664 9.41867 75.76 9.70667 75.76 10.112V25.824H78.832C79.2373 25.824 79.5253 25.92 79.696 26.112C79.888 26.2827 79.984 26.5707 79.984 26.976V30.848C79.984 31.2533 79.888 31.552 79.696 31.744C79.5253 31.9147 79.2373 32 78.832 32Z" fill="white"/>
<path d="M220.863 54.816V66H219.743V54.816H220.863ZM227.976 57.104C229.021 57.104 229.874 57.4293 230.536 58.08C231.197 58.72 231.528 59.6533 231.528 60.88V66H230.424V61.008C230.424 60.0587 230.184 59.3333 229.704 58.832C229.234 58.3307 228.589 58.08 227.768 58.08C226.925 58.08 226.253 58.3467 225.752 58.88C225.25 59.4133 225 60.1973 225 61.232V66H223.88V57.264H225V58.752C225.277 58.2187 225.677 57.8133 226.2 57.536C226.722 57.248 227.314 57.104 227.976 57.104ZM237.925 58.208H235.893V66H234.773V58.208H233.557V57.264H234.773V56.656C234.773 55.7067 235.013 55.008 235.493 54.56C235.983 54.112 236.773 53.888 237.861 53.888V54.848C237.135 54.848 236.623 54.9867 236.325 55.264C236.037 55.5413 235.893 56.0053 235.893 56.656V57.264H237.925V58.208ZM243.992 66.128C243.17 66.128 242.429 65.9467 241.768 65.584C241.117 65.2107 240.6 64.688 240.216 64.016C239.842 63.3333 239.656 62.5387 239.656 61.632C239.656 60.7253 239.848 59.936 240.232 59.264C240.616 58.5813 241.138 58.0587 241.8 57.696C242.461 57.3227 243.202 57.136 244.024 57.136C244.845 57.136 245.586 57.3227 246.248 57.696C246.92 58.0587 247.442 58.5813 247.816 59.264C248.2 59.936 248.392 60.7253 248.392 61.632C248.392 62.528 248.2 63.3173 247.816 64C247.432 64.6827 246.904 65.2107 246.232 65.584C245.56 65.9467 244.813 66.128 243.992 66.128ZM243.992 65.152C244.568 65.152 245.101 65.024 245.592 64.768C246.082 64.5013 246.477 64.1067 246.776 63.584C247.085 63.0507 247.24 62.4 247.24 61.632C247.24 60.864 247.09 60.2187 246.792 59.696C246.493 59.1627 246.098 58.768 245.608 58.512C245.117 58.2453 244.584 58.112 244.008 58.112C243.432 58.112 242.898 58.2453 242.408 58.512C241.917 58.768 241.522 59.1627 241.224 59.696C240.936 60.2187 240.792 60.864 240.792 61.632C240.792 62.4 240.936 63.0507 241.224 63.584C241.522 64.1067 241.912 64.5013 242.392 64.768C242.882 65.024 243.416 65.152 243.992 65.152ZM252.033 58.816C252.279 58.272 252.652 57.8507 253.153 57.552C253.665 57.2533 254.289 57.104 255.025 57.104V58.272H254.721C253.911 58.272 253.26 58.4907 252.769 58.928C252.279 59.3653 252.033 60.096 252.033 61.12V66H250.913V57.264H252.033V58.816ZM267.59 57.104C268.614 57.104 269.446 57.4293 270.086 58.08C270.737 58.72 271.062 59.6533 271.062 60.88V66H269.958V61.008C269.958 60.0587 269.729 59.3333 269.27 58.832C268.812 58.3307 268.188 58.08 267.398 58.08C266.577 58.08 265.921 58.352 265.43 58.896C264.94 59.44 264.694 60.2293 264.694 61.264V66H263.59V61.008C263.59 60.0587 263.361 59.3333 262.902 58.832C262.444 58.3307 261.814 58.08 261.014 58.08C260.193 58.08 259.537 58.352 259.046 58.896C258.556 59.44 258.31 60.2293 258.31 61.264V66H257.19V57.264H258.31V58.768C258.588 58.224 258.982 57.8133 259.494 57.536C260.006 57.248 260.577 57.104 261.206 57.104C261.964 57.104 262.625 57.2853 263.19 57.648C263.766 58.0107 264.182 58.544 264.438 59.248C264.673 58.5547 265.073 58.0267 265.638 57.664C266.214 57.2907 266.865 57.104 267.59 57.104ZM273.518 61.616C273.518 60.72 273.694 59.936 274.046 59.264C274.408 58.5813 274.904 58.0587 275.534 57.696C276.174 57.3227 276.894 57.136 277.694 57.136C278.526 57.136 279.24 57.328 279.838 57.712C280.446 58.096 280.883 58.5867 281.15 59.184V57.264H282.27V66H281.15V64.064C280.872 64.6613 280.43 65.1573 279.822 65.552C279.224 65.936 278.51 66.128 277.678 66.128C276.888 66.128 276.174 65.9413 275.534 65.568C274.904 65.1947 274.408 64.6667 274.046 63.984C273.694 63.3013 273.518 62.512 273.518 61.616ZM281.15 61.632C281.15 60.928 281.006 60.3093 280.718 59.776C280.43 59.2427 280.035 58.832 279.534 58.544C279.043 58.256 278.499 58.112 277.902 58.112C277.283 58.112 276.728 58.2507 276.238 58.528C275.747 58.8053 275.358 59.2107 275.07 59.744C274.792 60.2667 274.654 60.8907 274.654 61.616C274.654 62.3307 274.792 62.96 275.07 63.504C275.358 64.0373 275.747 64.448 276.238 64.736C276.728 65.0133 277.283 65.152 277.902 65.152C278.499 65.152 279.043 65.008 279.534 64.72C280.035 64.432 280.43 64.0213 280.718 63.488C281.006 62.9547 281.15 62.336 281.15 61.632ZM289.035 65.184C289.771 65.184 290.384 65.008 290.875 64.656C291.376 64.2933 291.701 63.792 291.851 63.152H293.051C292.859 63.9947 292.443 64.6827 291.803 65.216C291.173 65.7493 290.373 66.048 289.403 66.112V67.072C290.032 67.0507 290.528 67.168 290.891 67.424C291.264 67.6907 291.451 68.0693 291.451 68.56C291.451 69.04 291.28 69.4187 290.939 69.696C290.597 69.984 290.144 70.128 289.579 70.128H287.979V69.376H289.355C289.749 69.376 290.037 69.3067 290.219 69.168C290.411 69.04 290.507 68.8373 290.507 68.56C290.507 68.048 290.123 67.792 289.355 67.792H288.619V66.112C287.872 66.048 287.211 65.8293 286.635 65.456C286.059 65.072 285.605 64.5547 285.275 63.904C284.955 63.2427 284.795 62.4853 284.795 61.632C284.795 60.7253 284.976 59.936 285.339 59.264C285.701 58.5813 286.203 58.0587 286.843 57.696C287.483 57.3227 288.213 57.136 289.035 57.136C290.112 57.136 290.997 57.4027 291.691 57.936C292.395 58.4693 292.848 59.1947 293.051 60.112H291.851C291.701 59.4827 291.376 58.992 290.875 58.64C290.384 58.2773 289.771 58.096 289.035 58.096C288.448 58.096 287.92 58.2293 287.451 58.496C286.981 58.7627 286.608 59.1627 286.331 59.696C286.064 60.2187 285.931 60.864 285.931 61.632C285.931 62.4 286.064 63.0507 286.331 63.584C286.608 64.1173 286.981 64.5173 287.451 64.784C287.92 65.0507 288.448 65.184 289.035 65.184ZM299.423 66.128C298.602 66.128 297.86 65.9467 297.199 65.584C296.548 65.2107 296.031 64.688 295.647 64.016C295.274 63.3333 295.087 62.5387 295.087 61.632C295.087 60.7253 295.279 59.936 295.663 59.264C296.047 58.5813 296.57 58.0587 297.231 57.696C297.892 57.3227 298.634 57.136 299.455 57.136C300.276 57.136 301.018 57.3227 301.679 57.696C302.351 58.0587 302.874 58.5813 303.247 59.264C303.631 59.936 303.823 60.7253 303.823 61.632C303.823 62.528 303.631 63.3173 303.247 64C302.863 64.6827 302.335 65.2107 301.663 65.584C300.991 65.9467 300.244 66.128 299.423 66.128ZM299.423 65.152C299.999 65.152 300.532 65.024 301.023 64.768C301.514 64.5013 301.908 64.1067 302.207 63.584C302.516 63.0507 302.671 62.4 302.671 61.632C302.671 60.864 302.522 60.2187 302.223 59.696C301.924 59.1627 301.53 58.768 301.039 58.512C300.548 58.2453 300.015 58.112 299.439 58.112C298.863 58.112 298.33 58.2453 297.839 58.512C297.348 58.768 296.954 59.1627 296.655 59.696C296.367 60.2187 296.223 60.864 296.223 61.632C296.223 62.4 296.367 63.0507 296.655 63.584C296.954 64.1067 297.343 64.5013 297.823 64.768C298.314 65.024 298.847 65.152 299.423 65.152ZM297.375 56.224C297.439 55.744 297.594 55.376 297.839 55.12C298.084 54.864 298.399 54.736 298.783 54.736C298.975 54.736 299.14 54.7733 299.279 54.848C299.418 54.912 299.583 55.008 299.775 55.136C299.935 55.2533 300.074 55.344 300.191 55.408C300.308 55.4613 300.436 55.488 300.575 55.488C300.756 55.488 300.911 55.4293 301.039 55.312C301.167 55.184 301.247 55.0027 301.279 54.768H301.951C301.908 55.2373 301.754 55.6053 301.487 55.872C301.231 56.128 300.911 56.256 300.527 56.256C300.324 56.256 300.148 56.224 299.999 56.16C299.86 56.0853 299.695 55.9787 299.503 55.84C299.354 55.7227 299.22 55.6373 299.103 55.584C298.996 55.5307 298.874 55.504 298.735 55.504C298.351 55.504 298.127 55.744 298.063 56.224H297.375ZM314.249 61.184C314.249 61.568 314.238 61.8613 314.217 62.064H306.969C307.001 62.7253 307.161 63.2907 307.449 63.76C307.737 64.2293 308.115 64.5867 308.585 64.832C309.054 65.0667 309.566 65.184 310.121 65.184C310.846 65.184 311.454 65.008 311.945 64.656C312.446 64.304 312.777 63.8293 312.937 63.232H314.121C313.907 64.0853 313.449 64.784 312.745 65.328C312.051 65.8613 311.177 66.128 310.121 66.128C309.299 66.128 308.563 65.9467 307.913 65.584C307.262 65.2107 306.75 64.688 306.377 64.016C306.014 63.3333 305.833 62.5387 305.833 61.632C305.833 60.7253 306.014 59.9307 306.377 59.248C306.739 58.5653 307.246 58.0427 307.897 57.68C308.547 57.3173 309.289 57.136 310.121 57.136C310.953 57.136 311.678 57.3173 312.297 57.68C312.926 58.0427 313.406 58.5333 313.737 59.152C314.078 59.76 314.249 60.4373 314.249 61.184ZM313.113 61.152C313.123 60.5013 312.99 59.9467 312.713 59.488C312.446 59.0293 312.078 58.6827 311.609 58.448C311.139 58.2133 310.627 58.096 310.073 58.096C309.241 58.096 308.531 58.3627 307.945 58.896C307.358 59.4293 307.033 60.1813 306.969 61.152H313.113ZM319.786 66.128C318.783 66.128 317.962 65.8987 317.322 65.44C316.692 64.9707 316.34 64.336 316.266 63.536H317.418C317.471 64.0267 317.7 64.4267 318.106 64.736C318.522 65.0347 319.076 65.184 319.77 65.184C320.378 65.184 320.852 65.04 321.194 64.752C321.546 64.464 321.722 64.1067 321.722 63.68C321.722 63.3813 321.626 63.136 321.434 62.944C321.242 62.752 320.996 62.6027 320.698 62.496C320.41 62.3787 320.015 62.256 319.514 62.128C318.863 61.9573 318.335 61.7867 317.93 61.616C317.524 61.4453 317.178 61.1947 316.89 60.864C316.612 60.5227 316.474 60.0693 316.474 59.504C316.474 59.0773 316.602 58.6827 316.858 58.32C317.114 57.9573 317.476 57.6693 317.946 57.456C318.415 57.2427 318.948 57.136 319.546 57.136C320.484 57.136 321.242 57.376 321.818 57.856C322.394 58.3253 322.703 58.976 322.746 59.808H321.626C321.594 59.296 321.391 58.8853 321.018 58.576C320.655 58.256 320.154 58.096 319.514 58.096C318.948 58.096 318.49 58.2293 318.138 58.496C317.786 58.7627 317.61 59.0933 317.61 59.488C317.61 59.8293 317.711 60.112 317.914 60.336C318.127 60.5493 318.388 60.72 318.698 60.848C319.007 60.9653 319.423 61.0987 319.946 61.248C320.575 61.4187 321.076 61.584 321.45 61.744C321.823 61.904 322.143 62.1387 322.41 62.448C322.676 62.7573 322.815 63.168 322.826 63.68C322.826 64.1493 322.698 64.5707 322.442 64.944C322.186 65.3067 321.828 65.5947 321.37 65.808C320.911 66.0213 320.383 66.128 319.786 66.128ZM337.437 58.032C337.437 58.992 337.122 59.7653 336.493 60.352C335.863 60.9387 334.919 61.232 333.661 61.232H331.405V66H330.285V54.816H333.661C334.909 54.816 335.847 55.1093 336.477 55.696C337.117 56.2827 337.437 57.0613 337.437 58.032ZM333.661 60.272C335.41 60.272 336.285 59.5253 336.285 58.032C336.285 57.2853 336.077 56.72 335.661 56.336C335.245 55.952 334.578 55.76 333.661 55.76H331.405V60.272H333.661ZM347.7 61.184C347.7 61.568 347.689 61.8613 347.668 62.064H340.42C340.452 62.7253 340.612 63.2907 340.9 63.76C341.188 64.2293 341.567 64.5867 342.036 64.832C342.505 65.0667 343.017 65.184 343.572 65.184C344.297 65.184 344.905 65.008 345.396 64.656C345.897 64.304 346.228 63.8293 346.388 63.232H347.572C347.359 64.0853 346.9 64.784 346.196 65.328C345.503 65.8613 344.628 66.128 343.572 66.128C342.751 66.128 342.015 65.9467 341.364 65.584C340.713 65.2107 340.201 64.688 339.828 64.016C339.465 63.3333 339.284 62.5387 339.284 61.632C339.284 60.7253 339.465 59.9307 339.828 59.248C340.191 58.5653 340.697 58.0427 341.348 57.68C341.999 57.3173 342.74 57.136 343.572 57.136C344.404 57.136 345.129 57.3173 345.748 57.68C346.377 58.0427 346.857 58.5333 347.188 59.152C347.529 59.76 347.7 60.4373 347.7 61.184ZM346.564 61.152C346.575 60.5013 346.441 59.9467 346.164 59.488C345.897 59.0293 345.529 58.6827 345.06 58.448C344.591 58.2133 344.079 58.096 343.524 58.096C342.692 58.096 341.983 58.3627 341.396 58.896C340.809 59.4293 340.484 60.1813 340.42 61.152H346.564ZM353.237 66.128C352.234 66.128 351.413 65.8987 350.773 65.44C350.144 64.9707 349.792 64.336 349.717 63.536H350.869C350.922 64.0267 351.152 64.4267 351.557 64.736C351.973 65.0347 352.528 65.184 353.221 65.184C353.829 65.184 354.304 65.04 354.645 64.752C354.997 64.464 355.173 64.1067 355.173 63.68C355.173 63.3813 355.077 63.136 354.885 62.944C354.693 62.752 354.448 62.6027 354.149 62.496C353.861 62.3787 353.466 62.256 352.965 62.128C352.314 61.9573 351.786 61.7867 351.381 61.616C350.976 61.4453 350.629 61.1947 350.341 60.864C350.064 60.5227 349.925 60.0693 349.925 59.504C349.925 59.0773 350.053 58.6827 350.309 58.32C350.565 57.9573 350.928 57.6693 351.397 57.456C351.866 57.2427 352.4 57.136 352.997 57.136C353.936 57.136 354.693 57.376 355.269 57.856C355.845 58.3253 356.154 58.976 356.197 59.808H355.077C355.045 59.296 354.842 58.8853 354.469 58.576C354.106 58.256 353.605 58.096 352.965 58.096C352.4 58.096 351.941 58.2293 351.589 58.496C351.237 58.7627 351.061 59.0933 351.061 59.488C351.061 59.8293 351.162 60.112 351.365 60.336C351.578 60.5493 351.84 60.72 352.149 60.848C352.458 60.9653 352.874 61.0987 353.397 61.248C354.026 61.4187 354.528 61.584 354.901 61.744C355.274 61.904 355.594 62.1387 355.861 62.448C356.128 62.7573 356.266 63.168 356.277 63.68C356.277 64.1493 356.149 64.5707 355.893 64.944C355.637 65.3067 355.28 65.5947 354.821 65.808C354.362 66.0213 353.834 66.128 353.237 66.128ZM361.873 66.128C360.871 66.128 360.049 65.8987 359.409 65.44C358.78 64.9707 358.428 64.336 358.353 63.536H359.505C359.559 64.0267 359.788 64.4267 360.193 64.736C360.609 65.0347 361.164 65.184 361.857 65.184C362.465 65.184 362.94 65.04 363.281 64.752C363.633 64.464 363.809 64.1067 363.809 63.68C363.809 63.3813 363.713 63.136 363.521 62.944C363.329 62.752 363.084 62.6027 362.785 62.496C362.497 62.3787 362.103 62.256 361.601 62.128C360.951 61.9573 360.423 61.7867 360.017 61.616C359.612 61.4453 359.265 61.1947 358.977 60.864C358.7 60.5227 358.561 60.0693 358.561 59.504C358.561 59.0773 358.689 58.6827 358.945 58.32C359.201 57.9573 359.564 57.6693 360.033 57.456C360.503 57.2427 361.036 57.136 361.633 57.136C362.572 57.136 363.329 57.376 363.905 57.856C364.481 58.3253 364.791 58.976 364.833 59.808H363.713C363.681 59.296 363.479 58.8853 363.105 58.576C362.743 58.256 362.241 58.096 361.601 58.096C361.036 58.096 360.577 58.2293 360.225 58.496C359.873 58.7627 359.697 59.0933 359.697 59.488C359.697 59.8293 359.799 60.112 360.001 60.336C360.215 60.5493 360.476 60.72 360.785 60.848C361.095 60.9653 361.511 61.0987 362.033 61.248C362.663 61.4187 363.164 61.584 363.537 61.744C363.911 61.904 364.231 62.1387 364.497 62.448C364.764 62.7573 364.903 63.168 364.913 63.68C364.913 64.1493 364.785 64.5707 364.529 64.944C364.273 65.3067 363.916 65.5947 363.457 65.808C362.999 66.0213 362.471 66.128 361.873 66.128ZM371.326 66.128C370.504 66.128 369.763 65.9467 369.102 65.584C368.451 65.2107 367.934 64.688 367.55 64.016C367.176 63.3333 366.99 62.5387 366.99 61.632C366.99 60.7253 367.182 59.936 367.566 59.264C367.95 58.5813 368.472 58.0587 369.134 57.696C369.795 57.3227 370.536 57.136 371.358 57.136C372.179 57.136 372.92 57.3227 373.582 57.696C374.254 58.0587 374.776 58.5813 375.15 59.264C375.534 59.936 375.726 60.7253 375.726 61.632C375.726 62.528 375.534 63.3173 375.15 64C374.766 64.6827 374.238 65.2107 373.566 65.584C372.894 65.9467 372.147 66.128 371.326 66.128ZM371.326 65.152C371.902 65.152 372.435 65.024 372.926 64.768C373.416 64.5013 373.811 64.1067 374.11 63.584C374.419 63.0507 374.574 62.4 374.574 61.632C374.574 60.864 374.424 60.2187 374.126 59.696C373.827 59.1627 373.432 58.768 372.942 58.512C372.451 58.2453 371.918 58.112 371.342 58.112C370.766 58.112 370.232 58.2453 369.742 58.512C369.251 58.768 368.856 59.1627 368.558 59.696C368.27 60.2187 368.126 60.864 368.126 61.632C368.126 62.4 368.27 63.0507 368.558 63.584C368.856 64.1067 369.246 64.5013 369.726 64.768C370.216 65.024 370.75 65.152 371.326 65.152ZM377.735 61.616C377.735 60.72 377.911 59.936 378.263 59.264C378.626 58.5813 379.122 58.0587 379.751 57.696C380.391 57.3227 381.111 57.136 381.911 57.136C382.743 57.136 383.458 57.328 384.055 57.712C384.663 58.096 385.101 58.5867 385.367 59.184V57.264H386.487V66H385.367V64.064C385.09 64.6613 384.647 65.1573 384.039 65.552C383.442 65.936 382.727 66.128 381.895 66.128C381.106 66.128 380.391 65.9413 379.751 65.568C379.122 65.1947 378.626 64.6667 378.263 63.984C377.911 63.3013 377.735 62.512 377.735 61.616ZM385.367 61.632C385.367 60.928 385.223 60.3093 384.935 59.776C384.647 59.2427 384.253 58.832 383.751 58.544C383.261 58.256 382.717 58.112 382.119 58.112C381.501 58.112 380.946 58.2507 380.455 58.528C379.965 58.8053 379.575 59.2107 379.287 59.744C379.01 60.2667 378.871 60.8907 378.871 61.616C378.871 62.3307 379.01 62.96 379.287 63.504C379.575 64.0373 379.965 64.448 380.455 64.736C380.946 65.0133 381.501 65.152 382.119 65.152C382.717 65.152 383.261 65.008 383.751 64.72C384.253 64.432 384.647 64.0213 384.935 63.488C385.223 62.9547 385.367 62.336 385.367 61.632ZM390.084 55.616C389.86 55.616 389.668 55.536 389.508 55.376C389.348 55.216 389.268 55.0187 389.268 54.784C389.268 54.5493 389.348 54.3573 389.508 54.208C389.668 54.048 389.86 53.968 390.084 53.968C390.308 53.968 390.5 54.048 390.66 54.208C390.82 54.3573 390.9 54.5493 390.9 54.784C390.9 55.0187 390.82 55.216 390.66 55.376C390.5 55.536 390.308 55.616 390.084 55.616ZM390.644 57.264V66H389.524V57.264H390.644ZM396.668 66.128C395.666 66.128 394.844 65.8987 394.204 65.44C393.575 64.9707 393.223 64.336 393.148 63.536H394.3C394.354 64.0267 394.583 64.4267 394.988 64.736C395.404 65.0347 395.959 65.184 396.652 65.184C397.26 65.184 397.735 65.04 398.076 64.752C398.428 64.464 398.604 64.1067 398.604 63.68C398.604 63.3813 398.508 63.136 398.316 62.944C398.124 62.752 397.879 62.6027 397.58 62.496C397.292 62.3787 396.898 62.256 396.396 62.128C395.746 61.9573 395.218 61.7867 394.812 61.616C394.407 61.4453 394.06 61.1947 393.772 60.864C393.495 60.5227 393.356 60.0693 393.356 59.504C393.356 59.0773 393.484 58.6827 393.74 58.32C393.996 57.9573 394.359 57.6693 394.828 57.456C395.298 57.2427 395.831 57.136 396.428 57.136C397.367 57.136 398.124 57.376 398.7 57.856C399.276 58.3253 399.586 58.976 399.628 59.808H398.508C398.476 59.296 398.274 58.8853 397.9 58.576C397.538 58.256 397.036 58.096 396.396 58.096C395.831 58.096 395.372 58.2293 395.02 58.496C394.668 58.7627 394.492 59.0933 394.492 59.488C394.492 59.8293 394.594 60.112 394.796 60.336C395.01 60.5493 395.271 60.72 395.58 60.848C395.89 60.9653 396.306 61.0987 396.828 61.248C397.458 61.4187 397.959 61.584 398.332 61.744C398.706 61.904 399.026 62.1387 399.292 62.448C399.559 62.7573 399.698 63.168 399.708 63.68C399.708 64.1493 399.58 64.5707 399.324 64.944C399.068 65.3067 398.711 65.5947 398.252 65.808C397.794 66.0213 397.266 66.128 396.668 66.128Z" fill="#3F3D56"/>
<rect x="289" width="41" height="41" rx="9" fill="#E5E5E5"/>
<path d="M316.664 32H301.432C301.027 32 300.728 31.9147 300.536 31.744C300.365 31.552 300.28 31.2533 300.28 30.848V25.344C300.28 24.1067 300.397 23.0933 300.632 22.304C300.888 21.4933 301.24 20.832 301.688 20.32C302.136 19.808 302.669 19.4027 303.288 19.104C303.907 18.8053 304.579 18.5493 305.304 18.336L309.592 16.992C309.933 16.9067 310.157 16.7787 310.264 16.608C310.392 16.4373 310.456 16.1813 310.456 15.84C310.456 15.52 310.392 15.3067 310.264 15.2C310.136 15.072 309.912 15.008 309.592 15.008H302.648C302.243 15.008 301.944 14.9227 301.752 14.752C301.581 14.56 301.496 14.2613 301.496 13.856V10.112C301.496 9.70667 301.581 9.41867 301.752 9.248C301.944 9.056 302.243 8.96 302.648 8.96H312.088C313.901 8.96 315.288 9.41867 316.248 10.336C317.229 11.232 317.72 12.544 317.72 14.272V17.28C317.72 18.88 317.272 20.1067 316.376 20.96C315.48 21.8133 314.264 22.4747 312.728 22.944L308.376 24.32C308.056 24.4053 307.832 24.5013 307.704 24.608C307.597 24.7147 307.544 24.9387 307.544 25.28V25.952H316.664C317.069 25.952 317.357 26.048 317.528 26.24C317.72 26.4107 317.816 26.6987 317.816 27.104V30.848C317.816 31.2533 317.72 31.552 317.528 31.744C317.357 31.9147 317.069 32 316.664 32Z" fill="#C4C4C4"/>
<path d="M522.638 59.032C522.638 59.992 522.324 60.7653 521.694 61.352C521.065 61.9387 520.121 62.232 518.862 62.232H516.606V67H515.486V55.816H518.862C520.11 55.816 521.049 56.1093 521.678 56.696C522.318 57.2827 522.638 58.0613 522.638 59.032ZM518.862 61.272C520.612 61.272 521.486 60.5253 521.486 59.032C521.486 58.2853 521.278 57.72 520.862 57.336C520.446 56.952 519.78 56.76 518.862 56.76H516.606V61.272H518.862ZM526.117 59.816C526.363 59.272 526.736 58.8507 527.237 58.552C527.749 58.2533 528.373 58.104 529.109 58.104V59.272H528.805C527.995 59.272 527.344 59.4907 526.853 59.928C526.363 60.3653 526.117 61.096 526.117 62.12V67H524.997V58.264H526.117V59.816ZM535.098 67.128C534.277 67.128 533.536 66.9467 532.874 66.584C532.224 66.2107 531.706 65.688 531.322 65.016C530.949 64.3333 530.762 63.5387 530.762 62.632C530.762 61.7253 530.954 60.936 531.338 60.264C531.722 59.5813 532.245 59.0587 532.906 58.696C533.568 58.3227 534.309 58.136 535.13 58.136C535.952 58.136 536.693 58.3227 537.354 58.696C538.026 59.0587 538.549 59.5813 538.922 60.264C539.306 60.936 539.498 61.7253 539.498 62.632C539.498 63.528 539.306 64.3173 538.922 65C538.538 65.6827 538.01 66.2107 537.338 66.584C536.666 66.9467 535.92 67.128 535.098 67.128ZM535.098 66.152C535.674 66.152 536.208 66.024 536.698 65.768C537.189 65.5013 537.584 65.1067 537.882 64.584C538.192 64.0507 538.346 63.4 538.346 62.632C538.346 61.864 538.197 61.2187 537.898 60.696C537.6 60.1627 537.205 59.768 536.714 59.512C536.224 59.2453 535.69 59.112 535.114 59.112C534.538 59.112 534.005 59.2453 533.514 59.512C533.024 59.768 532.629 60.1627 532.33 60.696C532.042 61.2187 531.898 61.864 531.898 62.632C531.898 63.4 532.042 64.0507 532.33 64.584C532.629 65.1067 533.018 65.5013 533.498 65.768C533.989 66.024 534.522 66.152 535.098 66.152ZM546.116 58.104C547.161 58.104 548.015 58.4293 548.676 59.08C549.337 59.72 549.668 60.6533 549.668 61.88V67H548.564V62.008C548.564 61.0587 548.324 60.3333 547.844 59.832C547.375 59.3307 546.729 59.08 545.908 59.08C545.065 59.08 544.393 59.3467 543.892 59.88C543.391 60.4133 543.14 61.1973 543.14 62.232V67H542.02V58.264H543.14V59.752C543.417 59.2187 543.817 58.8133 544.34 58.536C544.863 58.248 545.455 58.104 546.116 58.104ZM554.081 59.208V64.632C554.081 65.1653 554.182 65.5333 554.385 65.736C554.588 65.9387 554.945 66.04 555.457 66.04H556.481V67H555.281C554.492 67 553.905 66.8187 553.521 66.456C553.137 66.0827 552.945 65.4747 552.945 64.632V59.208H551.729V58.264H552.945V56.072H554.081V58.264H556.481V59.208H554.081ZM562.632 67.128C561.811 67.128 561.069 66.9467 560.408 66.584C559.757 66.2107 559.24 65.688 558.856 65.016C558.483 64.3333 558.296 63.5387 558.296 62.632C558.296 61.7253 558.488 60.936 558.872 60.264C559.256 59.5813 559.779 59.0587 560.44 58.696C561.101 58.3227 561.843 58.136 562.664 58.136C563.485 58.136 564.227 58.3227 564.888 58.696C565.56 59.0587 566.083 59.5813 566.456 60.264C566.84 60.936 567.032 61.7253 567.032 62.632C567.032 63.528 566.84 64.3173 566.456 65C566.072 65.6827 565.544 66.2107 564.872 66.584C564.2 66.9467 563.453 67.128 562.632 67.128ZM562.632 66.152C563.208 66.152 563.741 66.024 564.232 65.768C564.723 65.5013 565.117 65.1067 565.416 64.584C565.725 64.0507 565.88 63.4 565.88 62.632C565.88 61.864 565.731 61.2187 565.432 60.696C565.133 60.1627 564.739 59.768 564.248 59.512C563.757 59.2453 563.224 59.112 562.648 59.112C562.072 59.112 561.539 59.2453 561.048 59.512C560.557 59.768 560.163 60.1627 559.864 60.696C559.576 61.2187 559.432 61.864 559.432 62.632C559.432 63.4 559.576 64.0507 559.864 64.584C560.163 65.1067 560.552 65.5013 561.032 65.768C561.523 66.024 562.056 66.152 562.632 66.152Z" fill="#3F3D56"/>
<rect x="520" width="41" height="41" rx="9" fill="#E5E5E5"/>
<path d="M532.72 25.952H540.752C541.264 25.952 541.595 25.856 541.744 25.664C541.893 25.472 541.968 25.248 541.968 24.992V24.128C541.968 23.872 541.893 23.6587 541.744 23.488C541.595 23.296 541.264 23.2 540.752 23.2H535.312C534.907 23.2 534.608 23.1147 534.416 22.944C534.245 22.752 534.16 22.4533 534.16 22.048V18.624C534.16 18.2187 534.245 17.9307 534.416 17.76C534.608 17.568 534.907 17.472 535.312 17.472H538.672C539.184 17.472 539.515 17.376 539.664 17.184C539.813 16.992 539.888 16.768 539.888 16.512V16.032C539.888 15.776 539.813 15.552 539.664 15.36C539.515 15.168 539.184 15.072 538.672 15.072H532.72C532.315 15.072 532.016 14.9867 531.824 14.816C531.653 14.624 531.568 14.3253 531.568 13.92V10.112C531.568 9.70667 531.653 9.41867 531.824 9.248C532.016 9.056 532.315 8.96 532.72 8.96H541.648C543.419 8.96 544.731 9.376 545.584 10.208C546.459 11.0187 546.896 12.128 546.896 13.536V15.392C546.896 16.2027 546.757 16.9067 546.48 17.504C546.203 18.1013 545.712 18.5493 545.008 18.848C546.523 19.0187 547.568 19.488 548.144 20.256C548.741 21.0027 549.04 22.08 549.04 23.488V26.688C549.04 28.3307 548.517 29.632 547.472 30.592C546.427 31.5307 544.88 32 542.832 32H532.72C532.315 32 532.016 31.9147 531.824 31.744C531.653 31.552 531.568 31.2533 531.568 30.848V27.104C531.568 26.6987 531.653 26.4107 531.824 26.24C532.016 26.048 532.315 25.952 532.72 25.952Z" fill="#C4C4C4"/>
<rect x="347" y="17" width="159" height="6" fill="#D9D9D9"/>
<rect x="110" y="17" width="159" height="6" fill="#D9D9D9"/>
</svg>
