<svg width="172" height="172" viewBox="0 0 172 172" fill="none" xmlns="http://www.w3.org/2000/svg">
<path d="M84.6687 167.115C40.2633 167.115 4.26553 146.792 4.26553 121.721C4.26553 96.6504 40.2633 76.3267 84.6687 76.3267C129.074 76.3267 165.072 96.6504 165.072 121.721C165.072 146.792 129.074 167.115 84.6687 167.115Z" fill="black" fill-opacity="0.1"/>
<path d="M144.803 151.879L147.27 150.455C148.047 150.005 148.047 149.279 147.27 148.828L60.7092 98.8484C60.2724 98.628 59.7899 98.5131 59.3006 98.5131C58.8112 98.5131 58.3287 98.628 57.8919 98.8484L55.4082 100.273C54.6308 100.72 54.6308 101.446 55.4082 101.893L141.986 151.879C142.423 152.1 142.905 152.215 143.395 152.215C143.884 152.215 144.367 152.1 144.803 151.879Z" fill="black" fill-opacity="0.1"/>
<path d="M45.1467 143.575C31.1068 143.575 19.7252 137.004 19.7252 128.897C19.7252 120.79 31.1068 114.218 45.1467 114.218C59.1867 114.218 70.5684 120.79 70.5684 128.897C70.5684 137.004 59.1867 143.575 45.1467 143.575Z" fill="black" fill-opacity="0.1"/>
<path d="M140.469 144.907C140.813 139.671 140.445 134.349 143.71 127.125C146.462 121.064 150.975 116.289 156.118 115.918C158.25 115.763 159.792 116.262 160.689 117.779C162.262 120.445 159.919 123.303 157.408 124.951C156.303 125.677 147.232 130.376 144.724 140.796L143.637 146.73L143.293 146.527L140.469 144.907Z" fill="#64C46A"/>
<path opacity="0.25" d="M140.469 144.907C140.813 139.671 140.445 134.349 143.71 127.125C146.462 121.064 150.975 116.289 156.118 115.918C158.25 115.763 159.792 116.262 160.689 117.779C162.262 120.445 159.919 123.303 157.408 124.951C156.303 125.677 147.232 130.376 144.724 140.796L143.637 146.73L143.293 146.527L140.469 144.907Z" fill="white"/>
<path d="M142.124 143.104C142.174 143.097 142.22 143.073 142.256 143.037C142.291 143.001 142.314 142.955 142.32 142.904C143.95 130.238 148.763 122.657 157.552 119.674C157.58 119.662 157.606 119.645 157.627 119.623C157.648 119.601 157.665 119.575 157.676 119.546C157.687 119.517 157.692 119.487 157.691 119.456C157.69 119.426 157.682 119.396 157.669 119.368C157.643 119.313 157.597 119.27 157.539 119.248C157.482 119.226 157.419 119.227 157.363 119.251C148.498 122.082 143.517 130.015 141.866 142.86C141.862 142.919 141.881 142.978 141.92 143.023C141.958 143.069 142.013 143.098 142.072 143.104H142.124Z" fill="white"/>
<path d="M145.344 147.751C145.715 145.935 146.692 143.83 150.39 139.774C153.583 136.272 158.56 134.318 159.534 132.144C160.703 129.53 158.605 127.129 154.601 127.648C149.785 128.274 144.876 135.436 143.091 146.42L145.344 147.751Z" fill="#64C46A"/>
<path opacity="0.65" d="M145.344 147.751C145.715 145.935 146.692 143.83 150.39 139.774C153.583 136.272 158.56 134.318 159.534 132.144C160.703 129.53 158.605 127.129 154.601 127.648C149.785 128.274 144.876 135.436 143.091 146.42L145.344 147.751Z" fill="white"/>
<path d="M156.235 130.121C156.264 130.114 156.295 130.114 156.325 130.119C156.355 130.124 156.384 130.135 156.409 130.152C156.435 130.169 156.456 130.191 156.473 130.216C156.49 130.242 156.501 130.27 156.506 130.3C156.513 130.33 156.513 130.361 156.508 130.391C156.503 130.421 156.491 130.45 156.474 130.475C156.458 130.501 156.436 130.523 156.411 130.54C156.386 130.557 156.357 130.569 156.327 130.576C153.09 131.264 146.324 137.335 144.133 146.981C144.135 146.996 144.135 147.011 144.133 147.026L143.723 146.785C145.935 137.026 152.66 130.868 156.235 130.121Z" fill="white"/>
<path d="M26.4536 121.263C26.1715 117.163 26.4743 113.007 23.9183 107.349C21.7752 102.605 18.2355 98.8725 14.2072 98.5801C12.5388 98.4597 11.3348 98.8484 10.6331 100.035C9.40154 102.123 11.2351 104.359 13.1993 105.649C14.0627 106.217 21.1698 109.891 23.1237 118.033L23.9734 122.674L24.2555 122.516L26.4536 121.263Z" fill="#64C46A"/>
<path opacity="0.25" d="M26.4536 121.263C26.1715 117.163 26.4743 113.007 23.9183 107.349C21.7752 102.605 18.2355 98.8725 14.2072 98.5801C12.5388 98.4597 11.3348 98.8484 10.6331 100.035C9.40154 102.123 11.2351 104.359 13.1993 105.649C14.0627 106.217 21.1698 109.891 23.1237 118.033L23.9734 122.674L24.2555 122.516L26.4536 121.263Z" fill="white"/>
<path d="M25.1603 119.863C25.1212 119.858 25.085 119.84 25.0571 119.812C25.0292 119.784 25.0111 119.748 25.0055 119.709C23.7293 109.784 19.9625 103.85 13.0928 101.518C13.071 101.508 13.0512 101.495 13.0347 101.478C13.0182 101.461 13.0053 101.441 12.9966 101.419C12.988 101.397 12.9838 101.373 12.9844 101.349C12.985 101.325 12.9902 101.302 12.9999 101.28C13.0208 101.237 13.0573 101.204 13.102 101.187C13.1467 101.169 13.1963 101.17 13.2407 101.188C20.1757 103.403 24.0733 109.609 25.3667 119.66C25.3716 119.708 25.3579 119.756 25.3284 119.794C25.2989 119.832 25.2559 119.856 25.2085 119.863H25.1603Z" fill="white"/>
<path d="M22.6386 123.496C22.3497 122.072 21.5825 120.428 18.6929 117.252C16.1955 114.5 12.298 112.983 11.5343 111.281C10.6193 109.237 12.2636 107.359 15.394 107.765C19.1608 108.246 23.0067 113.864 24.3999 122.464L22.6386 123.496Z" fill="#64C46A"/>
<path opacity="0.65" d="M22.6386 123.496C22.3497 122.072 21.5825 120.428 18.6929 117.252C16.1955 114.5 12.298 112.983 11.5343 111.281C10.6193 109.237 12.2636 107.359 15.394 107.765C19.1608 108.246 23.0067 113.864 24.3999 122.464L22.6386 123.496Z" fill="white"/>
<path d="M23.5264 122.24C23.4957 122.233 23.4672 122.219 23.4437 122.198C23.4203 122.176 23.4025 122.15 23.3922 122.12C21.3592 114.676 16.5914 110.589 14.0595 110.059C14.036 110.054 14.0137 110.045 13.9938 110.031C13.974 110.018 13.957 110 13.9439 109.98C13.9308 109.96 13.9218 109.938 13.9175 109.914C13.9131 109.89 13.9134 109.866 13.9185 109.843C13.9229 109.819 13.9321 109.797 13.9453 109.777C13.9586 109.758 13.9757 109.741 13.9957 109.728C14.0156 109.715 14.0379 109.707 14.0613 109.703C14.0847 109.699 14.1087 109.699 14.1317 109.705C16.9353 110.29 21.6688 114.425 23.7431 122.024C23.7558 122.07 23.7495 122.12 23.7256 122.162C23.7018 122.204 23.6623 122.234 23.6158 122.247C23.5859 122.252 23.5552 122.25 23.5264 122.24Z" fill="white"/>
<path d="M95.4288 20.2375L94.352 19.5839C94.3558 19.5094 94.3558 19.4348 94.352 19.3603V18.8271C94.3243 18.3102 94.175 17.8071 93.9162 17.3588C93.6573 16.9105 93.2963 16.5296 92.8625 16.2471C92.7338 16.1601 92.5888 16.1 92.4363 16.0705C92.2838 16.0409 92.1269 16.0425 91.975 16.0751C91.8864 15.3625 91.6447 14.6775 91.2665 14.0671C90.8883 13.4566 90.3824 12.9353 89.7837 12.5388C88.5522 11.8302 87.5546 12.4046 87.5546 13.8254V14.6269C87.56 15.0149 87.6238 15.3999 87.7438 15.769L86.213 14.8849C85.7555 14.62 85.3874 14.8333 85.3874 15.363C85.4029 15.6497 85.4857 15.9286 85.6292 16.1772C85.7726 16.4259 85.9726 16.6372 86.213 16.7941L95.4322 22.1467C95.8897 22.4116 96.2612 22.1949 96.2612 21.6686C96.2447 21.3814 96.1607 21.1022 96.0161 20.8535C95.8714 20.6049 95.6702 20.3938 95.4288 20.2375Z" fill="white"/>
<path d="M102.037 13.901L103.114 14.3138V11.9402C103.114 10.0586 104.617 9.60792 106.244 10.547C107.875 11.4896 109.196 13.7772 109.196 15.6589V16.0029C109.426 15.9317 109.67 15.9139 109.908 15.9508C110.147 15.9878 110.374 16.0785 110.572 16.2162C111.19 16.6189 111.704 17.1618 112.073 17.8008C112.442 18.4398 112.655 19.1568 112.694 19.8935V20.0483L114.198 20.9186C114.603 21.1827 114.941 21.5381 115.184 21.9563C115.427 22.3745 115.569 22.8438 115.598 23.3266C115.598 24.2176 114.972 24.5788 114.198 24.1316L102.037 17.1312C101.632 16.8671 101.294 16.5117 101.051 16.0935C100.808 15.6754 100.666 15.206 100.637 14.7232C100.637 13.815 101.263 13.4538 102.037 13.901Z" fill="white"/>
<path opacity="0.5" d="M143.61 37.9226L128.312 29.0921L135.959 43.141L143.61 37.9226Z" fill="#64C46A"/>
<path opacity="0.3" d="M143.61 31.5001L128.312 22.6696L135.959 36.7186L143.61 31.5001Z" fill="#64C46A"/>
<path opacity="0.1" d="M143.61 25.0776L128.312 16.2471L135.959 30.2961L143.61 25.0776Z" fill="#64C46A"/>
<path d="M138.632 146.888C139.067 147.149 139.56 147.299 140.066 147.325C140.788 147.415 141.52 147.287 142.168 146.957C142.679 146.613 143.101 146.153 143.4 145.615C143.699 145.077 143.866 144.476 143.888 143.861V73.1172L140.448 75.1021V145.856C140.448 146.685 140.032 147.163 139.416 147.163C139.137 147.134 138.868 147.04 138.632 146.888Z" fill="#64C46A"/>
<path d="M57.1039 97.7132C57.1374 98.3478 57.3202 98.9656 57.6377 99.5161C57.9551 100.067 58.3981 100.535 58.9305 100.881L138.632 146.888C139.636 147.473 140.455 146.998 140.455 145.832V66.1065L135.422 63.2031C134.418 62.6183 84.7615 33.9631 83.757 33.3714L57.1039 17.9706V97.7132Z" fill="#FAFAFA"/>
<path d="M57.8881 19.3225V97.7132C57.9223 98.21 58.0693 98.6925 58.3179 99.1241C58.5664 99.5556 58.91 99.9248 59.3226 100.204L139.034 146.228C139.161 146.311 139.306 146.36 139.457 146.372C139.657 146.372 139.688 146.028 139.688 145.846V66.5571L135.044 63.8774L108.9 48.7723L83.3785 34.056L57.8881 19.3328M57.1038 17.9706L83.7707 33.368C84.7752 33.9494 134.432 62.608 135.436 63.1997L140.469 66.103V145.856C140.469 146.685 140.056 147.163 139.457 147.163C139.162 147.147 138.877 147.052 138.632 146.888L58.9339 100.881C58.4014 100.534 57.9584 100.067 57.641 99.5161C57.3236 98.9656 57.1407 98.3478 57.1072 97.7132V17.9706H57.1038Z" fill="#EBEBEB"/>
<path d="M66.6084 57.3276V93.7091C66.6199 93.7523 66.641 93.7923 66.6703 93.826L127.252 128.804V92.4191C127.239 92.3774 127.218 92.3388 127.19 92.3055L66.6084 57.3276ZM66.1165 56.2578C66.1839 56.2583 66.2497 56.2786 66.3057 56.3163L127.555 91.676C127.678 91.7563 127.781 91.8645 127.854 91.9918C127.928 92.1191 127.97 92.2619 127.978 92.4087V129.561C127.978 129.75 127.885 129.863 127.744 129.863C127.678 129.86 127.614 129.84 127.558 129.805L66.3092 94.4418C66.1861 94.3622 66.0836 94.2547 66.0101 94.1279C65.9365 94.0012 65.894 93.8588 65.886 93.7125V56.5605C65.886 56.3678 65.9823 56.2578 66.1199 56.2578H66.1165Z" fill="#EBEBEB"/>
<path d="M142.185 71.7309C142.695 71.3865 143.117 70.9267 143.416 70.3887C143.715 69.8508 143.882 69.2499 143.905 68.6349V60.0349C143.871 59.3992 143.687 58.7807 143.368 58.2296C143.05 57.6785 142.605 57.2103 142.072 56.8632L62.3635 10.8394C61.8194 10.5514 61.2152 10.3955 60.5997 10.3841C59.9842 10.3728 59.3747 10.5064 58.8203 10.7741C58.3105 11.1186 57.889 11.5785 57.5902 12.1164C57.2913 12.6544 57.1235 13.2552 57.1003 13.8701V22.4701C57.1332 23.1044 57.3159 23.7218 57.6334 24.2719C57.9509 24.822 58.3942 25.2891 58.927 25.6349L138.632 71.6655C139.177 71.9557 139.783 72.1129 140.401 72.1243C141.018 72.1357 141.63 72.0009 142.185 71.7309Z" fill="#263238"/>
<path d="M57.1245 13.5777C57.2517 12.6317 58.0223 12.2877 58.9339 12.8174L138.632 58.8412C139.169 59.1866 139.612 59.6592 139.922 60.2172L143.362 58.2323C143.054 57.6717 142.609 57.1983 142.068 56.8563L62.3601 10.8429C61.8178 10.5536 61.2148 10.3966 60.6002 10.3847C59.9857 10.3727 59.377 10.5061 58.8238 10.7741C58.355 11.0911 57.9604 11.5058 57.6671 11.9898C57.3738 12.4737 57.1887 13.0154 57.1245 13.5777Z" fill="#455A64"/>
<path d="M57.1038 13.8735V17.9706L83.7707 33.368C84.7752 33.9494 134.432 62.608 135.436 63.1997L140.469 66.103V62.0094C140.435 61.3754 140.252 60.7582 139.935 60.2079C139.618 59.6575 139.177 59.1893 138.646 58.8412L58.9339 12.8174C57.9294 12.2361 57.1038 12.7074 57.1038 13.8735Z" fill="#37474F"/>
<path d="M60.1689 15.48C59.5773 15.136 59.0957 15.4146 59.0957 16.0992C59.1167 16.4708 59.2248 16.8322 59.4112 17.1543C59.5976 17.4763 59.8572 17.7501 60.1689 17.9534C60.7572 18.2974 61.2388 18.0153 61.2388 17.3342C61.2181 16.9629 61.1106 16.6017 60.9247 16.2796C60.7389 15.9576 60.48 15.6837 60.1689 15.48Z" fill="white"/>
<path d="M64.0215 17.6954C63.4298 17.3514 62.9516 17.63 62.9516 18.3146C62.9717 18.6855 63.0791 19.0464 63.265 19.368C63.4509 19.6896 63.7101 19.9628 64.0215 20.1653C64.6131 20.5093 65.0913 20.2306 65.0913 19.5495C65.0718 19.178 64.9647 18.8164 64.7787 18.4942C64.5928 18.1719 64.3333 17.8982 64.0215 17.6954Z" fill="white"/>
<path d="M67.8745 19.9176C67.2828 19.5736 66.8047 19.8522 66.8047 20.5334C66.8242 20.9049 66.9313 21.2665 67.1172 21.5887C67.3032 21.911 67.5626 22.1847 67.8745 22.3875C68.4662 22.7315 68.9443 22.4529 68.9443 21.7718C68.9248 21.4002 68.8177 21.0386 68.6317 20.7164C68.4458 20.3942 68.1863 20.1204 67.8745 19.9176Z" fill="white"/>
<path d="M137.369 64.328C136.86 64.0322 136.681 63.585 136.444 62.725L135.883 60.7848C135.68 60.0074 135.467 59.4742 134.954 59.1818L112.646 46.299C112.133 46.0031 111.731 45.955 111.342 46.6154L110.654 47.8642C110.362 48.3664 110.217 48.6622 109.708 48.3664L92.3844 38.3698L57.1038 17.9706V26.9834L140.469 75.1158V66.1065L137.373 64.3108" fill="#64C46A"/>
<path d="M140.469 66.1065V75.1124L143.905 73.131V64.1319L140.469 66.1065Z" fill="#64C46A"/>
<path opacity="0.15" d="M140.469 66.1065V75.1124L143.905 73.131V64.1319L140.469 66.1065Z" fill="black"/>
<path opacity="0.3" d="M135.835 67.8918L137.438 68.8172L136.829 67.6407C136.804 67.5973 136.791 67.5481 136.791 67.498C136.791 67.4478 136.804 67.3986 136.829 67.3552C136.877 67.2967 136.956 67.338 137.011 67.4412L137.882 69.1165C137.891 69.1365 137.899 69.1572 137.906 69.1784C137.904 69.1852 137.904 69.1922 137.906 69.199C137.909 69.2288 137.909 69.2588 137.906 69.2885C137.91 69.3124 137.91 69.3368 137.906 69.3607C137.9 69.3745 137.892 69.3873 137.882 69.3986L137.011 70.0659C136.999 70.0751 136.984 70.0801 136.968 70.0801C136.953 70.0801 136.938 70.0751 136.925 70.0659C136.882 70.0352 136.848 69.992 136.829 69.9421C136.781 69.832 136.788 69.7116 136.829 69.6703L137.438 69.199L135.835 68.2737C135.793 68.2409 135.76 68.1991 135.737 68.1513C135.715 68.1036 135.703 68.0513 135.704 67.9985C135.704 67.9056 135.763 67.8506 135.835 67.8918Z" fill="black"/>
<path opacity="0.3" d="M134.504 67.1178L132.9 66.1925L133.509 65.7212C133.564 65.6799 133.571 65.5561 133.509 65.446C133.447 65.3359 133.382 65.2809 133.327 65.3222L132.457 66.0102C132.446 66.0196 132.438 66.0313 132.433 66.0446C132.429 66.0685 132.429 66.0929 132.433 66.1168C132.429 66.1454 132.429 66.1742 132.433 66.2028C132.434 66.2096 132.434 66.2166 132.433 66.2234C132.439 66.2446 132.447 66.2653 132.457 66.2854L133.327 67.9606C133.346 68 133.376 68.0333 133.413 68.057C133.426 68.0696 133.443 68.0766 133.461 68.0766C133.479 68.0766 133.496 68.0696 133.509 68.057C133.534 68.0129 133.548 67.9631 133.548 67.9125C133.548 67.8618 133.534 67.812 133.509 67.768L132.9 66.5915L134.504 67.5203C134.576 67.5616 134.634 67.5031 134.634 67.393C134.635 67.3402 134.624 67.2879 134.601 67.2402C134.578 67.1925 134.545 67.1506 134.504 67.1178Z" fill="black"/>
<path opacity="0.3" d="M129.368 62.4945C129.368 62.3982 129.461 62.4119 129.506 62.5151L129.722 63.0552C130.097 63.0139 130.551 63.3786 130.861 64.0287C131.257 64.8715 131.257 65.8657 130.861 66.2475C130.764 66.3373 130.639 66.3908 130.508 66.399C130.376 66.4071 130.246 66.3694 130.139 66.2922C129.817 66.0778 129.567 65.7724 129.42 65.415C129.394 65.3732 129.38 65.3249 129.38 65.2757C129.38 65.2265 129.394 65.1783 129.42 65.1364C129.468 65.0848 129.55 65.1364 129.602 65.2396C129.898 65.8691 130.379 66.1478 130.679 65.8622C130.978 65.5767 130.975 64.8302 130.679 64.2042C130.465 63.757 130.163 63.4921 129.898 63.4749L130.063 63.8808C130.104 63.9874 130.063 64.0838 129.998 64.039L129.344 63.6125C129.319 63.5906 129.299 63.563 129.286 63.5318C129.274 63.5007 129.269 63.467 129.272 63.4336L129.368 62.4945Z" fill="black"/>
<path opacity="0.3" d="M112.973 49.1576L112.329 47.7816C112.291 47.7176 112.271 47.6445 112.271 47.57C112.271 47.4955 112.291 47.4224 112.329 47.3585C112.405 47.2828 112.529 47.3585 112.605 47.5167L113.248 48.8927L113.891 48.2735C113.967 48.2013 114.091 48.2735 114.166 48.4318C114.204 48.4957 114.225 48.5688 114.225 48.6433C114.225 48.7178 114.204 48.7909 114.166 48.8549L113.523 49.4741L114.166 50.8501C114.204 50.914 114.225 50.9871 114.225 51.0616C114.225 51.1361 114.204 51.2092 114.166 51.2732C114.147 51.2894 114.123 51.2984 114.097 51.2984C114.072 51.2984 114.048 51.2894 114.029 51.2732C113.969 51.2303 113.921 51.1721 113.891 51.1046L113.248 49.7286L112.605 50.3478C112.585 50.3641 112.561 50.373 112.536 50.373C112.511 50.373 112.486 50.3641 112.467 50.3478C112.38 50.28 112.318 50.1842 112.293 50.0764C112.268 49.9687 112.281 49.8556 112.329 49.7562L112.973 49.1576Z" fill="black"/>
<path d="M125.814 63.1137V61.3352C125.798 61.0299 125.709 60.7328 125.556 60.468C125.403 60.2033 125.19 59.9783 124.934 59.8113L64.6719 24.9331C64.1869 24.651 63.7947 24.8781 63.7947 25.4388V27.2207C63.8108 27.5253 63.8987 27.8218 64.0511 28.086C64.2036 28.3503 64.4163 28.5747 64.6719 28.7412L124.934 63.64C125.419 63.9014 125.814 63.6744 125.814 63.1137Z" fill="#FAFAFA"/>
<path d="M65.855 28.896C65.8813 28.8999 65.9079 28.8999 65.9342 28.896C65.9836 28.8731 66.0238 28.834 66.0481 28.7853C66.0725 28.7366 66.0796 28.681 66.0683 28.6277L65.9789 27.9053L66.3229 27.661C66.3533 27.6385 66.3776 27.6088 66.3938 27.5746C66.41 27.5404 66.4176 27.5028 66.4158 27.465C66.4163 27.4063 66.4036 27.3484 66.3786 27.2953C66.3536 27.2423 66.3169 27.1956 66.2713 27.1588L65.7553 26.7598C65.7426 26.7493 65.734 26.7347 65.7312 26.7185L65.5007 25.9617C65.4864 25.8996 65.4539 25.8431 65.4073 25.7996C65.3607 25.7561 65.3022 25.7275 65.2393 25.7174C65.198 25.7069 65.1546 25.7092 65.1146 25.7239C65.0747 25.7386 65.0402 25.7652 65.0157 25.8L64.823 26.2128L64.3862 26.0442C64.3468 26.0281 64.3034 26.0248 64.262 26.0346C64.2207 26.0445 64.1835 26.0671 64.1557 26.0993C64.1221 26.1504 64.1042 26.2102 64.1042 26.2713C64.1042 26.3324 64.1221 26.3922 64.1557 26.4433L64.5306 27.1313C64.5341 27.146 64.5341 27.1613 64.5306 27.176L64.4446 27.809C64.4387 27.8666 64.4455 27.9248 64.4645 27.9794C64.4835 28.0341 64.5143 28.084 64.5547 28.1254C64.5794 28.1543 64.6108 28.1767 64.6463 28.1905C64.6817 28.2043 64.7199 28.2091 64.7577 28.2046L65.1808 28.153L65.6349 28.7343C65.6534 28.7787 65.6837 28.8172 65.7225 28.8457C65.7613 28.8742 65.8071 28.8916 65.855 28.896ZM66.1062 27.4271L65.7622 27.6714C65.727 27.6997 65.7001 27.7371 65.6843 27.7795C65.6686 27.8218 65.6646 27.8677 65.6727 27.9122L65.7312 28.3938L65.425 28.005C65.3997 27.968 65.3651 27.9383 65.3246 27.919C65.2841 27.8997 65.2393 27.8914 65.1945 27.895L64.7714 27.9466C64.7618 27.9322 64.7558 27.9156 64.7542 27.8984L64.8437 27.2654C64.8524 27.1859 64.8368 27.1055 64.7989 27.035L64.4722 26.4226L64.8162 26.5534C64.8656 26.5723 64.9204 26.5718 64.9695 26.552C65.0186 26.5323 65.0585 26.4946 65.081 26.4467L65.2358 26.1027L65.4388 26.7907C65.4617 26.8659 65.5059 26.9328 65.5661 26.9834L66.0855 27.3824C66.0935 27.3907 66.1004 27.4 66.1062 27.4099V27.4271Z" fill="#64C46A"/>
<g opacity="0.2">
<path d="M62.1056 24.2417C62.1707 24.2453 62.2352 24.2268 62.2884 24.1892C62.3417 24.1515 62.3806 24.097 62.399 24.0344C62.4173 23.9718 62.414 23.9049 62.3894 23.8445C62.3649 23.784 62.3206 23.7337 62.2639 23.7016L59.9109 22.3256C59.8779 22.3066 59.8415 22.2943 59.8038 22.2894C59.7661 22.2845 59.7277 22.2871 59.691 22.297C59.6543 22.3069 59.6198 22.3239 59.5897 22.3471C59.5595 22.3703 59.5343 22.3993 59.5153 22.4322C59.4963 22.4652 59.484 22.5016 59.4791 22.5393C59.4742 22.5771 59.4768 22.6154 59.4867 22.6521C59.4966 22.6889 59.5136 22.7233 59.5368 22.7534C59.56 22.7836 59.589 22.8089 59.6219 22.8278L61.9749 24.2038C62.0145 24.2275 62.0595 24.2405 62.1056 24.2417Z" fill="black"/>
<path d="M62.1055 25.6005C62.1694 25.6008 62.2316 25.58 62.2824 25.5412C62.3332 25.5024 62.3697 25.4479 62.3862 25.3862C62.4027 25.3245 62.3983 25.259 62.3736 25.2001C62.349 25.1411 62.3055 25.092 62.25 25.0604L59.897 23.7016C59.864 23.6826 59.8277 23.6703 59.7899 23.6654C59.7522 23.6605 59.7139 23.6631 59.6771 23.673C59.6404 23.6829 59.606 23.6999 59.5758 23.7231C59.5457 23.7464 59.5204 23.7753 59.5014 23.8082C59.4824 23.8412 59.4702 23.8776 59.4652 23.9153C59.4603 23.9531 59.4629 23.9914 59.4728 24.0281C59.4827 24.0649 59.4998 24.0993 59.523 24.1294C59.5462 24.1596 59.5751 24.1849 59.6081 24.2038L61.961 25.5798C62.0063 25.5999 62.0564 25.6071 62.1055 25.6005Z" fill="black"/>
<path d="M62.1057 26.9627C62.1704 26.9646 62.234 26.945 62.2863 26.9069C62.3387 26.8688 62.377 26.8144 62.3951 26.7522C62.4132 26.69 62.4101 26.6236 62.3864 26.5633C62.3626 26.503 62.3196 26.4523 62.2639 26.4192L59.911 25.0432C59.878 25.0241 59.8416 25.0118 59.8038 25.0068C59.7661 25.0018 59.7277 25.0044 59.691 25.0143C59.6542 25.0242 59.6198 25.0413 59.5896 25.0645C59.5595 25.0878 59.5343 25.1168 59.5154 25.1498C59.4963 25.1828 59.4839 25.2192 59.4789 25.2569C59.474 25.2947 59.4765 25.3331 59.4864 25.3698C59.4963 25.4066 59.5134 25.441 59.5367 25.4712C59.5599 25.5013 59.5889 25.5265 59.622 25.5454L61.975 26.9214C62.0143 26.9462 62.0593 26.9604 62.1057 26.9627Z" fill="black"/>
</g>
<path d="M83.1792 48.559L65.9516 38.614C65.4425 38.3182 65.0297 38.559 65.0297 39.1472V43.0206C65.049 43.3408 65.1427 43.6521 65.3034 43.9298C65.464 44.2075 65.6871 44.4439 65.9551 44.6202L83.1792 54.5653C83.6883 54.8611 84.1011 54.6203 84.1011 54.0321V50.1586C84.0821 49.8387 83.989 49.5277 83.8289 49.25C83.6689 48.9724 83.4464 48.7358 83.1792 48.559Z" fill="#64C46A"/>
<path opacity="0.3" d="M83.1792 48.559L65.9516 38.614C65.4425 38.3182 65.0297 38.559 65.0297 39.1472V43.0206C65.049 43.3408 65.1427 43.6521 65.3034 43.9298C65.464 44.2075 65.6871 44.4439 65.9551 44.6202L83.1792 54.5653C83.6883 54.8611 84.1011 54.6203 84.1011 54.0321V50.1586C84.0821 49.8387 83.989 49.5277 83.8289 49.25C83.6689 48.9724 83.4464 48.7358 83.1792 48.559Z" fill="white"/>
<path d="M103.988 60.544L86.7602 50.599C86.2511 50.3066 85.8383 50.5439 85.8383 51.1322V55.0056C85.856 55.3262 85.9491 55.6381 86.1098 55.916C86.2706 56.1939 86.4946 56.43 86.7637 56.6052L103.988 66.564C104.497 66.8564 104.91 66.6191 104.91 66.0274V62.1574C104.893 61.8351 104.801 61.5213 104.641 61.2411C104.48 60.9609 104.257 60.7221 103.988 60.544Z" fill="#64C46A"/>
<path opacity="0.3" d="M103.988 60.544L86.7602 50.599C86.2511 50.3066 85.8383 50.5439 85.8383 51.1322V55.0056C85.856 55.3262 85.9491 55.6381 86.1098 55.916C86.2706 56.1939 86.4946 56.43 86.7637 56.6052L103.988 66.564C104.497 66.8564 104.91 66.6191 104.91 66.0274V62.1574C104.893 61.8351 104.801 61.5213 104.641 61.2411C104.48 60.9609 104.257 60.7221 103.988 60.544Z" fill="white"/>
<path d="M106.64 65.1847C106.627 65.0698 106.646 64.9536 106.694 64.8483C106.742 64.7431 106.817 64.6525 106.911 64.5862L108.631 63.5817C108.737 63.5343 108.852 63.5153 108.967 63.5268C109.082 63.5383 109.191 63.5798 109.285 63.647L131.707 76.5883C131.975 76.765 132.199 77.002 132.359 77.2803C132.52 77.5586 132.614 77.8706 132.632 78.1914V82.0614C132.644 82.1754 132.625 82.2905 132.578 82.395C132.531 82.4995 132.457 82.5897 132.364 82.6565C132.199 82.7562 130.792 83.5681 130.62 83.6644C130.515 83.7119 130.4 83.7308 130.286 83.7193C130.172 83.7078 130.063 83.6663 129.97 83.599L107.544 70.6612C107.275 70.4866 107.05 70.2507 106.889 69.9726C106.729 69.6946 106.636 69.3824 106.619 69.0616L106.64 65.1847Z" fill="#64C46A"/>
<path opacity="0.15" d="M106.64 65.1847C106.627 65.0698 106.646 64.9536 106.694 64.8483C106.742 64.7431 106.817 64.6525 106.911 64.5862L108.631 63.5817C108.737 63.5343 108.852 63.5153 108.967 63.5268C109.082 63.5383 109.191 63.5798 109.285 63.647L131.707 76.5883C131.975 76.765 132.199 77.002 132.359 77.2803C132.52 77.5586 132.614 77.8706 132.632 78.1914V82.0614C132.644 82.1754 132.625 82.2905 132.578 82.395C132.531 82.4995 132.457 82.5897 132.364 82.6565C132.199 82.7562 130.792 83.5681 130.62 83.6644C130.515 83.7119 130.4 83.7308 130.286 83.7193C130.172 83.7078 130.063 83.6663 129.97 83.599L107.544 70.6612C107.275 70.4866 107.05 70.2507 106.889 69.9726C106.729 69.6946 106.636 69.3824 106.619 69.0616L106.64 65.1847Z" fill="black"/>
<path d="M129.997 77.5926L107.579 64.6514C107.49 64.5738 107.379 64.5258 107.262 64.5142C107.145 64.5027 107.027 64.5281 106.925 64.5868C106.823 64.6456 106.742 64.7349 106.693 64.8421C106.645 64.9493 106.631 65.069 106.653 65.1846V69.0614C106.67 69.3818 106.763 69.6936 106.923 69.9715C107.083 70.2494 107.307 70.4857 107.575 70.661L129.997 83.592C130.086 83.6696 130.196 83.7176 130.314 83.7291C130.431 83.7407 130.549 83.7153 130.651 83.6565C130.753 83.5977 130.834 83.5085 130.882 83.4013C130.931 83.2941 130.945 83.1743 130.922 83.0588V79.1922C130.905 78.8717 130.812 78.5598 130.651 78.2819C130.49 78.0039 130.266 77.7678 129.997 77.5926Z" fill="#64C46A"/>
<path d="M106.922 64.586C107.027 64.5386 107.143 64.5197 107.258 64.5311C107.372 64.5426 107.482 64.5841 107.576 64.6514L129.994 77.5892C130.266 77.761 130.492 77.9973 130.651 78.2772L132.371 77.2762C132.215 76.995 131.99 76.7582 131.717 76.5882L109.309 63.64C109.216 63.5727 109.106 63.5313 108.991 63.5198C108.877 63.5083 108.761 63.5272 108.656 63.5746L106.922 64.586Z" fill="#64C46A"/>
<path opacity="0.3" d="M106.922 64.586C107.027 64.5386 107.143 64.5197 107.258 64.5311C107.372 64.5426 107.482 64.5841 107.576 64.6514L129.994 77.5892C130.266 77.761 130.492 77.9973 130.651 78.2772L132.371 77.2762C132.215 76.995 131.99 76.7582 131.717 76.5882L109.309 63.64C109.216 63.5727 109.106 63.5313 108.991 63.5198C108.877 63.5083 108.761 63.5272 108.656 63.5746L106.922 64.586Z" fill="white"/>
<path d="M125.752 78.1052L125.202 76.3095L125.164 76.2167C125.146 76.1755 125.116 76.1408 125.078 76.1169L124.879 76.0034C124.871 75.9966 124.861 75.9929 124.851 75.9929C124.841 75.9929 124.831 75.9966 124.824 76.0034C124.807 76.0237 124.798 76.0494 124.8 76.0756V78.9652C124.801 78.9997 124.809 79.0336 124.824 79.065C124.835 79.0925 124.854 79.1162 124.879 79.1338L125.116 79.2679C125.124 79.2747 125.133 79.2784 125.144 79.2784C125.154 79.2784 125.163 79.2747 125.171 79.2679C125.187 79.2475 125.194 79.2215 125.192 79.1957V77.4482L125.56 78.6728C125.572 78.7056 125.586 78.7378 125.601 78.7691C125.615 78.801 125.639 78.8275 125.67 78.8448L125.818 78.9343C125.828 78.9411 125.84 78.9447 125.852 78.9447C125.864 78.9447 125.876 78.9411 125.887 78.9343C125.902 78.9188 125.916 78.9015 125.928 78.8827L126.317 78.088V79.8355C126.316 79.8699 126.324 79.9038 126.337 79.9353C126.349 79.9628 126.368 79.9866 126.392 80.0041L126.63 80.1383C126.637 80.145 126.647 80.1488 126.657 80.1488C126.667 80.1488 126.677 80.145 126.685 80.1383C126.702 80.1183 126.711 80.0923 126.709 80.066V77.1764C126.707 77.1419 126.699 77.108 126.685 77.0767C126.673 77.0501 126.654 77.0275 126.63 77.0113L126.43 76.8978C126.392 76.8737 126.365 76.8737 126.344 76.8978L126.306 76.9494L125.752 78.1052Z" fill="#FAFAFA"/>
<path d="M124.448 77.7234C124.448 77.556 124.432 77.389 124.4 77.2246C124.368 77.0641 124.32 76.9074 124.256 76.7567C124.197 76.6186 124.122 76.488 124.032 76.368C123.951 76.262 123.851 76.1721 123.736 76.1031C123.648 76.0465 123.545 76.0199 123.44 76.0274C123.354 76.0358 123.274 76.0763 123.217 76.141C123.147 76.2225 123.098 76.3191 123.072 76.423C123.036 76.5552 123.019 76.6919 123.021 76.829V77.0285C123.021 77.0632 123.029 77.0974 123.045 77.1282C123.056 77.1563 123.075 77.1804 123.1 77.197L124.07 77.744C124.073 77.8004 124.064 77.8569 124.042 77.9091C124.028 77.9457 124.003 77.977 123.97 77.9986C123.937 78.0166 123.898 78.0227 123.86 78.0158C123.817 78.0081 123.775 77.9929 123.736 77.971C123.681 77.9393 123.63 77.8999 123.585 77.8541C123.552 77.8199 123.522 77.7831 123.495 77.744C123.48 77.7166 123.463 77.6902 123.444 77.6649C123.429 77.6465 123.41 77.6313 123.389 77.6202L123.155 77.486C123.147 77.4799 123.137 77.4765 123.127 77.4765C123.117 77.4765 123.108 77.4799 123.1 77.486C123.09 77.4952 123.084 77.5067 123.08 77.5194C123.076 77.532 123.076 77.5454 123.079 77.5582C123.083 77.6223 123.098 77.6852 123.124 77.744C123.156 77.8373 123.198 77.9271 123.248 78.0123C123.309 78.1114 123.379 78.2047 123.458 78.291C123.54 78.3836 123.636 78.4626 123.743 78.5249C123.831 78.5812 123.934 78.6099 124.039 78.6074C124.126 78.5982 124.206 78.5564 124.263 78.4905C124.333 78.4017 124.382 78.2982 124.407 78.1878C124.439 78.0351 124.453 77.8792 124.448 77.7234ZM123.736 76.6398C123.79 76.6734 123.839 76.7152 123.881 76.7636C123.919 76.8117 123.953 76.8636 123.981 76.9184C124.008 76.9731 124.029 77.0309 124.042 77.0904C124.056 77.1412 124.065 77.1929 124.07 77.2452L123.413 76.8668C123.416 76.8236 123.424 76.7809 123.437 76.7395C123.445 76.7002 123.463 76.6635 123.489 76.6329C123.515 76.6078 123.549 76.5931 123.585 76.5916C123.639 76.5932 123.691 76.6099 123.736 76.6398Z" fill="#FAFAFA"/>
<path d="M121.287 76.9425C121.287 76.9761 121.295 77.0092 121.311 77.0388C121.321 77.0676 121.34 77.092 121.366 77.1076L121.586 77.2349C121.594 77.2417 121.604 77.2454 121.614 77.2454C121.624 77.2454 121.634 77.2417 121.642 77.2349C121.658 77.2146 121.667 77.1889 121.666 77.1626V76.024C121.654 75.8906 121.681 75.7567 121.745 75.6387C121.8 75.5631 121.882 75.5596 121.996 75.6387C122.107 75.7106 122.192 75.8169 122.237 75.9414C122.3 76.094 122.33 76.2581 122.326 76.4231V77.5583C122.328 77.5928 122.336 77.6266 122.35 77.658C122.363 77.6849 122.382 77.7084 122.405 77.7268L122.625 77.8541C122.649 77.8541 122.667 77.8541 122.68 77.8541C122.689 77.8452 122.696 77.8344 122.7 77.8225C122.705 77.8106 122.706 77.7978 122.704 77.7853V75.68C122.705 75.6464 122.696 75.6133 122.68 75.5837C122.671 75.5549 122.651 75.5305 122.625 75.5149L122.405 75.3876C122.398 75.3808 122.388 75.3771 122.378 75.3771C122.368 75.3771 122.358 75.3808 122.35 75.3876C122.334 75.4079 122.325 75.4336 122.326 75.4599V75.5631C122.278 75.4587 122.219 75.3596 122.151 75.2672C122.086 75.1803 122.004 75.1077 121.91 75.0539C121.822 74.9927 121.717 74.9624 121.611 74.9679C121.572 74.9723 121.536 74.9851 121.503 75.0053C121.47 75.0255 121.442 75.0527 121.421 75.0849C121.367 75.1667 121.332 75.2595 121.318 75.3566C121.297 75.4839 121.286 75.6128 121.287 75.7419V76.9425Z" fill="#FAFAFA"/>
<path d="M120.916 74.648C120.914 74.6135 120.906 74.5796 120.892 74.5483C120.88 74.5217 120.861 74.4991 120.837 74.4829L120.617 74.3556C120.593 74.3556 120.575 74.3556 120.562 74.3556C120.553 74.3645 120.546 74.3753 120.542 74.3872C120.537 74.3991 120.536 74.4119 120.538 74.4244V75.5631C120.548 75.696 120.522 75.8292 120.462 75.9483C120.414 76.0275 120.331 76.0343 120.221 75.969C120.11 75.9007 120.026 75.7962 119.984 75.6731C119.929 75.5209 119.902 75.3601 119.905 75.1984V74.0598C119.903 74.0264 119.895 73.9936 119.88 73.9634C119.87 73.9355 119.85 73.9115 119.825 73.8946L119.605 73.7674C119.597 73.7604 119.587 73.7565 119.576 73.7565C119.565 73.7565 119.555 73.7604 119.547 73.7674C119.531 73.7878 119.523 73.8138 119.526 73.8396V75.9243C119.527 75.9585 119.534 75.9924 119.547 76.024C119.559 76.0516 119.579 76.0745 119.605 76.0894L119.825 76.2166C119.829 76.2204 119.833 76.2234 119.838 76.2254C119.843 76.2275 119.848 76.2285 119.853 76.2285C119.858 76.2285 119.863 76.2275 119.868 76.2254C119.873 76.2234 119.877 76.2204 119.88 76.2166C119.898 76.1967 119.906 76.1707 119.905 76.1444V76.024C119.951 76.1228 120.006 76.2172 120.07 76.3061C120.131 76.3965 120.212 76.4718 120.307 76.5263C120.393 76.5858 120.495 76.616 120.599 76.6123C120.638 76.6064 120.674 76.5927 120.707 76.5719C120.739 76.5512 120.767 76.5239 120.789 76.4919C120.841 76.407 120.873 76.312 120.885 76.2132C120.907 76.0871 120.917 75.9593 120.916 75.8314V74.648Z" fill="#FAFAFA"/>
<path d="M111.476 70.9225L112.756 69.9559L112.525 69.519L111.583 70.2311L110.64 68.4319L110.303 68.6865L111.476 70.9225Z" fill="#FAFAFA"/>
<path d="M84.913 80.6611C84.9007 80.5462 84.9194 80.43 84.9672 80.3247C85.015 80.2195 85.0901 80.1289 85.1848 80.0626L86.9048 79.065C87.0093 79.016 87.1251 78.9959 87.24 79.0068C87.355 79.0177 87.4649 79.0592 87.5584 79.1269L102.244 87.603L103.166 88.1362V117.104C103.177 117.218 103.159 117.333 103.112 117.437C103.066 117.542 102.993 117.632 102.901 117.7L101.157 118.704C101.052 118.752 100.937 118.772 100.823 118.76C100.708 118.749 100.599 118.707 100.507 118.639L85.8178 110.166C85.5491 109.991 85.3257 109.754 85.1655 109.476C85.0053 109.199 84.9129 108.887 84.8958 108.566L84.913 80.6611Z" fill="#E0E0E0"/>
<path d="M86.915 79.065C87.02 79.0153 87.1364 78.9949 87.252 79.0058C87.3676 79.0167 87.4782 79.0585 87.572 79.1269L102.254 87.5996L103.176 88.1362L105.928 89.7186C105.991 89.7553 106.043 89.8078 106.079 89.8709C106.115 89.9339 106.134 90.0054 106.134 90.0781C106.134 90.1508 106.115 90.2223 106.079 90.2854C106.043 90.3485 105.991 90.4009 105.928 90.4376C105.336 90.8167 104.723 91.1613 104.091 91.4696L101.456 92.1335V89.1304L100.531 88.5972L85.852 80.121C85.7584 80.0538 85.6487 80.0123 85.534 80.0008C85.4193 79.9893 85.3035 80.0083 85.1984 80.0557C85.3498 79.9662 86.7464 79.1578 86.915 79.065Z" fill="#F0F0F0"/>
<path d="M84.9163 80.6611C84.8935 80.5456 84.9075 80.4258 84.9563 80.3186C85.005 80.2114 85.0861 80.1222 85.1881 80.0634C85.2902 80.0046 85.408 79.9792 85.5252 79.9908C85.6424 80.0024 85.753 80.0503 85.8416 80.1279L101.442 89.1373L104.194 90.7197C104.257 90.7559 104.309 90.808 104.345 90.8708C104.382 90.9336 104.401 91.0049 104.401 91.0774C104.401 91.15 104.382 91.2213 104.345 91.2841C104.309 91.3469 104.257 91.399 104.194 91.4352C104.161 91.4545 104.125 91.4685 104.087 91.4765L101.452 92.1404V118.106C101.476 118.221 101.464 118.341 101.415 118.449C101.367 118.557 101.286 118.646 101.184 118.705C101.082 118.765 100.964 118.79 100.846 118.778C100.729 118.766 100.619 118.717 100.53 118.639L85.8416 110.166C85.5725 109.991 85.3485 109.755 85.1878 109.477C85.027 109.199 84.934 108.887 84.9163 108.566V80.6611Z" fill="#FAFAFA"/>
<path d="M85.4185 80.4582C85.383 80.5196 85.3674 80.5905 85.3738 80.6611V108.566C85.3895 108.806 85.4597 109.039 85.5789 109.248C85.6981 109.456 85.8632 109.635 86.0618 109.77L100.747 118.24C100.805 118.277 100.871 118.3 100.94 118.308C100.975 118.247 100.991 118.176 100.985 118.106V91.7826L101.329 91.6966L103.853 91.0602L101.212 89.5363L85.6077 80.527C85.5532 80.4907 85.4906 80.4682 85.4254 80.4616M85.4254 80.0041C85.5717 80.0101 85.7139 80.0539 85.8382 80.1314L101.439 89.1407L104.191 90.7231C104.253 90.7593 104.306 90.8114 104.342 90.8743C104.378 90.9371 104.397 91.0083 104.397 91.0809C104.397 91.1534 104.378 91.2247 104.342 91.2875C104.306 91.3503 104.253 91.4024 104.191 91.4386C104.157 91.458 104.121 91.4719 104.084 91.4799L101.449 92.1438V118.109C101.461 118.224 101.443 118.34 101.395 118.445C101.347 118.551 101.272 118.641 101.177 118.708C101.105 118.749 101.023 118.771 100.94 118.769C100.793 118.764 100.651 118.72 100.527 118.642L85.8382 110.169C85.5691 109.994 85.3451 109.758 85.1844 109.48C85.0236 109.202 84.9306 108.89 84.9128 108.57V80.6646C84.9005 80.5496 84.9192 80.4335 84.967 80.3282C85.0148 80.2229 85.0899 80.1324 85.1846 80.066C85.2577 80.0239 85.341 80.0025 85.4254 80.0041Z" fill="#E0E0E0"/>
<path d="M101.442 106.912V107.404L84.9093 97.8611V97.3658L101.442 106.912Z" fill="#E0E0E0"/>
<path d="M101.442 113.413L84.9093 103.867V103.372L101.442 112.918V113.413Z" fill="#E0E0E0"/>
<path d="M101.442 94.8993V95.3912L84.9127 85.8486V85.3533L101.442 94.8993Z" fill="#E0E0E0"/>
<path d="M101.442 100.906V101.397L84.9127 91.8549V91.3595L101.442 100.906Z" fill="#E0E0E0"/>
<path d="M101.016 101.153L85.3223 92.0922V97.6478L101.016 106.664V101.153Z" fill="#64C46A"/>
<path opacity="0.6" d="M101.016 101.153L85.3223 92.0922V97.6478L101.016 106.664V101.153Z" fill="white"/>
<path d="M97.9745 101.136L91.0394 97.1318C90.7333 96.9564 90.4856 97.0974 90.4856 97.4518V97.7476C90.4957 97.9399 90.5511 98.1271 90.6474 98.2939C90.7436 98.4607 90.878 98.6024 91.0394 98.7074L97.9745 102.712C98.2806 102.89 98.5283 102.746 98.5283 102.392V102.096C98.5174 101.904 98.4616 101.717 98.3654 101.55C98.2693 101.383 98.1354 101.242 97.9745 101.136Z" fill="#64C46A"/>
<path d="M97.9745 95.1504L91.0394 91.16C90.7333 90.9846 90.4856 91.129 90.4856 91.4834V91.7758C90.4957 91.9681 90.5511 92.1553 90.6474 92.3221C90.7436 92.4889 90.878 92.6305 91.0394 92.7355L97.9745 96.7431C98.2806 96.9186 98.5283 96.7741 98.5283 96.4232V96.1274C98.5209 95.9321 98.4667 95.7414 98.3704 95.5714C98.274 95.4014 98.1382 95.2571 97.9745 95.1504Z" fill="#E0E0E0"/>
<path d="M97.9745 89.1373L91.0394 85.1331C90.7333 84.9542 90.4856 85.0987 90.4856 85.453V85.7489C90.4965 85.941 90.5523 86.1279 90.6485 86.2946C90.7447 86.4612 90.8786 86.6031 91.0394 86.7086L97.9745 90.7128C98.2806 90.8882 98.5283 90.7472 98.5283 90.3929V90.097C98.5182 89.9047 98.4628 89.7175 98.3665 89.5507C98.2703 89.3839 98.1359 89.2423 97.9745 89.1373Z" fill="#E0E0E0"/>
<path d="M97.9745 113.176L91.0394 109.172C90.7333 108.996 90.4856 109.141 90.4856 109.492V109.788C90.4957 109.98 90.5511 110.167 90.6474 110.334C90.7436 110.501 90.878 110.642 91.0394 110.747L97.9745 114.752C98.2806 114.93 98.5283 114.786 98.5283 114.432V114.139C98.5179 113.946 98.4624 113.759 98.3662 113.592C98.27 113.424 98.1358 113.282 97.9745 113.176Z" fill="#E0E0E0"/>
<path d="M97.9745 107.153L91.0394 103.148C90.7333 102.97 90.4856 103.114 90.4856 103.468V103.761C90.496 103.953 90.5515 104.141 90.6477 104.308C90.7439 104.476 90.8781 104.618 91.0394 104.724L97.9745 108.728C98.2806 108.904 98.5283 108.762 98.5283 108.408V108.112C98.5182 107.92 98.4628 107.733 98.3665 107.566C98.2703 107.399 98.1359 107.258 97.9745 107.153Z" fill="#E0E0E0"/>
<path d="M106.64 77.1936C106.628 77.0787 106.647 76.9625 106.694 76.8572C106.742 76.752 106.817 76.6614 106.912 76.5951L108.632 75.5975C108.737 75.5486 108.853 75.5285 108.969 75.5394C109.084 75.5503 109.195 75.5917 109.289 75.6594L131.711 88.5972C131.979 88.7736 132.202 89.01 132.363 89.2877C132.523 89.5653 132.617 89.8766 132.636 90.1968V118.099C132.648 118.213 132.629 118.328 132.582 118.432C132.535 118.537 132.461 118.627 132.368 118.694C132.203 118.794 130.796 119.605 130.624 119.702C130.519 119.748 130.404 119.767 130.29 119.755C130.176 119.744 130.067 119.703 129.974 119.636L107.548 106.699C107.279 106.524 107.054 106.288 106.893 106.01C106.733 105.732 106.64 105.42 106.623 105.099L106.64 77.1936Z" fill="#E0E0E0"/>
<path d="M106.922 76.595C107.028 76.5476 107.143 76.5287 107.258 76.5402C107.373 76.5517 107.482 76.5931 107.576 76.6604L129.995 89.5982C130.268 89.7692 130.493 90.0057 130.652 90.2862L132.372 89.2852C132.216 89.0041 131.991 88.7673 131.718 88.5972L109.296 75.6594C109.202 75.591 109.092 75.5492 108.976 75.5383C108.86 75.5274 108.744 75.5478 108.639 75.5974L106.922 76.595Z" fill="#F0F0F0"/>
<path d="M110.114 78.1259L110.974 76.6329C111.003 76.5823 111.044 76.5406 111.095 76.5125L112.815 75.508C112.857 75.4858 112.904 75.4727 112.952 75.4696C113 75.4664 113.048 75.4734 113.093 75.4899C113.138 75.5064 113.179 75.5322 113.213 75.5655C113.248 75.5988 113.275 75.639 113.293 75.6835L114.28 78.5318L112.56 79.5397L110.114 78.1259Z" fill="#E0E0E0"/>
<path d="M106.64 77.1936C106.617 77.0781 106.631 76.9583 106.68 76.8511C106.729 76.7439 106.81 76.6547 106.912 76.5959C107.014 76.5371 107.132 76.5117 107.249 76.5233C107.366 76.5348 107.477 76.5828 107.566 76.6604L110.101 78.1224L110.961 76.6329C110.996 76.5832 111.043 76.5435 111.098 76.518C111.153 76.4925 111.214 76.482 111.274 76.4875C111.335 76.4931 111.393 76.5146 111.442 76.5498C111.492 76.585 111.531 76.6327 111.556 76.6879L112.54 79.5294L129.998 89.5982C130.266 89.775 130.49 90.0119 130.65 90.2902C130.811 90.5685 130.904 90.8805 130.923 91.2013V119.1C130.935 119.215 130.916 119.332 130.868 119.438C130.819 119.544 130.744 119.635 130.648 119.702C130.543 119.748 130.428 119.766 130.314 119.755C130.2 119.744 130.091 119.703 129.998 119.636L107.569 106.698C107.3 106.523 107.077 106.287 106.917 106.009C106.757 105.731 106.664 105.419 106.647 105.099L106.64 77.1936Z" fill="#FAFAFA"/>
<path d="M107.156 76.9906C107.122 77.0524 107.108 77.1233 107.115 77.1936V105.099C107.132 105.338 107.203 105.571 107.322 105.779C107.441 105.988 107.605 106.167 107.803 106.303L130.232 119.237C130.288 119.275 130.353 119.298 130.421 119.303C130.421 119.303 130.466 119.237 130.466 119.1V91.2013C130.45 90.9615 130.38 90.7285 130.261 90.5199C130.141 90.3113 129.976 90.1326 129.778 89.9973L112.333 79.9284L112.185 79.8424L112.13 79.6807L111.239 77.111L110.524 78.3529L110.293 78.7519L109.894 78.5214L107.359 77.056C107.301 77.0189 107.235 76.9964 107.167 76.9906M111.27 76.4678C111.339 76.4666 111.406 76.4873 111.461 76.5269C111.517 76.5665 111.559 76.623 111.58 76.6879L112.564 79.5294L129.998 89.5982C130.266 89.775 130.49 90.0119 130.65 90.2902C130.811 90.5685 130.904 90.8805 130.923 91.2013V119.1C130.935 119.215 130.916 119.332 130.868 119.438C130.819 119.544 130.744 119.635 130.648 119.702C130.575 119.741 130.493 119.761 130.411 119.76C130.265 119.754 130.123 119.712 129.998 119.636L107.569 106.698C107.3 106.523 107.077 106.287 106.917 106.009C106.757 105.731 106.664 105.419 106.647 105.099V77.1936C106.635 77.0786 106.653 76.9625 106.701 76.8572C106.749 76.7519 106.824 76.6614 106.919 76.595C106.992 76.5534 107.075 76.532 107.16 76.5331C107.306 76.5386 107.448 76.5825 107.572 76.6604L110.108 78.1224L110.968 76.6329C110.998 76.5836 111.04 76.5427 111.089 76.5139C111.139 76.485 111.196 76.4692 111.253 76.4678H111.27Z" fill="#E0E0E0"/>
<path d="M130.923 95.8969V96.3922L106.647 82.3777V81.8823L130.923 95.8969Z" fill="#E0E0E0"/>
<path d="M130.923 107.913V108.405L106.647 94.3902V93.8982L130.923 107.913Z" fill="#E0E0E0"/>
<path d="M130.923 114.411L106.647 100.396V99.9045L130.923 113.919V114.411Z" fill="#E0E0E0"/>
<path d="M130.923 101.907V102.398L106.647 88.3839V87.892L130.923 101.907Z" fill="#E0E0E0"/>
<path d="M130.49 102.151L107.067 88.6247L107.074 94.1425L130.49 107.665V102.151Z" fill="#64C46A"/>
<path opacity="0.6" d="M130.49 102.151L107.067 88.6247L107.074 94.1425L130.49 107.665V102.151Z" fill="white"/>
<path d="M126.898 101.824L115.87 95.4566C115.563 95.2811 115.316 95.4256 115.316 95.7765V96.0723C115.326 96.2646 115.381 96.4518 115.478 96.6186C115.574 96.7854 115.708 96.9271 115.87 97.0321L126.898 103.406C127.204 103.585 127.456 103.441 127.456 103.086V102.794C127.446 102.6 127.39 102.411 127.293 102.242C127.196 102.074 127.061 101.93 126.898 101.824Z" fill="#64C46A"/>
<path d="M126.898 95.835L115.87 89.4675C115.563 89.2886 115.316 89.4331 115.316 89.7875V90.0798C115.326 90.2726 115.382 90.4601 115.478 90.6275C115.574 90.7948 115.708 90.9371 115.87 91.0431L126.898 97.4105C127.204 97.5859 127.456 97.4414 127.456 97.0906V96.7947C127.445 96.6022 127.389 96.4149 127.292 96.2481C127.195 96.0813 127.06 95.9398 126.898 95.835Z" fill="#E0E0E0"/>
<path d="M126.898 89.8218L115.87 83.4544C115.563 83.279 115.316 83.42 115.316 83.7743V84.0702C115.326 84.2625 115.381 84.4497 115.478 84.6165C115.574 84.7833 115.708 84.9249 115.87 85.0299L126.898 91.3974C127.204 91.5728 127.456 91.4318 127.456 91.0774V90.7816C127.445 90.589 127.389 90.4018 127.292 90.235C127.195 90.0682 127.06 89.9266 126.898 89.8218Z" fill="#E0E0E0"/>
<path d="M126.898 113.864L115.87 107.497C115.563 107.321 115.316 107.466 115.316 107.816V108.112C115.326 108.305 115.381 108.492 115.478 108.659C115.574 108.825 115.708 108.967 115.87 109.072L126.898 115.44C127.204 115.618 127.456 115.474 127.456 115.12V114.827C127.445 114.634 127.388 114.447 127.292 114.279C127.195 114.112 127.06 113.97 126.898 113.864Z" fill="#E0E0E0"/>
<path d="M126.898 107.837L115.87 101.48C115.563 101.301 115.316 101.446 115.316 101.8V102.096C115.327 102.288 115.383 102.475 115.479 102.641C115.575 102.808 115.709 102.95 115.87 103.056L126.898 109.423C127.204 109.598 127.456 109.457 127.456 109.103V108.807C127.446 108.613 127.391 108.424 127.294 108.255C127.197 108.086 127.062 107.943 126.898 107.837Z" fill="#E0E0E0"/>
<path d="M80.3105 101.965L85.4877 95.773C85.5139 95.7406 85.5452 95.7127 85.5805 95.6905L86.8224 94.9715C86.929 94.9096 87.0047 94.9922 87.0047 95.1951L87.0322 107.717C87.0322 107.823 87.015 107.885 86.9875 107.902L85.7457 108.621C85.7044 108.642 85.639 108.577 85.5633 108.418L84.6758 106.516L84.1701 108.326C84.1571 108.386 84.1214 108.439 84.0704 108.474L82.8251 109.192C82.7219 109.251 82.5705 109.192 82.4261 109.031L81.7105 108.205C81.6074 108.089 81.5306 107.952 81.4855 107.804C81.4403 107.655 81.4279 107.499 81.4491 107.345L82.4261 103.85C82.443 103.71 82.4118 103.567 82.3374 103.447C82.2631 103.326 82.15 103.234 82.0167 103.186L80.565 102.533C80.2726 102.398 80.1522 102.144 80.3105 101.965Z" fill="#64C46A"/>
<path d="M80.3105 101.965L85.4877 95.773C85.5139 95.7406 85.5452 95.7127 85.5805 95.6905L86.8224 94.9715C86.929 94.9096 87.0047 94.9922 87.0047 95.1951L87.0322 107.717C87.0322 107.823 87.015 107.885 86.9875 107.902L85.7457 108.621C85.7044 108.642 85.639 108.577 85.5633 108.418L84.6758 106.516L84.1701 108.326C84.1571 108.386 84.1214 108.439 84.0704 108.474L82.8251 109.192C82.7219 109.251 82.5705 109.192 82.4261 109.031L81.7105 108.205C81.6074 108.089 81.5306 107.952 81.4855 107.804C81.4403 107.655 81.4279 107.499 81.4491 107.345L82.4261 103.85C82.443 103.71 82.4118 103.567 82.3374 103.447C82.2631 103.326 82.15 103.234 82.0167 103.186L80.565 102.533C80.2726 102.398 80.1522 102.144 80.3105 101.965Z" fill="#37474F"/>
<path d="M85.7905 108.436L85.763 95.9038C85.763 95.6423 85.6392 95.5804 85.4878 95.7627L80.3106 101.955C80.1592 102.134 80.2728 102.388 80.5652 102.522L82.0169 103.176C82.1501 103.224 82.2632 103.316 82.3375 103.436C82.4119 103.557 82.4432 103.699 82.4262 103.84L81.4492 107.335C81.4281 107.489 81.4405 107.645 81.4856 107.794C81.5307 107.942 81.6075 108.079 81.7107 108.195L82.4262 109.02C82.636 109.261 82.8596 109.268 82.925 109.02L83.9054 105.529C83.9708 105.295 84.1256 105.322 84.2494 105.591L85.56 108.398C85.6908 108.704 85.7905 108.704 85.7905 108.436Z" fill="#455A64"/>
<path d="M82.8457 109.179L84.0703 108.474C84.1213 108.439 84.157 108.386 84.1701 108.326L84.6758 106.52L84.2527 105.611C84.1254 105.343 83.9706 105.316 83.9087 105.55L82.9283 109.048C82.9138 109.099 82.8851 109.144 82.8457 109.179Z" fill="#263238"/>
<path d="M55.7041 132.839L58.5421 127.252L64.249 130.593L57.2142 138.897C57.2142 138.897 53.7261 138.577 53.1653 136.757C52.6046 134.937 54.7443 133.444 55.7041 132.839Z" fill="#C8856A"/>
<path d="M51.6862 135.034C51.3676 135.266 51.0986 135.56 50.895 135.897C50.6645 136.241 50.7368 137.892 50.5166 138.649C50.2964 139.406 50.1279 139.619 49.7598 140.582C49.3539 141.649 48.6005 142.622 49.4502 145.361C50.2999 148.099 51.6621 149.406 52.8076 150.077C53.2325 150.299 53.7042 150.417 54.1836 150.421C54.1836 150.421 55.6869 149.853 55.4564 148.962C55.226 148.071 51.6862 135.034 51.6862 135.034Z" fill="#263238"/>
<path d="M58.2839 138.04C58.2426 138.322 57.8504 138.756 57.6887 138.986C57.1487 139.76 56.901 140.81 56.7152 141.738C55.8277 146.073 57.5511 148.274 55.2154 149.905C54.5274 150.328 53.1514 150.211 51.0083 147.48C49.9178 146.083 49.2883 143.214 49.7217 141.914C50.1551 140.613 50.7262 139.767 51.0014 138.766C51.2766 137.765 51.1321 135.904 51.6894 135.048C52.0468 134.562 52.5088 134.164 53.0413 133.881C53.4541 133.63 54.3623 133.3 54.7819 133.059C55.2016 132.818 55.439 132.547 55.7073 132.853L55.2223 133.455C54.462 134.507 54.6719 134.662 54.6925 135.223C54.6582 135.826 54.5626 136.424 54.407 137.008C54.9505 136.32 55.1707 135.729 55.7623 135.832C56.354 135.935 56.4228 135.911 57.2691 136.702C58.1153 137.493 58.3217 137.789 58.2839 138.04Z" fill="#64C46A"/>
<path opacity="0.4" d="M58.2839 138.04C58.2426 138.322 57.8504 138.756 57.6887 138.986C57.1487 139.76 56.901 140.81 56.7152 141.738C55.8277 146.073 57.5511 148.274 55.2154 149.905C54.5274 150.328 53.1514 150.211 51.0083 147.48C49.9178 146.083 49.2883 143.214 49.7217 141.914C50.1551 140.613 50.7262 139.767 51.0014 138.766C51.2766 137.765 51.1321 135.904 51.6894 135.048C52.0468 134.562 52.5088 134.164 53.0413 133.881C53.4541 133.63 54.3623 133.3 54.7819 133.059C55.2016 132.818 55.439 132.547 55.7073 132.853L55.2223 133.455C54.462 134.507 54.6719 134.662 54.6925 135.223C54.6582 135.826 54.5626 136.424 54.407 137.008C54.9505 136.32 55.1707 135.729 55.7623 135.832C56.354 135.935 56.4228 135.911 57.2691 136.702C58.1153 137.493 58.3217 137.789 58.2839 138.04Z" fill="black"/>
<path opacity="0.3" d="M51.0082 147.466C49.9177 146.069 49.2882 143.2 49.7216 141.9C49.8644 141.471 50.0309 141.051 50.2204 140.641C50.2032 140.727 50.1757 140.82 50.1654 140.892C50.1379 141.061 50.1172 141.236 50.1 141.401C50.0023 142.065 50.077 142.742 50.3167 143.369C50.561 143.909 51.1286 145.264 51.8579 145.292C52.2707 145.309 52.6181 144.907 52.7798 144.446C52.8451 144.25 52.9552 143.723 52.9552 143.723C53.6257 143.877 54.2668 144.139 54.8541 144.497C55.9102 145.185 55.8861 145.35 55.8861 145.35C55.8221 145.656 55.8104 145.97 55.8517 146.279C55.9135 146.612 56.0474 146.928 56.2439 147.204C56.3252 147.288 56.4165 147.36 56.5156 147.421C56.4709 148.422 56.2095 149.207 55.2291 149.891C54.5411 150.328 53.1375 150.197 51.0082 147.466Z" fill="black"/>
<path d="M56.7154 141.728C56.4879 142.868 56.3967 144.031 56.4436 145.192C56.0446 146.303 55.6971 146.272 55.649 145.694C55.6008 145.116 56.3679 142.732 56.939 140.761C56.8495 141.085 56.7601 141.412 56.7154 141.728Z" fill="#37474F"/>
<path d="M54.077 134.772C54.028 134.21 54.1777 133.649 54.5001 133.186C54.6033 133.138 54.7031 133.09 54.7787 133.045C55.2363 132.787 55.4358 132.533 55.7041 132.839L55.2191 133.441C54.4588 134.494 54.6687 134.648 54.6893 135.209C54.655 135.812 54.5594 136.411 54.4038 136.995C53.9635 138.876 53.561 139.506 53.3511 141.284C53.1413 143.063 53.4991 144.256 53.2479 144.356C52.9968 144.456 52.4911 144.256 52.3983 142.832C52.3054 141.408 52.9349 139.01 53.3787 137.875C53.8224 136.74 54.1664 135.536 54.077 134.772Z" fill="#37474F"/>
<path d="M52.8318 143.847C52.8562 143.872 52.8873 143.888 52.9213 143.895C53.4817 143.97 54.0217 144.156 54.5096 144.442C54.9975 144.728 55.4235 145.108 55.7627 145.56C55.7934 145.596 55.837 145.618 55.884 145.622C55.931 145.626 55.9777 145.611 56.0138 145.581C56.0315 145.566 56.046 145.548 56.0566 145.527C56.0672 145.507 56.0736 145.484 56.0756 145.461C56.0775 145.438 56.0748 145.415 56.0678 145.393C56.0607 145.371 56.0494 145.351 56.0345 145.333C55.2975 144.358 54.2037 143.716 52.9935 143.548C52.9471 143.54 52.8993 143.55 52.8602 143.576C52.821 143.602 52.7936 143.643 52.7837 143.689C52.7774 143.717 52.7786 143.747 52.787 143.774C52.7954 143.802 52.8109 143.827 52.8318 143.847Z" fill="#EBEBEB"/>
<path d="M53.055 142.364C53.0801 142.389 53.1108 142.407 53.1444 142.416C54.3368 142.619 55.407 143.268 56.1373 144.232C56.1525 144.251 56.1714 144.267 56.1928 144.278C56.2142 144.289 56.2377 144.296 56.2618 144.298C56.286 144.3 56.3102 144.297 56.3331 144.289C56.3561 144.281 56.3772 144.269 56.3953 144.253C56.4316 144.221 56.4541 144.176 56.4579 144.128C56.4618 144.08 56.4467 144.032 56.4159 143.995C55.6333 142.972 54.4952 142.281 53.227 142.058C53.1884 142.049 53.1477 142.052 53.1112 142.068C53.0747 142.084 53.0444 142.111 53.0249 142.146C53.0054 142.181 52.9978 142.221 53.0032 142.26C53.0087 142.3 53.0269 142.336 53.055 142.364Z" fill="#EBEBEB"/>
<path d="M53.0243 140.73C53.0495 140.759 53.0833 140.778 53.1206 140.785C54.4522 141.025 55.6461 141.754 56.4677 142.829C56.4849 142.849 56.5058 142.865 56.5292 142.877C56.5527 142.889 56.5783 142.896 56.6045 142.898C56.6307 142.9 56.657 142.896 56.682 142.888C56.7069 142.88 56.73 142.867 56.7498 142.849C56.77 142.833 56.7866 142.812 56.7988 142.788C56.8109 142.765 56.8183 142.74 56.8206 142.713C56.8228 142.687 56.8198 142.661 56.8118 142.636C56.8038 142.611 56.7909 142.587 56.7739 142.567C55.8968 141.428 54.6281 140.654 53.2135 140.397C53.188 140.39 53.1614 140.389 53.1353 140.393C53.1092 140.396 53.0841 140.406 53.0616 140.419C53.0392 140.433 53.0197 140.451 53.0044 140.473C52.9891 140.494 52.9783 140.519 52.9727 140.545C52.9642 140.577 52.9645 140.612 52.9736 140.644C52.9827 140.677 53.0002 140.707 53.0243 140.73Z" fill="#EBEBEB"/>
<path d="M53.2617 139.337C53.288 139.363 53.3216 139.381 53.358 139.389C54.6594 139.622 55.8264 140.334 56.6295 141.384C56.6634 141.423 56.7113 141.447 56.7628 141.451C56.8144 141.455 56.8653 141.438 56.9047 141.405C56.9246 141.388 56.9411 141.368 56.9532 141.345C56.9652 141.323 56.9726 141.298 56.9749 141.272C56.9771 141.246 56.9742 141.221 56.9663 141.196C56.9583 141.172 56.9456 141.149 56.9288 141.129C56.072 140.013 54.8294 139.256 53.444 139.007C53.3934 138.996 53.3404 139.005 53.2965 139.033C53.2527 139.06 53.2216 139.104 53.2101 139.155C53.2019 139.187 53.2024 139.221 53.2114 139.253C53.2205 139.285 53.2378 139.314 53.2617 139.337Z" fill="#EBEBEB"/>
<path d="M53.7705 137.978C53.7979 138.004 53.8309 138.023 53.8668 138.033C55.1705 138.263 56.3398 138.975 57.1416 140.029C57.1586 140.048 57.1792 140.064 57.2023 140.075C57.2254 140.087 57.2505 140.094 57.2762 140.095C57.3019 140.097 57.3277 140.094 57.3521 140.086C57.3766 140.077 57.3991 140.065 57.4186 140.048C57.438 140.031 57.4539 140.01 57.4654 139.987C57.4768 139.964 57.4836 139.939 57.4854 139.913C57.4871 139.887 57.4838 139.862 57.4756 139.837C57.4674 139.813 57.4544 139.79 57.4375 139.771C56.5809 138.655 55.3399 137.899 53.9562 137.648C53.9052 137.637 53.8517 137.646 53.8073 137.674C53.7629 137.701 53.7311 137.745 53.7189 137.796C53.7123 137.828 53.7135 137.862 53.7225 137.894C53.7315 137.925 53.7479 137.954 53.7705 137.978Z" fill="#EBEBEB"/>
<path d="M57.2452 133.286L60.9397 136.307L63.0312 137.617L60.6439 142.127L53.9221 138.911L57.2452 133.286Z" fill="#C8856A"/>
<path d="M49.7149 113.111C49.7149 113.111 63.1653 110.885 68.9205 110.919C74.7925 110.957 75.3361 115.367 73.8672 118.068C71.0533 123.228 61.2699 134.205 61.2699 134.205C61.2699 134.205 57.9847 132.698 56.9768 129.857L59.2059 124.738L52.0851 127.005L51.2629 126.004L49.7149 113.111Z" fill="#455A64"/>
<path d="M60.3789 120.4C59.2969 121.984 58.3068 123.629 57.4136 125.326L59.2059 124.755C61.2286 119.939 61.6448 118.536 64.875 116.279C64.875 116.272 62.5564 117.132 60.3789 120.4Z" fill="#37474F"/>
<path d="M49.715 113.111L28.9821 116.912C28.9821 116.912 27.3412 124.556 28.9271 129.33C30.4785 134.002 35.0847 135.34 37.3 135.522C40.4717 135.766 44.1491 134.786 44.1491 134.786C45.2837 135.654 46.5197 136.381 47.8299 136.95C49.6806 137.689 57.7887 141.078 57.7887 141.078C57.7887 141.078 60.0694 139.148 59.8527 135.134L51.2561 126.004L49.715 113.111Z" fill="#455A64"/>
<path d="M57.792 141.074C57.792 141.074 58.2323 140.871 58.8652 139.678C56.7668 139.182 49.8628 136.482 47.6336 135.55C43.6639 133.868 42.4358 132.089 42.4358 132.089C42.4358 132.089 42.4117 133.272 44.1558 134.79C45.2904 135.657 46.5264 136.384 47.8366 136.953C49.6804 137.679 57.792 141.074 57.792 141.074Z" fill="#37474F"/>
<path d="M39.9041 134.016C37.9192 134.335 32.5804 133.352 30.8432 129.588C29.1438 125.904 29.7183 121.504 30.0967 117.72L29.4568 117.872L28.332 118.174C28.0361 121.539 27.7059 125.512 28.676 129.282C29.9144 134.043 35.0709 135.34 37.276 135.512C40.4476 135.756 44.125 134.776 44.125 134.776L43.0724 133.145C42.0561 133.564 40.992 133.857 39.9041 134.016Z" fill="#37474F"/>
<path d="M52.1847 126.984C52.1847 126.984 51.8132 126.54 51.0254 125.608C50.2376 124.676 48.9614 122.942 45.7209 123.069C42.4804 123.197 36.2093 123.757 36.2093 123.757C36.2093 123.757 42.7453 122.646 44.9882 122.271C47.2311 121.896 48.7447 122.154 50.0313 123.303C51.3178 124.452 53.3096 126.609 53.3096 126.609L52.1847 126.984Z" fill="#37474F"/>
<path d="M47.816 122.808C48.8796 121.551 49.4245 119.936 49.3399 118.291C49.3399 118.291 50.1208 121.26 48.8721 123.42L47.816 122.808Z" fill="#37474F"/>
<path d="M71.5005 139.967C73.0829 140.593 74.0598 141.219 74.7925 142.175C75.5253 143.132 75.7454 144.095 75.0505 145.254C74.3557 146.413 73.0794 147.769 71.5658 147.679C70.0522 147.59 69.12 147.215 67.713 146.451L71.5005 139.967Z" fill="#263238"/>
<path d="M58.8621 141.305C58.838 141.78 60.8366 142.726 62.911 143.713C65.1366 144.772 65.6836 145.464 67.4999 146.358C69.5639 147.39 70.3654 147.438 71.9719 146.991C73.5784 146.544 75.5702 144.239 74.1838 142.117C73.0555 140.397 71.597 139.915 69.3678 139.33C67.604 138.886 65.8711 138.326 64.1803 137.655C62.5773 137.032 61.2563 135.914 60.9261 136.303C61.1566 136.413 62.8319 137.449 62.5154 137.731C62.4363 137.875 62.1989 137.83 61.7861 137.658C61.698 137.613 61.601 137.587 61.5019 137.582C61.4027 137.577 61.3037 137.594 61.2116 137.631C61.0263 137.752 60.8813 137.926 60.7954 138.13C60.6061 138.544 60.4385 138.968 60.2931 139.399C60.1693 139.692 60.2209 139.523 60.1074 139.819C59.9939 140.115 59.729 140.651 59.7634 140.954C59.784 141.136 59.9147 141.195 60.0558 141.298C60.1968 141.401 60.3998 141.494 60.5271 141.597C60.5821 141.639 60.675 141.776 60.6474 141.845C60.6199 141.914 60.3034 141.907 60.1865 141.845C60.0695 141.783 59.8631 141.745 59.7186 141.69C59.5742 141.635 59.2267 141.477 58.8621 141.305Z" fill="#64C46A"/>
<path opacity="0.4" d="M58.8621 141.305C58.838 141.78 60.8366 142.726 62.911 143.713C65.1366 144.772 65.6836 145.464 67.4999 146.358C69.5639 147.39 70.3654 147.438 71.9719 146.991C73.5784 146.544 75.5702 144.239 74.1838 142.117C73.0555 140.397 71.597 139.915 69.3678 139.33C67.604 138.886 65.8711 138.326 64.1803 137.655C62.5773 137.032 61.2563 135.914 60.9261 136.303C61.1566 136.413 62.8319 137.449 62.5154 137.731C62.4363 137.875 62.1989 137.83 61.7861 137.658C61.698 137.613 61.601 137.587 61.5019 137.582C61.4027 137.577 61.3037 137.594 61.2116 137.631C61.0263 137.752 60.8813 137.926 60.7954 138.13C60.6061 138.544 60.4385 138.968 60.2931 139.399C60.1693 139.692 60.2209 139.523 60.1074 139.819C59.9939 140.115 59.729 140.651 59.7634 140.954C59.784 141.136 59.9147 141.195 60.0558 141.298C60.1968 141.401 60.3998 141.494 60.5271 141.597C60.5821 141.639 60.675 141.776 60.6474 141.845C60.6199 141.914 60.3034 141.907 60.1865 141.845C60.0695 141.783 59.8631 141.745 59.7186 141.69C59.5742 141.635 59.2267 141.477 58.8621 141.305Z" fill="black"/>
<path opacity="0.3" d="M66.7877 146.018C67.087 146.169 68.9721 147.05 69.5604 146.52C70.2037 145.949 68.6901 145.044 68.6901 145.044C68.6901 145.044 68.4596 143.623 70.1761 141.532C70.472 141.762 71.7104 141.752 71.6932 141.023C71.676 140.294 69.6017 139.399 69.5707 139.385C71.6966 139.953 73.0933 140.445 74.1872 142.12C75.5632 144.243 73.5852 146.547 71.9753 146.995C70.3653 147.442 69.5673 147.383 67.5033 146.362C67.2934 146.258 66.9701 146.124 66.7877 146.018Z" fill="black"/>
<path d="M68.8928 144.903C69.6805 145.165 69.1405 145.877 67.9881 145.646C66.2681 145.302 64.8301 144.322 62.9106 143.716C60.8466 142.726 58.7241 141.804 58.8583 141.277C59.2298 141.418 60.0245 141.749 60.0245 141.749C60.1793 141.814 60.5817 141.965 60.5817 141.965C62.1538 142.653 63.8945 143.737 65.5973 144.198C67.0799 144.604 68.1119 144.638 68.8928 144.903Z" fill="#37474F"/>
<path d="M70.0627 141.8C69.3437 141.384 69.2164 141.03 67.806 140.383C66.3956 139.736 64.0221 138.35 62.5394 137.49C61.9857 137.124 61.4518 136.729 60.9398 136.307C61.1841 136.028 62.0819 136.286 62.9832 136.854C63.8845 137.421 64.428 137.779 65.3189 138.23C67.0389 139.262 69.0238 139.97 70.0111 140.607C70.9984 141.243 70.7817 142.216 70.0627 141.8Z" fill="#37474F"/>
<path d="M70.1762 141.611C70.1666 141.634 70.1525 141.655 70.135 141.673C69.3378 142.673 68.8649 143.892 68.7796 145.168C68.7771 145.219 68.7556 145.268 68.7194 145.304C68.6831 145.34 68.6347 145.362 68.5835 145.364C68.5594 145.362 68.5361 145.355 68.5148 145.343C68.4936 145.332 68.4749 145.316 68.4601 145.297C68.4452 145.278 68.4345 145.256 68.4285 145.233C68.4225 145.209 68.4214 145.185 68.4253 145.161C68.5145 143.791 69.0252 142.483 69.8873 141.415C69.9031 141.397 69.9227 141.382 69.9446 141.372C69.9666 141.362 69.9904 141.357 70.0146 141.357C70.0387 141.357 70.0625 141.362 70.0845 141.372C70.1065 141.382 70.126 141.397 70.1418 141.415C70.1631 141.442 70.1773 141.475 70.1833 141.509C70.1893 141.543 70.1869 141.578 70.1762 141.611Z" fill="#F0F0F0"/>
<path d="M68.7723 140.593C68.7628 140.613 68.7513 140.633 68.7379 140.651C67.8348 141.851 67.263 143.268 67.0799 144.759C67.0756 144.81 67.0524 144.857 67.0149 144.892C66.9774 144.927 66.9282 144.947 66.8769 144.948C66.8531 144.945 66.8301 144.937 66.8094 144.925C66.7887 144.913 66.7707 144.897 66.7565 144.877C66.7423 144.858 66.7323 144.836 66.7269 144.813C66.7216 144.789 66.7211 144.765 66.7255 144.741C66.9144 143.158 67.5277 141.654 68.5006 140.39C68.5148 140.371 68.533 140.355 68.554 140.343C68.575 140.332 68.5983 140.325 68.6222 140.323C68.646 140.322 68.67 140.325 68.6924 140.334C68.7148 140.342 68.735 140.355 68.7517 140.373C68.7769 140.403 68.7923 140.44 68.796 140.48C68.7997 140.519 68.7915 140.558 68.7723 140.593Z" fill="#F0F0F0"/>
<path d="M65.7038 144.614C65.6902 144.648 65.6676 144.677 65.6385 144.699C65.6094 144.721 65.5749 144.734 65.5387 144.738C65.5146 144.739 65.4907 144.734 65.4685 144.725C65.4462 144.715 65.4262 144.702 65.4096 144.684C65.3931 144.667 65.3804 144.646 65.3724 144.623C65.3644 144.6 65.3613 144.576 65.3633 144.552C65.4458 142.031 67.0833 139.667 67.1452 139.585C67.161 139.567 67.1805 139.552 67.2025 139.542C67.2245 139.532 67.2483 139.527 67.2724 139.527C67.2966 139.527 67.3204 139.532 67.3424 139.542C67.3644 139.552 67.3839 139.567 67.3997 139.585C67.4302 139.626 67.4451 139.676 67.442 139.727C67.4388 139.778 67.4178 139.827 67.3825 139.864C67.3653 139.881 65.7967 142.192 65.7244 144.535C65.7207 144.562 65.7138 144.589 65.7038 144.614Z" fill="#F0F0F0"/>
<path d="M64.4106 143.792C64.3972 143.825 64.3752 143.854 64.3467 143.876C64.3183 143.898 64.2845 143.912 64.2489 143.916C64.2247 143.917 64.2005 143.914 64.1778 143.905C64.1552 143.896 64.1346 143.883 64.1177 143.866C64.1007 143.848 64.0876 143.828 64.0794 143.805C64.0712 143.782 64.068 143.758 64.07 143.734C64.1236 141.99 64.7898 140.322 65.9517 139.021C65.9675 139.003 65.9869 138.989 66.0085 138.979C66.0301 138.97 66.0536 138.965 66.0773 138.965C66.101 138.965 66.1244 138.97 66.146 138.979C66.1677 138.989 66.187 139.003 66.2028 139.021C66.2308 139.064 66.2431 139.115 66.2374 139.166C66.2318 139.216 66.2086 139.264 66.1719 139.299C65.1069 140.523 64.4926 142.075 64.4312 143.696C64.429 143.729 64.422 143.761 64.4106 143.792Z" fill="#F0F0F0"/>
<path d="M62.7388 143.083C62.7251 143.116 62.703 143.145 62.6746 143.167C62.6462 143.189 62.6126 143.203 62.5771 143.207C62.5534 143.209 62.5296 143.205 62.5073 143.197C62.4851 143.188 62.465 143.175 62.4483 143.158C62.4316 143.141 62.4188 143.121 62.4108 143.098C62.4028 143.076 62.3996 143.052 62.4017 143.028C62.4017 140.407 64.2524 138.377 64.3349 138.295C64.3508 138.277 64.3703 138.262 64.3923 138.252C64.4142 138.242 64.4381 138.237 64.4622 138.237C64.4864 138.237 64.5102 138.242 64.5322 138.252C64.5541 138.262 64.5737 138.277 64.5895 138.295C64.6193 138.337 64.6329 138.388 64.6279 138.439C64.6228 138.491 64.5994 138.538 64.562 138.574C64.5448 138.594 62.7663 140.555 62.7594 142.99C62.7601 143.023 62.7531 143.055 62.7388 143.083Z" fill="#EBEBEB"/>
<path d="M72.3297 95.3706L59.8184 96.8498C59.8184 96.8498 56.3577 95.2983 54.2043 94.3661C46.7429 91.129 45.5871 90.5339 43.1757 90.5649L47.2452 99.1167C47.2452 99.1167 52.0887 101.181 56.5504 102.849C58.8758 103.723 58.8483 103.881 61.4145 103.217C63.3237 102.729 64.311 102.471 67.0837 101.717C70.4824 100.795 72.7769 100.252 72.7769 100.252L72.3297 95.3706Z" fill="#C8856A"/>
<path d="M70.8985 95.6492C73.1826 95.1882 74.0702 95.2054 74.6825 93.7847C75.2948 92.364 75.5562 92.0957 75.8142 91.8274C76.0722 91.559 77.7441 90.6096 78.4321 90.2312C78.955 89.9526 79.4331 89.9835 80.3826 89.7771C80.8538 89.6739 81.3974 89.5226 81.8652 89.385C82.2397 89.2204 82.6359 89.1103 83.0417 89.0582C83.568 89.0582 83.4476 89.815 83.0864 90.1693C82.6522 90.5325 82.1524 90.8093 81.6141 90.9846C81.2357 91.1394 80.331 91.4902 80.331 91.4902C80.4686 91.7998 80.8194 92.364 80.8126 92.7458C80.8057 93.1277 80.7472 93.279 80.0661 93.9361C80.1468 94.0214 80.2088 94.1228 80.2479 94.2336C80.287 94.3444 80.3024 94.4622 80.2931 94.5794C80.1885 94.8849 80.0073 95.1585 79.7668 95.374C79.8844 95.5221 79.9508 95.7044 79.956 95.8934C79.956 96.1962 79.4366 96.7741 78.924 97.2213C78.3839 97.8061 77.9298 98.7005 77.4345 99.1614C76.9391 99.6224 76.2236 99.76 75.0471 99.8494C73.8706 99.9389 70.84 100.696 70.84 100.696C70.84 100.696 68.6831 96.093 70.8985 95.6492Z" fill="#C8856A"/>
<path d="M76.6259 92.5773C77.2552 92.4544 77.8262 92.1266 78.2496 91.645C78.6521 91.1566 79.0649 90.589 79.2506 90.6646C79.5637 90.7919 79.887 91.6485 79.3057 92.5016C78.7243 93.3547 77.8678 94.1631 77.7233 94.4074C77.5692 94.8908 77.4971 95.3966 77.51 95.9038C77.4532 96.4485 77.2309 96.9628 76.8729 97.3773C76.515 97.7919 76.0386 98.0868 75.5079 98.2223C76.1436 98.2031 76.7474 97.9394 77.1935 97.4862C78.0535 96.6915 77.9056 95.4394 77.995 94.913C78.0845 94.3867 78.1017 94.2801 78.7553 93.599C79.4089 92.9178 80.1141 92.1851 79.8354 91.1153C79.5568 90.0454 79.1027 90.2966 78.8757 90.5098C78.6486 90.7231 77.7061 92.333 76.6259 92.5773Z" fill="#AF6152"/>
<path d="M80.3414 91.504L79.7187 91.6519L79.8357 91.8824C80.0043 91.8635 80.1749 91.8906 80.3294 91.9608C80.4838 92.0311 80.6164 92.1419 80.7129 92.2814C80.6303 92.0647 80.4514 91.7207 80.3414 91.504Z" fill="#AF6152"/>
<path d="M80.0762 93.9361C79.856 94.1597 79.1405 94.8098 78.996 94.944C78.8515 95.0782 78.5626 94.8855 78.5179 94.4899C78.4618 94.1675 78.5294 93.8359 78.707 93.5611C78.4803 93.8182 78.3576 94.1506 78.363 94.4934C78.4009 95.0025 78.6726 95.1814 78.879 95.2123C79.0854 95.2433 79.6049 94.4108 80.0762 93.9361Z" fill="#AF6152"/>
<path d="M79.7773 95.374C79.6157 95.546 79.3577 95.7386 78.9036 96.1996C78.6387 96.4679 78.4805 96.6468 78.2947 96.5436C78.1687 96.402 78.0893 96.225 78.0671 96.0368C78.045 95.8485 78.0812 95.658 78.1709 95.491C78.2972 95.2767 78.4485 95.0781 78.6215 94.8993L78.4942 94.7617C78.2085 95.033 77.9925 95.3694 77.8647 95.7421C77.7374 96.2478 78.0264 96.8154 78.2878 96.7741C78.5493 96.7328 78.6869 96.5883 79.0481 96.1927C79.4093 95.7971 79.7773 95.374 79.7773 95.374Z" fill="#AF6152"/>
<path d="M78.4319 96.664C78.339 96.7844 78.2736 97.1215 78.4938 97.2316C78.5625 97.2625 78.6369 97.2784 78.7122 97.2784C78.7875 97.2784 78.862 97.2625 78.9307 97.2316C78.866 97.3003 78.7816 97.3471 78.6891 97.3656C78.5967 97.3841 78.5007 97.3733 78.4147 97.3348C78.1463 97.2006 78.1429 96.8635 78.2048 96.609L78.4319 96.664Z" fill="#AF6152"/>
<path d="M28.8719 104.476C29.3363 97.6926 29.3191 94.7617 29.9899 92.5394C31.0219 92.2367 33.2407 91.6175 33.2407 91.6175C33.2407 91.6175 38.5865 91.3905 40.4957 90.5855L43.1755 90.4823C44.6271 91.879 48.4524 94.858 49.6943 97.6822C50.5233 99.5708 50.5027 102.347 48.2357 104.218C48.2224 105.745 48.1074 107.269 47.8917 108.78C47.8917 108.78 48.5797 110.943 49.4466 113.069C49.1232 116.406 44.2556 118.917 38.3147 120.517C31.937 122.237 28.036 119.664 28.036 119.664C28.036 119.664 28.411 111.198 28.8719 104.476Z" fill="#64C46A"/>
<path opacity="0.6" d="M28.8719 104.476C29.3363 97.6926 29.3191 94.7617 29.9899 92.5394C31.0219 92.2367 33.2407 91.6175 33.2407 91.6175C33.2407 91.6175 38.5865 91.3905 40.4957 90.5855L43.1755 90.4823C44.6271 91.879 48.4524 94.858 49.6943 97.6822C50.5233 99.5708 50.5027 102.347 48.2357 104.218C48.2224 105.745 48.1074 107.269 47.8917 108.78C47.8917 108.78 48.5797 110.943 49.4466 113.069C49.1232 116.406 44.2556 118.917 38.3147 120.517C31.937 122.237 28.036 119.664 28.036 119.664C28.036 119.664 28.411 111.198 28.8719 104.476Z" fill="white"/>
<path opacity="0.3" d="M42.873 105.426C42.873 105.426 41.2666 107.586 37.885 107.349C34.3969 107.104 33.5988 104.253 33.5988 104.253C33.5988 104.253 33.5988 108.037 37.7784 108.322C38.8241 108.435 39.8788 108.216 40.7932 107.696C41.7075 107.176 42.4352 106.382 42.873 105.426Z" fill="#64C46A"/>
<path d="M38.8722 124.232V124.624C38.8715 124.819 38.9223 125.011 39.0196 125.18C39.1168 125.35 39.257 125.49 39.426 125.588L50.0143 131.683C50.1828 131.78 50.3738 131.831 50.5682 131.831C50.7625 131.831 50.9535 131.78 51.122 131.683L70.5511 120.465C70.7205 120.368 70.8612 120.228 70.959 120.059C71.0569 119.889 71.1084 119.698 71.1084 119.502V119.234L50.5682 131.092L38.8722 124.232Z" fill="#EBEBEB"/>
<path d="M71.1084 119.234L59.5878 112.581C59.4873 112.523 59.3735 112.493 59.2576 112.493C59.1417 112.493 59.0279 112.523 58.9274 112.581L38.941 124.122C38.918 124.134 38.8987 124.153 38.8853 124.175C38.8719 124.198 38.8649 124.223 38.8649 124.249C38.8649 124.275 38.8719 124.301 38.8853 124.324C38.8987 124.346 38.918 124.364 38.941 124.377L50.5682 131.092L71.1084 119.234Z" fill="#FAFAFA"/>
<path d="M50.4616 130.115L44.2489 126.53L62.419 116.042L68.6626 119.605L50.4616 130.115Z" fill="#E0E0E0"/>
<path d="M47.4102 120.145L47.5237 120.211L50.5681 121.969L55.9861 118.842L56.0962 118.776L52.9383 116.953L47.4102 120.145Z" fill="#E0E0E0"/>
<path d="M47.5239 120.211L50.5683 121.969L55.9863 118.842L52.9385 117.084L47.5239 120.211Z" fill="#E6E6E6"/>
<path d="M50.5682 131.092V131.831C50.7627 131.832 50.9539 131.781 51.122 131.683L70.5511 120.465C70.7205 120.368 70.8612 120.228 70.959 120.059C71.0569 119.889 71.1084 119.698 71.1084 119.502V119.234L50.5682 131.092Z" fill="#EBEBEB"/>
<g style="mix-blend-mode:multiply" opacity="0.5">
<path d="M50.5682 131.092V131.831C50.7627 131.832 50.9539 131.781 51.122 131.683L70.5511 120.465C70.7205 120.368 70.8612 120.228 70.959 120.059C71.0569 119.889 71.1084 119.698 71.1084 119.502V119.234L50.5682 131.092Z" fill="#E0E0E0"/>
</g>
<path d="M50.8813 131.257C51.0652 131.328 51.2626 131.356 51.4591 131.341C51.6556 131.325 51.8461 131.266 52.0165 131.167L71.3597 120.001C71.5278 119.904 71.6723 119.771 71.7829 119.612C71.8936 119.452 71.9675 119.27 71.9995 119.079L74.1185 106.451C74.1294 106.379 74.1351 106.307 74.1357 106.234C74.1353 105.883 73.9955 105.546 73.747 105.298L53.6437 116.908C53.5189 116.981 53.4118 117.08 53.3303 117.199C53.2488 117.318 53.1948 117.454 53.1724 117.596L50.8813 131.257Z" fill="#64C46A"/>
<g opacity="0.7">
<path d="M50.8813 131.257C51.0652 131.328 51.2626 131.356 51.4591 131.341C51.6556 131.325 51.8461 131.266 52.0165 131.167L71.3597 120.001C71.5278 119.904 71.6723 119.771 71.7829 119.612C71.8936 119.452 71.9675 119.27 71.9995 119.079L74.1185 106.451C74.1294 106.379 74.1351 106.307 74.1357 106.234C74.1353 105.883 73.9955 105.546 73.747 105.298L53.6437 116.908C53.5189 116.981 53.4118 117.08 53.3303 117.199C53.2488 117.318 53.1948 117.454 53.1724 117.596L50.8813 131.257Z" fill="white"/>
</g>
<path d="M50.5679 131.092L50.702 131.167C50.7599 131.2 50.8196 131.23 50.8809 131.257L53.1719 117.59C53.1944 117.447 53.2484 117.311 53.3299 117.192C53.4114 117.073 53.5185 116.974 53.6432 116.902L73.7466 105.298C73.6647 105.221 73.5747 105.153 73.4783 105.095L53.3199 116.726C53.1949 116.798 53.0878 116.898 53.0062 117.017C52.9247 117.136 52.8708 117.271 52.8486 117.414L50.5679 131.092Z" fill="#FAFAFA"/>
<path d="M61.7758 119.598C61.9203 118.752 62.7906 117.627 63.7263 117.087C64.662 116.547 65.3052 116.798 65.1642 117.641C65.0232 118.484 64.1494 119.612 63.2137 120.152C62.278 120.692 61.6348 120.441 61.7758 119.598Z" fill="#64C46A"/>
<path d="M22.9378 111.8C23.1442 110.424 25.1532 97.7992 25.7517 96.093C26.3984 94.2491 27.1036 93.3857 29.9657 92.5463C32.6352 94.373 32.1088 100.39 31.7648 101.772L29.6802 111.704C29.6802 111.704 32.6524 113.118 35.05 114.225C37.114 115.168 38.5382 116.244 40.9393 116.482C43.3404 116.719 43.7945 116.588 45.8516 117.483C46.5692 117.817 47.2594 118.207 47.9156 118.649C48.6415 119.413 49.5359 119.998 50.3236 120.713C50.9119 121.105 50.3787 121.401 49.9177 121.425C48.6415 121.47 47.6095 120.483 46.4605 120.08C46.5984 120.488 46.6738 120.915 46.6841 121.346C46.6841 121.69 46.777 122.106 46.4812 122.378C46.2601 122.518 46.0188 122.624 45.7656 122.691C45.7653 122.819 45.7161 122.942 45.628 123.035C45.4548 123.169 45.2367 123.23 45.0192 123.207C44.9038 123.198 44.7889 123.183 44.6752 123.162C44.6616 123.272 44.6196 123.376 44.5532 123.464C44.4867 123.552 44.3983 123.621 44.2968 123.665C43.8234 123.824 43.3156 123.851 42.8279 123.744C42.7556 123.716 42.2052 123.434 42.0436 123.352C41.836 123.281 41.6476 123.163 41.4932 123.008C41.3728 122.829 41.6996 122.409 41.9816 122.357C42.2938 122.322 42.6095 122.336 42.9173 122.399C42.7865 122.146 42.6893 121.878 42.6284 121.601C42.3635 121.198 40.5334 121.649 38.8925 121.398C37.6576 121.208 36.9145 120.293 36.3572 120.053C32.6558 118.446 27.7572 117.473 25.3492 116.757C22.3392 115.852 22.5525 114.332 22.9378 111.8Z" fill="#C8856A"/>
<path d="M46.4402 120.056C46.3514 119.46 46.1149 118.896 45.7522 118.415C46.392 118.632 46.8564 120.225 46.8564 120.225L46.4402 120.056Z" fill="#AF6152"/>
<path d="M45.7522 122.664C45.7981 122.321 45.7981 121.974 45.7522 121.632C45.7222 121.294 45.6716 120.958 45.6008 120.627C45.5419 120.29 45.4437 119.961 45.3084 119.647C45.1786 119.327 44.9617 119.051 44.6823 118.849C44.801 118.966 44.8977 119.103 44.9678 119.254C45.0477 119.398 45.1145 119.549 45.1674 119.705C45.2721 120.02 45.3538 120.342 45.4116 120.668C45.4804 120.995 45.5423 121.325 45.6042 121.652C45.6748 121.986 45.7242 122.324 45.7522 122.664Z" fill="#AF6152"/>
<path d="M44.658 123.124C44.6873 122.791 44.6804 122.455 44.6374 122.123C44.6033 121.792 44.547 121.463 44.4688 121.14C44.3961 120.814 44.2996 120.495 44.1799 120.183C44.081 119.861 43.8995 119.571 43.6536 119.34C43.7569 119.467 43.8351 119.611 43.884 119.767C43.9437 119.918 43.9953 120.073 44.0388 120.231C44.1248 120.548 44.2074 120.864 44.2796 121.184C44.4276 121.824 44.5686 122.464 44.658 123.124Z" fill="#AF6152"/>
<path d="M41.9682 122.337C42.1074 122.337 42.246 122.355 42.381 122.388C42.5152 122.416 42.608 122.481 42.7766 122.533L42.7078 122.426C42.7011 122.493 42.7118 122.561 42.7388 122.622C42.7606 122.679 42.7933 122.73 42.8351 122.774C42.9113 122.859 43.0103 122.921 43.1206 122.952C43.053 122.874 42.9941 122.789 42.9452 122.698C42.9268 122.657 42.9129 122.614 42.9039 122.571C42.8996 122.533 42.8996 122.495 42.9039 122.457V122.378L42.8248 122.35C42.6992 122.304 42.5666 122.278 42.4326 122.275C42.2751 122.25 42.1138 122.272 41.9682 122.337Z" fill="#AF6152"/>
<path d="M32.8244 73.0828C30.2891 72.295 27.7779 75.3429 28.0807 77.799C26.9833 78.6384 26.3607 81.614 27.7917 83.0898C26.9592 84.6206 28.1735 87.6168 30.2651 87.9058C29.9623 89.2336 31.6995 91.191 33.8117 91.2804C36.6428 91.4008 35.941 90.3963 35.3769 87.2831C35.0879 85.7592 32.8244 73.0828 32.8244 73.0828Z" fill="#263238"/>
<path d="M41.8027 95.288C44.2623 94.8924 43.103 93.3478 41.3486 91.559L37.4683 90.472L34.3035 90.1452C34.3242 91.2254 33.674 91.4524 33.0514 91.6898C34.7266 93.427 38.8718 95.749 41.8027 95.288Z" fill="#C8856A"/>
<path d="M40.6508 91.3492C41.6828 93.7262 43.6264 93.6506 44.3797 93.5061C44.6859 94.9956 45.9381 95.7283 47.2349 96.2581C46.9425 97.7338 48.0158 98.7005 49.0788 99.4917C48.8978 99.7628 48.7803 100.071 48.735 100.394C48.6897 100.717 48.7179 101.046 48.8173 101.356C49.0169 102.178 50.2897 103.616 50.0489 104.59C51.4971 103.049 51.4902 100.957 50.2484 99.3094C50.4892 97.8646 50.6612 96.4266 49.3196 95.5254C49.6636 93.6678 48.7692 92.3021 46.8944 91.989C46.8531 90.5614 45.9209 89.7152 44.3488 89.4675C44.6928 86.9838 42.1506 85.9966 40.5648 85.9484C40.5854 87.0286 40.4203 89.3437 40.4685 90.4204L40.6508 91.3492Z" fill="#263238"/>
<path d="M43.2098 71.3009C40.0966 69.8182 35.0398 70.4581 34.283 72.6769C32.9311 72.4636 31.875 73.2754 30.9909 74.9817C30.4477 76.0986 30.1487 77.3183 30.1137 78.5598C30.0787 79.8012 30.3086 81.0359 30.788 82.1816C31.5399 84.1737 32.7269 85.973 34.2624 87.4482L34.3518 83.7846C34.662 83.7636 34.9683 83.7035 35.2634 83.6058C36.8871 83.045 42.2294 80.7746 43.4781 78.5971C43.4781 78.5971 45.9308 79.9112 45.9343 79.9078C48.504 77.486 47.472 73.327 43.2098 71.3009Z" fill="#37474F"/>
<path d="M45.5218 76.8874C45.6869 77.4963 46.2098 78.8345 46.1238 83.0038C46.0413 86.977 44.8476 88.2498 43.9394 88.7726C43.2514 89.1717 41.7722 89.3196 40.6439 89.213V92.6014C40.6439 92.6014 40.8778 93.193 38.4389 93.3926C34.7374 93.6987 34.3109 91.7551 34.3109 91.7551L34.2145 85.7351C34.2145 85.7351 33.2204 86.3715 32.0749 85.4118C31.3869 84.8407 30.8227 83.1207 31.6793 82.2091C32.5358 81.2975 33.4577 81.5521 34.2145 82.8352C34.2919 82.9413 34.3981 83.023 34.5204 83.0707C34.6427 83.1184 34.7761 83.1301 34.9049 83.1044C35.0337 83.0787 35.1524 83.0167 35.2471 82.9258C35.3417 82.8348 35.4084 82.7186 35.4392 82.591C35.7832 81.0808 35.3119 79.5156 37.3828 78.6281C39.068 77.9873 40.5111 76.8364 41.5108 75.336C42.9005 76.4127 44.7203 77.0113 45.5218 76.8874Z" fill="#C8856A"/>
<path d="M39.0785 81.3491C39.0905 81.5276 39.1669 81.6957 39.2934 81.8222C39.4199 81.9487 39.588 82.025 39.7665 82.0371C39.8496 82.0371 39.9319 82.0207 40.0087 81.9889C40.0855 81.9571 40.1552 81.9105 40.214 81.8517C40.2728 81.793 40.3194 81.7232 40.3512 81.6464C40.383 81.5696 40.3994 81.4873 40.3994 81.4042C40.3994 81.321 40.383 81.2387 40.3512 81.1619C40.3194 81.0851 40.2728 81.0154 40.214 80.9566C40.1552 80.8978 40.0855 80.8512 40.0087 80.8194C39.9319 80.7876 39.8496 80.7712 39.7665 80.7712C39.5988 80.7578 39.4327 80.8109 39.3039 80.9191C39.1752 81.0272 39.0942 81.1817 39.0785 81.3491Z" fill="#263238"/>
<path d="M43.7673 81.1565C43.7673 81.3243 43.834 81.4853 43.9527 81.604C44.0714 81.7227 44.2324 81.7894 44.4002 81.7894C44.5835 81.7752 44.7556 81.696 44.8855 81.5661C45.0154 81.4361 45.0947 81.264 45.1089 81.0808C45.1089 80.7368 44.7477 80.527 44.4002 80.527C44.3173 80.5265 44.2351 80.5425 44.1583 80.5739C44.0815 80.6053 44.0117 80.6516 43.9529 80.7101C43.8941 80.7686 43.8474 80.8382 43.8155 80.9148C43.7837 80.9914 43.7673 81.0735 43.7673 81.1565Z" fill="#263238"/>
<path d="M40.1209 85.1606L42.0508 85.656C42.0237 85.7847 41.9709 85.9067 41.8957 86.0146C41.8205 86.1225 41.7244 86.2141 41.613 86.2841C41.5016 86.3541 41.3773 86.4009 41.2474 86.4219C41.1176 86.4428 40.9848 86.4374 40.8571 86.4059C40.5956 86.3363 40.372 86.1668 40.2343 85.9339C40.0966 85.7009 40.0559 85.4233 40.1209 85.1606Z" fill="#AF6152"/>
<path d="M40.2479 85.5528C40.5049 85.5216 40.7638 85.5929 40.9686 85.7513C41.1734 85.9097 41.3075 86.1424 41.3418 86.399C41.1806 86.4421 41.011 86.4421 40.8499 86.399C40.6611 86.3471 40.491 86.2426 40.3595 86.0976C40.2279 85.9526 40.1403 85.7732 40.1068 85.5803C40.1531 85.5676 40.2002 85.5584 40.2479 85.5528Z" fill="#FFA8A7"/>
<path d="M45.346 80.011L44.0388 79.5603C44.0641 79.4738 44.1067 79.3933 44.164 79.3237C44.2214 79.2541 44.2922 79.1969 44.3722 79.1554C44.4523 79.1139 44.5399 79.0891 44.6298 79.0824C44.7197 79.0758 44.81 79.0874 44.8953 79.1166C45.0704 79.1799 45.2147 79.3079 45.2985 79.4742C45.3823 79.6405 45.3993 79.8325 45.346 80.011Z" fill="#263238"/>
<path d="M39.7769 79.5706L38.6176 80.324C38.5643 80.2513 38.5264 80.1685 38.5064 80.0806C38.4863 79.9928 38.4844 79.9017 38.5009 79.8131C38.5173 79.7245 38.5517 79.6402 38.6019 79.5653C38.6522 79.4905 38.7172 79.4268 38.793 79.378C38.9503 79.2774 39.1403 79.2413 39.3235 79.2772C39.5068 79.3131 39.6691 79.4182 39.7769 79.5706Z" fill="#263238"/>
<path d="M41.6861 80.379L42.1161 84.483L44.2627 83.764C43.5885 82.615 42.7353 81.184 41.6861 80.379Z" fill="#AF6152"/>
<path d="M40.6436 89.213C39.0715 88.9206 36.1337 88.2085 35.6212 85.9518C35.6212 85.9518 35.4836 87.1593 36.7288 88.377C38.0292 89.6533 40.6436 90.128 40.6436 90.128V89.213Z" fill="#AF6152"/>
<path d="M38.2734 65.1777L37.152 63.069L38.0533 60.4614V58.8653L35.3013 60.4614V62.0576L36.4915 64.1216C36.5099 64.1532 36.5375 64.1784 36.5706 64.1938L38.2734 65.1777Z" fill="#64C46A"/>
<path opacity="0.2" d="M38.2734 65.1777L37.152 63.069L38.0533 60.4614V58.8653L35.3013 60.4614V62.0576L36.4915 64.1216C36.5099 64.1532 36.5375 64.1784 36.5706 64.1938L38.2734 65.1777Z" fill="black"/>
<path d="M44.4584 43.2168C44.4427 42.9289 44.3596 42.6487 44.2155 42.3989C44.0715 42.1491 43.8707 41.9367 43.6293 41.7789L42.9413 41.3902C42.6846 41.2613 42.4013 41.1942 42.114 41.1942C41.8267 41.1942 41.5434 41.2613 41.2867 41.3902L30.9598 47.3723C30.7189 47.5298 30.5184 47.7416 30.3744 47.9908C30.2304 48.24 30.1469 48.5195 30.1308 48.8068V63.389C30.1469 63.6763 30.2304 63.9558 30.3744 64.205C30.5184 64.4542 30.7189 64.666 30.9598 64.8235L31.6478 65.2122C31.9047 65.3427 32.1887 65.4107 32.4769 65.4107C32.765 65.4107 33.049 65.3427 33.3059 65.2122L37.0452 63.0622L38.2285 65.1262C38.2461 65.1547 38.2713 65.1778 38.3013 65.1927C38.3313 65.2076 38.3648 65.2138 38.3982 65.2106C38.4315 65.2073 38.4633 65.1948 38.4898 65.1744C38.5164 65.154 38.5367 65.1266 38.5485 65.0952L39.8006 61.4798L43.6465 59.2403C43.8878 59.0833 44.0886 58.8715 44.2327 58.6223C44.3767 58.373 44.46 58.0933 44.4756 57.8059L44.4584 43.2168Z" fill="#64C46A"/>
<path opacity="0.2" d="M30.1275 63.3889C30.1437 63.6762 30.2272 63.9557 30.3712 64.2049C30.5152 64.4541 30.7157 64.6659 30.9566 64.8234L31.6446 65.2121C31.8786 65.329 32.1347 65.3953 32.3961 65.4065C32.6575 65.4178 32.9184 65.3738 33.1616 65.2774C32.7695 65.4254 32.4736 65.2052 32.4736 64.7339V50.1518C32.4844 49.8641 32.5672 49.5838 32.7144 49.3365L30.3855 47.9914C30.235 48.2375 30.1509 48.5184 30.1413 48.8067L30.1275 63.3889Z" fill="black"/>
<path opacity="0.3" d="M44.4307 42.9794C44.3343 42.6354 44.0144 42.515 43.6326 42.7351L33.2885 48.7207C33.0426 48.8707 32.8408 49.0832 32.7037 49.3365L30.3748 47.9914C30.5117 47.739 30.7121 47.5268 30.9562 47.3757L41.2796 41.3901C41.537 41.2612 41.8208 41.194 42.1087 41.194C42.3965 41.194 42.6804 41.2612 42.9377 41.3901L43.6257 41.7822C43.8339 41.917 44.0125 42.0926 44.1509 42.2983C44.2892 42.5041 44.3844 42.7358 44.4307 42.9794Z" fill="white"/>
<path d="M35.4905 55.3083L37.6095 56.6946V49.1507L38.989 48.3526V56.0789L40.8019 53.1342L41.7754 53.867L38.5074 58.9788L34.8232 56.5639L35.4905 55.3083Z" fill="#FAFAFA"/>
</svg>
